<svg xmlns="http://www.w3.org/2000/svg" xmlns:xlink="http://www.w3.org/1999/xlink" contentStyleType="text/css" data-diagram-type="SALT" height="305px" preserveAspectRatio="none" style="width:264px;height:305px;background:#FFFFFF;" version="1.1" viewBox="0 0 264 305" width="264px" zoomAndPan="magnify"><defs/><g><text fill="#000000" font-family="sans-serif" font-size="12" lengthAdjust="spacing" textLength="74.8008" x="6" y="17.1387">fight-service</text><text fill="#000000" font-family="sans-serif" font-size="12" lengthAdjust="spacing" textLength="17.7832" x="26" y="31.1074">src</text><text fill="#000000" font-family="sans-serif" font-size="12" lengthAdjust="spacing" textLength="29.9824" x="36" y="45.0762">main</text><text fill="#000000" font-family="sans-serif" font-size="12" lengthAdjust="spacing" textLength="25.1426" x="46" y="59.0449">java</text><text fill="#000000" font-family="sans-serif" font-size="12" lengthAdjust="spacing" textLength="10.6758" x="56" y="73.0137">io</text><text fill="#000000" font-family="sans-serif" font-size="12" lengthAdjust="spacing" textLength="48.3164" x="66" y="86.9824">quarkus</text><text fill="#000000" font-family="sans-serif" font-size="12" lengthAdjust="spacing" textLength="57.8555" x="76" y="100.9512">workshop</text><text fill="#000000" font-family="sans-serif" font-size="12" lengthAdjust="spacing" textLength="27.4863" x="86" y="114.9199">fight</text><text fill="#000000" font-family="sans-serif" font-size="12" lengthAdjust="spacing" textLength="59.1211" x="96" y="128.8887">Fight.java</text><text fill="#000000" font-family="sans-serif" font-size="12" lengthAdjust="spacing" textLength="151.7285" x="96" y="142.8574">FightMetricPublisher.java</text><text fill="#000000" font-family="sans-serif" font-size="12" lengthAdjust="spacing" textLength="161.3848" x="96" y="156.8262">FightSimulatorService.java</text><text fill="#000000" font-family="sans-serif" font-size="12" lengthAdjust="spacing" textLength="114.9551" x="96" y="170.7949">FightResource.java</text><text fill="#000000" font-family="sans-serif" font-size="12" lengthAdjust="spacing" textLength="96.7383" x="96" y="184.7637">FightResult.java</text><text fill="#000000" font-family="sans-serif" font-size="12" lengthAdjust="spacing" textLength="57.6387" x="96" y="198.7324">Hero.java</text><text fill="#000000" font-family="sans-serif" font-size="12" lengthAdjust="spacing" textLength="65.4609" x="96" y="212.7012">Villain.java</text><text fill="#000000" font-family="sans-serif" font-size="12" lengthAdjust="spacing" textLength="58.6816" x="46" y="226.6699">resources</text><text fill="#000000" font-family="sans-serif" font-size="12" lengthAdjust="spacing" textLength="131.5078" x="56" y="240.6387">application.properties</text><text fill="#000000" font-family="sans-serif" font-size="12" lengthAdjust="spacing" textLength="60.7207" x="26" y="254.6074">Dockerfile</text><text fill="#000000" font-family="sans-serif" font-size="12" lengthAdjust="spacing" textLength="36.2109" x="26" y="268.5762">mvnw</text><text fill="#000000" font-family="sans-serif" font-size="12" lengthAdjust="spacing" textLength="65.9297" x="26" y="282.5449">mvnw.cmd</text><text fill="#000000" font-family="sans-serif" font-size="12" lengthAdjust="spacing" textLength="52.5879" x="26" y="296.5137">pom.xml</text><rect fill="none" height="2" style="stroke:#888888;stroke-width:1;" width="2" x="-1" y="11.9844"/><rect fill="none" height="2" style="stroke:#888888;stroke-width:1;" width="2" x="19" y="25.9531"/><line style="stroke:#888888;stroke-width:1;" x1="0" x2="0" y1="14.9844" y2="26.9531"/><line style="stroke:#888888;stroke-width:1;" x1="0" x2="18" y1="26.9531" y2="26.9531"/><rect fill="none" height="2" style="stroke:#888888;stroke-width:1;" width="2" x="29" y="39.9219"/><line style="stroke:#888888;stroke-width:1;" x1="20" x2="20" y1="28.9531" y2="40.9219"/><line style="stroke:#888888;stroke-width:1;" x1="20" x2="28" y1="40.9219" y2="40.9219"/><rect fill="none" height="2" style="stroke:#888888;stroke-width:1;" width="2" x="39" y="53.8906"/><line style="stroke:#888888;stroke-width:1;" x1="30" x2="30" y1="42.9219" y2="54.8906"/><line style="stroke:#888888;stroke-width:1;" x1="30" x2="38" y1="54.8906" y2="54.8906"/><rect fill="none" height="2" style="stroke:#888888;stroke-width:1;" width="2" x="49" y="67.8594"/><line style="stroke:#888888;stroke-width:1;" x1="40" x2="40" y1="56.8906" y2="68.8594"/><line style="stroke:#888888;stroke-width:1;" x1="40" x2="48" y1="68.8594" y2="68.8594"/><rect fill="none" height="2" style="stroke:#888888;stroke-width:1;" width="2" x="59" y="81.8281"/><line style="stroke:#888888;stroke-width:1;" x1="50" x2="50" y1="70.8594" y2="82.8281"/><line style="stroke:#888888;stroke-width:1;" x1="50" x2="58" y1="82.8281" y2="82.8281"/><rect fill="none" height="2" style="stroke:#888888;stroke-width:1;" width="2" x="69" y="95.7969"/><line style="stroke:#888888;stroke-width:1;" x1="60" x2="60" y1="84.8281" y2="96.7969"/><line style="stroke:#888888;stroke-width:1;" x1="60" x2="68" y1="96.7969" y2="96.7969"/><rect fill="none" height="2" style="stroke:#888888;stroke-width:1;" width="2" x="79" y="109.7656"/><line style="stroke:#888888;stroke-width:1;" x1="70" x2="70" y1="98.7969" y2="110.7656"/><line style="stroke:#888888;stroke-width:1;" x1="70" x2="78" y1="110.7656" y2="110.7656"/><line style="stroke:#888888;stroke-width:1;" x1="80" x2="80" y1="112.7656" y2="124.7344"/><line style="stroke:#888888;stroke-width:1;" x1="80" x2="88" y1="124.7344" y2="124.7344"/><line style="stroke:#888888;stroke-width:1;" x1="80" x2="80" y1="112.7656" y2="138.7031"/><line style="stroke:#888888;stroke-width:1;" x1="80" x2="88" y1="138.7031" y2="138.7031"/><line style="stroke:#888888;stroke-width:1;" x1="80" x2="80" y1="112.7656" y2="152.6719"/><line style="stroke:#888888;stroke-width:1;" x1="80" x2="88" y1="152.6719" y2="152.6719"/><line style="stroke:#888888;stroke-width:1;" x1="80" x2="80" y1="112.7656" y2="166.6406"/><line style="stroke:#888888;stroke-width:1;" x1="80" x2="88" y1="166.6406" y2="166.6406"/><line style="stroke:#888888;stroke-width:1;" x1="80" x2="80" y1="112.7656" y2="180.6094"/><line style="stroke:#888888;stroke-width:1;" x1="80" x2="88" y1="180.6094" y2="180.6094"/><line style="stroke:#888888;stroke-width:1;" x1="80" x2="80" y1="112.7656" y2="194.5781"/><line style="stroke:#888888;stroke-width:1;" x1="80" x2="88" y1="194.5781" y2="194.5781"/><line style="stroke:#888888;stroke-width:1;" x1="80" x2="80" y1="112.7656" y2="208.5469"/><line style="stroke:#888888;stroke-width:1;" x1="80" x2="88" y1="208.5469" y2="208.5469"/><rect fill="none" height="2" style="stroke:#888888;stroke-width:1;" width="2" x="39" y="221.5156"/><line style="stroke:#888888;stroke-width:1;" x1="30" x2="30" y1="42.9219" y2="222.5156"/><line style="stroke:#888888;stroke-width:1;" x1="30" x2="38" y1="222.5156" y2="222.5156"/><line style="stroke:#888888;stroke-width:1;" x1="40" x2="40" y1="224.5156" y2="236.4844"/><line style="stroke:#888888;stroke-width:1;" x1="40" x2="48" y1="236.4844" y2="236.4844"/><line style="stroke:#888888;stroke-width:1;" x1="0" x2="0" y1="14.9844" y2="250.4531"/><line style="stroke:#888888;stroke-width:1;" x1="0" x2="18" y1="250.4531" y2="250.4531"/><line style="stroke:#888888;stroke-width:1;" x1="0" x2="0" y1="14.9844" y2="264.4219"/><line style="stroke:#888888;stroke-width:1;" x1="0" x2="18" y1="264.4219" y2="264.4219"/><line style="stroke:#888888;stroke-width:1;" x1="0" x2="0" y1="14.9844" y2="278.3906"/><line style="stroke:#888888;stroke-width:1;" x1="0" x2="18" y1="278.3906" y2="278.3906"/><line style="stroke:#888888;stroke-width:1;" x1="0" x2="0" y1="14.9844" y2="292.3594"/><line style="stroke:#888888;stroke-width:1;" x1="0" x2="18" y1="292.3594" y2="292.3594"/><!--SRC=[VL7BJW914BpFL_HHOzWeFc8u6SL742AHntrO6cYPnzepisYC_sxl0c82CNFewkgUcahDJOYQOz0cgYyvGpMZ-I8s0d99EQgJ4u30kLG1LfEhaC0tNUeQ2YQ_HWBVa-Pb2fjUY9NdPLZuOii8LJ_msmlnK17PJl4FsyF8bFVJn51O81zU6f1DHaVFWxNfmrkl67pYVwR9x9juGlPxv9YCaIHsF01lnCCs4rqKXd8ToRkiO5yWHwgdqFRv4db6fWxNbcwrhLbkfnKklCq-h57VScxGJUlFKNsZNHprkb0Y1v65iwnvshpCcXEC-lnev9REhnpatXQY3P4i7gkZntuNrjPWIa72dAJAqx7gY7buJQxQQy5BWQxJVjuISEzAOkyikgWwuzvkuUgYSKiHggIHOTnJRPnfIKvkv7vARjw2qV2XSQswsisJdeisEdNdHPS_PJRu0G00]--></g></svg>