<svg xmlns="http://www.w3.org/2000/svg" xmlns:xlink="http://www.w3.org/1999/xlink" version="1.1" data-diagram-type="SALT" style="width:266px;height:306px;background:#FFFFFF;" width="266px" height="306px" viewBox="0 0 266 306" zoomAndPan="magnify" preserveAspectRatio="none" contentStyleType="text/css"><?plantuml 1.2026.7beta3?><defs/><g><text x="6" y="17.1387" fill="#000000" font-size="12" lengthAdjust="spacing" textLength="74.8008" font-family="sans-serif">fight-service</text><text x="26" y="31.1074" fill="#000000" font-size="12" lengthAdjust="spacing" textLength="17.7832" font-family="sans-serif">src</text><text x="36" y="45.0762" fill="#000000" font-size="12" lengthAdjust="spacing" textLength="29.9824" font-family="sans-serif">main</text><text x="46" y="59.0449" fill="#000000" font-size="12" lengthAdjust="spacing" textLength="25.1426" font-family="sans-serif">java</text><text x="56" y="73.0137" fill="#000000" font-size="12" lengthAdjust="spacing" textLength="10.6758" font-family="sans-serif">io</text><text x="66" y="86.9824" fill="#000000" font-size="12" lengthAdjust="spacing" textLength="48.3164" font-family="sans-serif">quarkus</text><text x="76" y="100.9512" fill="#000000" font-size="12" lengthAdjust="spacing" textLength="57.8555" font-family="sans-serif">workshop</text><text x="86" y="114.9199" fill="#000000" font-size="12" lengthAdjust="spacing" textLength="27.4863" font-family="sans-serif">fight</text><text x="96" y="128.8887" fill="#000000" font-size="12" lengthAdjust="spacing" textLength="59.1211" font-family="sans-serif">Fight.java</text><text x="96" y="142.8574" fill="#000000" font-size="12" lengthAdjust="spacing" textLength="151.7285" font-family="sans-serif">FightMetricPublisher.java</text><text x="96" y="156.8262" fill="#000000" font-size="12" lengthAdjust="spacing" textLength="161.3848" font-family="sans-serif">FightSimulatorService.java</text><text x="96" y="170.7949" fill="#000000" font-size="12" lengthAdjust="spacing" textLength="114.9551" font-family="sans-serif">FightResource.java</text><text x="96" y="184.7637" fill="#000000" font-size="12" lengthAdjust="spacing" textLength="96.7383" font-family="sans-serif">FightResult.java</text><text x="96" y="198.7324" fill="#000000" font-size="12" lengthAdjust="spacing" textLength="57.6387" font-family="sans-serif">Hero.java</text><text x="96" y="212.7012" fill="#000000" font-size="12" lengthAdjust="spacing" textLength="65.4609" font-family="sans-serif">Villain.java</text><text x="46" y="226.6699" fill="#000000" font-size="12" lengthAdjust="spacing" textLength="58.6816" font-family="sans-serif">resources</text><text x="56" y="240.6387" fill="#000000" font-size="12" lengthAdjust="spacing" textLength="131.5078" font-family="sans-serif">application.properties</text><text x="26" y="254.6074" fill="#000000" font-size="12" lengthAdjust="spacing" textLength="60.7207" font-family="sans-serif">Dockerfile</text><text x="26" y="268.5762" fill="#000000" font-size="12" lengthAdjust="spacing" textLength="36.2109" font-family="sans-serif">mvnw</text><text x="26" y="282.5449" fill="#000000" font-size="12" lengthAdjust="spacing" textLength="65.9297" font-family="sans-serif">mvnw.cmd</text><text x="26" y="296.5137" fill="#000000" font-size="12" lengthAdjust="spacing" textLength="52.5879" font-family="sans-serif">pom.xml</text><rect x="-1" y="11.9844" width="2" height="2" fill="none" style="stroke:#888888;stroke-width:1;"/><rect x="19" y="25.9531" width="2" height="2" fill="none" style="stroke:#888888;stroke-width:1;"/><line x1="0" y1="14.9844" x2="0" y2="26.9531" style="stroke:#888888;stroke-width:1;"/><line x1="0" y1="26.9531" x2="18" y2="26.9531" style="stroke:#888888;stroke-width:1;"/><rect x="29" y="39.9219" width="2" height="2" fill="none" style="stroke:#888888;stroke-width:1;"/><line x1="20" y1="28.9531" x2="20" y2="40.9219" style="stroke:#888888;stroke-width:1;"/><line x1="20" y1="40.9219" x2="28" y2="40.9219" style="stroke:#888888;stroke-width:1;"/><rect x="39" y="53.8906" width="2" height="2" fill="none" style="stroke:#888888;stroke-width:1;"/><line x1="30" y1="42.9219" x2="30" y2="54.8906" style="stroke:#888888;stroke-width:1;"/><line x1="30" y1="54.8906" x2="38" y2="54.8906" style="stroke:#888888;stroke-width:1;"/><rect x="49" y="67.8594" width="2" height="2" fill="none" style="stroke:#888888;stroke-width:1;"/><line x1="40" y1="56.8906" x2="40" y2="68.8594" style="stroke:#888888;stroke-width:1;"/><line x1="40" y1="68.8594" x2="48" y2="68.8594" style="stroke:#888888;stroke-width:1;"/><rect x="59" y="81.8281" width="2" height="2" fill="none" style="stroke:#888888;stroke-width:1;"/><line x1="50" y1="70.8594" x2="50" y2="82.8281" style="stroke:#888888;stroke-width:1;"/><line x1="50" y1="82.8281" x2="58" y2="82.8281" style="stroke:#888888;stroke-width:1;"/><rect x="69" y="95.7969" width="2" height="2" fill="none" style="stroke:#888888;stroke-width:1;"/><line x1="60" y1="84.8281" x2="60" y2="96.7969" style="stroke:#888888;stroke-width:1;"/><line x1="60" y1="96.7969" x2="68" y2="96.7969" style="stroke:#888888;stroke-width:1;"/><rect x="79" y="109.7656" width="2" height="2" fill="none" style="stroke:#888888;stroke-width:1;"/><line x1="70" y1="98.7969" x2="70" y2="110.7656" style="stroke:#888888;stroke-width:1;"/><line x1="70" y1="110.7656" x2="78" y2="110.7656" style="stroke:#888888;stroke-width:1;"/><line x1="80" y1="112.7656" x2="80" y2="124.7344" style="stroke:#888888;stroke-width:1;"/><line x1="80" y1="124.7344" x2="88" y2="124.7344" style="stroke:#888888;stroke-width:1;"/><line x1="80" y1="112.7656" x2="80" y2="138.7031" style="stroke:#888888;stroke-width:1;"/><line x1="80" y1="138.7031" x2="88" y2="138.7031" style="stroke:#888888;stroke-width:1;"/><line x1="80" y1="112.7656" x2="80" y2="152.6719" style="stroke:#888888;stroke-width:1;"/><line x1="80" y1="152.6719" x2="88" y2="152.6719" style="stroke:#888888;stroke-width:1;"/><line x1="80" y1="112.7656" x2="80" y2="166.6406" style="stroke:#888888;stroke-width:1;"/><line x1="80" y1="166.6406" x2="88" y2="166.6406" style="stroke:#888888;stroke-width:1;"/><line x1="80" y1="112.7656" x2="80" y2="180.6094" style="stroke:#888888;stroke-width:1;"/><line x1="80" y1="180.6094" x2="88" y2="180.6094" style="stroke:#888888;stroke-width:1;"/><line x1="80" y1="112.7656" x2="80" y2="194.5781" style="stroke:#888888;stroke-width:1;"/><line x1="80" y1="194.5781" x2="88" y2="194.5781" style="stroke:#888888;stroke-width:1;"/><line x1="80" y1="112.7656" x2="80" y2="208.5469" style="stroke:#888888;stroke-width:1;"/><line x1="80" y1="208.5469" x2="88" y2="208.5469" style="stroke:#888888;stroke-width:1;"/><rect x="39" y="221.5156" width="2" height="2" fill="none" style="stroke:#888888;stroke-width:1;"/><line x1="30" y1="42.9219" x2="30" y2="222.5156" style="stroke:#888888;stroke-width:1;"/><line x1="30" y1="222.5156" x2="38" y2="222.5156" style="stroke:#888888;stroke-width:1;"/><line x1="40" y1="224.5156" x2="40" y2="236.4844" style="stroke:#888888;stroke-width:1;"/><line x1="40" y1="236.4844" x2="48" y2="236.4844" style="stroke:#888888;stroke-width:1;"/><line x1="0" y1="14.9844" x2="0" y2="250.4531" style="stroke:#888888;stroke-width:1;"/><line x1="0" y1="250.4531" x2="18" y2="250.4531" style="stroke:#888888;stroke-width:1;"/><line x1="0" y1="14.9844" x2="0" y2="264.4219" style="stroke:#888888;stroke-width:1;"/><line x1="0" y1="264.4219" x2="18" y2="264.4219" style="stroke:#888888;stroke-width:1;"/><line x1="0" y1="14.9844" x2="0" y2="278.3906" style="stroke:#888888;stroke-width:1;"/><line x1="0" y1="278.3906" x2="18" y2="278.3906" style="stroke:#888888;stroke-width:1;"/><line x1="0" y1="14.9844" x2="0" y2="292.3594" style="stroke:#888888;stroke-width:1;"/><line x1="0" y1="292.3594" x2="18" y2="292.3594" style="stroke:#888888;stroke-width:1;"/><?plantuml-src VP51IqCn383lxrVqFbPq0xtk8E9542VUioxpnTU-rBHz4yJ_RbwtvuGDwI5VlfGqfAkKGN82dvilFI_DZjxQF4ye0pbiPZDZaZYD2W6e7qdn7GQeg4ny8CMF0jALTCnLx5cwr7ASZAhwm6-kuduKzjJnZtt4BEIUoiPJQb4kNrfJA1uoo_emzELRpvYuo3_Lui-7U43XC_bAtkicJjuOEJPFqquWHayECd5let14oLIhvevTXx8ZNvSRXdu_HUl2TkJ8mNu6ttphMM6_hP_JNDl5rUB6tcumm_87?></g></svg>