<svg xmlns="http://www.w3.org/2000/svg" xmlns:xlink="http://www.w3.org/1999/xlink" contentStyleType="text/css" height="444px" preserveAspectRatio="none" style="width:276px;height:444px;background:#FFFFFF;" version="1.1" viewBox="0 0 276 444" width="276px" zoomAndPan="magnify"><defs/><g><text fill="#000000" font-family="sans-serif" font-size="12" lengthAdjust="spacing" textLength="79.0195" x="6" y="17.1387">super-heroes</text><text fill="#000000" font-family="sans-serif" font-size="12" lengthAdjust="spacing" textLength="54.8672" x="16" y="31.1074">rest-hero</text><text fill="#000000" font-family="sans-serif" font-size="12" lengthAdjust="spacing" textLength="17.7832" x="26" y="45.0762">src</text><text fill="#000000" font-family="sans-serif" font-size="12" lengthAdjust="spacing" textLength="29.9824" x="36" y="59.0449">main</text><text fill="#000000" font-family="sans-serif" font-size="12" lengthAdjust="spacing" textLength="40.8223" x="46" y="73.0137">docker</text><text fill="#000000" font-family="sans-serif" font-size="12" lengthAdjust="spacing" textLength="86.6602" x="56" y="86.9824">Dockerfile.jvm</text><text fill="#000000" font-family="sans-serif" font-size="12" lengthAdjust="spacing" textLength="102.0176" x="56" y="100.9512">Dockerfile.native</text><text fill="#000000" font-family="sans-serif" font-size="12" lengthAdjust="spacing" textLength="25.1426" x="46" y="114.9199">java</text><text fill="#000000" font-family="sans-serif" font-size="12" lengthAdjust="spacing" textLength="10.6758" x="56" y="128.8887">io</text><text fill="#000000" font-family="sans-serif" font-size="12" lengthAdjust="spacing" textLength="48.3164" x="66" y="142.8574">quarkus</text><text fill="#000000" font-family="sans-serif" font-size="12" lengthAdjust="spacing" textLength="57.8555" x="76" y="156.8262">workshop</text><text fill="#000000" font-family="sans-serif" font-size="12" lengthAdjust="spacing" textLength="74.6895" x="86" y="170.7949">superheroes</text><text fill="#000000" font-family="sans-serif" font-size="12" lengthAdjust="spacing" textLength="27.2637" x="96" y="184.7637">hero</text><text fill="#000000" font-family="sans-serif" font-size="12" lengthAdjust="spacing" textLength="113.4727" x="106" y="198.7324">HeroResource.java</text><text fill="#000000" font-family="sans-serif" font-size="12" lengthAdjust="spacing" textLength="58.6816" x="46" y="212.7012">resources</text><text fill="#000000" font-family="sans-serif" font-size="12" lengthAdjust="spacing" textLength="57.2227" x="56" y="226.6699">META-INF</text><text fill="#000000" font-family="sans-serif" font-size="12" lengthAdjust="spacing" textLength="58.6816" x="66" y="240.6387">resources</text><text fill="#000000" font-family="sans-serif" font-size="12" lengthAdjust="spacing" textLength="64.1895" x="76" y="254.6074">index.html</text><text fill="#000000" font-family="sans-serif" font-size="12" lengthAdjust="spacing" textLength="131.5078" x="56" y="268.5762">application.properties</text><text fill="#000000" font-family="sans-serif" font-size="12" lengthAdjust="spacing" textLength="23.0449" x="36" y="282.5449">test</text><text fill="#000000" font-family="sans-serif" font-size="12" lengthAdjust="spacing" textLength="25.1426" x="46" y="296.5137">java</text><text fill="#000000" font-family="sans-serif" font-size="12" lengthAdjust="spacing" textLength="10.6758" x="56" y="310.4824">io</text><text fill="#000000" font-family="sans-serif" font-size="12" lengthAdjust="spacing" textLength="48.3164" x="66" y="324.4512">quarkus</text><text fill="#000000" font-family="sans-serif" font-size="12" lengthAdjust="spacing" textLength="57.8555" x="76" y="338.4199">workshop</text><text fill="#000000" font-family="sans-serif" font-size="12" lengthAdjust="spacing" textLength="74.6895" x="86" y="352.3887">superheroes</text><text fill="#000000" font-family="sans-serif" font-size="12" lengthAdjust="spacing" textLength="27.2637" x="96" y="366.3574">hero</text><text fill="#000000" font-family="sans-serif" font-size="12" lengthAdjust="spacing" textLength="139.1426" x="106" y="380.3262">HeroResourceTest.java</text><text fill="#000000" font-family="sans-serif" font-size="12" lengthAdjust="spacing" textLength="163.1953" x="106" y="394.2949">NativeHeroResourceIT.java</text><text fill="#000000" font-family="sans-serif" font-size="12" lengthAdjust="spacing" textLength="36.2109" x="26" y="408.2637">mvnw</text><text fill="#000000" font-family="sans-serif" font-size="12" lengthAdjust="spacing" textLength="65.9297" x="26" y="422.2324">mvnw.cmd</text><text fill="#000000" font-family="sans-serif" font-size="12" lengthAdjust="spacing" textLength="52.5879" x="26" y="436.2012">pom.xml</text><rect fill="none" height="2" style="stroke:#888888;stroke-width:1.0;" width="2" x="-1" y="11.9844"/><rect fill="none" height="2" style="stroke:#888888;stroke-width:1.0;" width="2" x="9" y="25.9531"/><line style="stroke:#888888;stroke-width:1.0;" x1="0" x2="0" y1="14.9844" y2="26.9531"/><line style="stroke:#888888;stroke-width:1.0;" x1="0" x2="8" y1="26.9531" y2="26.9531"/><rect fill="none" height="2" style="stroke:#888888;stroke-width:1.0;" width="2" x="19" y="39.9219"/><line style="stroke:#888888;stroke-width:1.0;" x1="10" x2="10" y1="28.9531" y2="40.9219"/><line style="stroke:#888888;stroke-width:1.0;" x1="10" x2="18" y1="40.9219" y2="40.9219"/><rect fill="none" height="2" style="stroke:#888888;stroke-width:1.0;" width="2" x="29" y="53.8906"/><line style="stroke:#888888;stroke-width:1.0;" x1="20" x2="20" y1="42.9219" y2="54.8906"/><line style="stroke:#888888;stroke-width:1.0;" x1="20" x2="28" y1="54.8906" y2="54.8906"/><rect fill="none" height="2" style="stroke:#888888;stroke-width:1.0;" width="2" x="39" y="67.8594"/><line style="stroke:#888888;stroke-width:1.0;" x1="30" x2="30" y1="56.8906" y2="68.8594"/><line style="stroke:#888888;stroke-width:1.0;" x1="30" x2="38" y1="68.8594" y2="68.8594"/><line style="stroke:#888888;stroke-width:1.0;" x1="40" x2="40" y1="70.8594" y2="82.8281"/><line style="stroke:#888888;stroke-width:1.0;" x1="40" x2="48" y1="82.8281" y2="82.8281"/><line style="stroke:#888888;stroke-width:1.0;" x1="40" x2="40" y1="70.8594" y2="96.7969"/><line style="stroke:#888888;stroke-width:1.0;" x1="40" x2="48" y1="96.7969" y2="96.7969"/><rect fill="none" height="2" style="stroke:#888888;stroke-width:1.0;" width="2" x="39" y="109.7656"/><line style="stroke:#888888;stroke-width:1.0;" x1="30" x2="30" y1="56.8906" y2="110.7656"/><line style="stroke:#888888;stroke-width:1.0;" x1="30" x2="38" y1="110.7656" y2="110.7656"/><rect fill="none" height="2" style="stroke:#888888;stroke-width:1.0;" width="2" x="49" y="123.7344"/><line style="stroke:#888888;stroke-width:1.0;" x1="40" x2="40" y1="112.7656" y2="124.7344"/><line style="stroke:#888888;stroke-width:1.0;" x1="40" x2="48" y1="124.7344" y2="124.7344"/><rect fill="none" height="2" style="stroke:#888888;stroke-width:1.0;" width="2" x="59" y="137.7031"/><line style="stroke:#888888;stroke-width:1.0;" x1="50" x2="50" y1="126.7344" y2="138.7031"/><line style="stroke:#888888;stroke-width:1.0;" x1="50" x2="58" y1="138.7031" y2="138.7031"/><rect fill="none" height="2" style="stroke:#888888;stroke-width:1.0;" width="2" x="69" y="151.6719"/><line style="stroke:#888888;stroke-width:1.0;" x1="60" x2="60" y1="140.7031" y2="152.6719"/><line style="stroke:#888888;stroke-width:1.0;" x1="60" x2="68" y1="152.6719" y2="152.6719"/><rect fill="none" height="2" style="stroke:#888888;stroke-width:1.0;" width="2" x="79" y="165.6406"/><line style="stroke:#888888;stroke-width:1.0;" x1="70" x2="70" y1="154.6719" y2="166.6406"/><line style="stroke:#888888;stroke-width:1.0;" x1="70" x2="78" y1="166.6406" y2="166.6406"/><rect fill="none" height="2" style="stroke:#888888;stroke-width:1.0;" width="2" x="89" y="179.6094"/><line style="stroke:#888888;stroke-width:1.0;" x1="80" x2="80" y1="168.6406" y2="180.6094"/><line style="stroke:#888888;stroke-width:1.0;" x1="80" x2="88" y1="180.6094" y2="180.6094"/><line style="stroke:#888888;stroke-width:1.0;" x1="90" x2="90" y1="182.6094" y2="194.5781"/><line style="stroke:#888888;stroke-width:1.0;" x1="90" x2="98" y1="194.5781" y2="194.5781"/><rect fill="none" height="2" style="stroke:#888888;stroke-width:1.0;" width="2" x="39" y="207.5469"/><line style="stroke:#888888;stroke-width:1.0;" x1="30" x2="30" y1="56.8906" y2="208.5469"/><line style="stroke:#888888;stroke-width:1.0;" x1="30" x2="38" y1="208.5469" y2="208.5469"/><rect fill="none" height="2" style="stroke:#888888;stroke-width:1.0;" width="2" x="49" y="221.5156"/><line style="stroke:#888888;stroke-width:1.0;" x1="40" x2="40" y1="210.5469" y2="222.5156"/><line style="stroke:#888888;stroke-width:1.0;" x1="40" x2="48" y1="222.5156" y2="222.5156"/><rect fill="none" height="2" style="stroke:#888888;stroke-width:1.0;" width="2" x="59" y="235.4844"/><line style="stroke:#888888;stroke-width:1.0;" x1="50" x2="50" y1="224.5156" y2="236.4844"/><line style="stroke:#888888;stroke-width:1.0;" x1="50" x2="58" y1="236.4844" y2="236.4844"/><line style="stroke:#888888;stroke-width:1.0;" x1="60" x2="60" y1="238.4844" y2="250.4531"/><line style="stroke:#888888;stroke-width:1.0;" x1="60" x2="68" y1="250.4531" y2="250.4531"/><line style="stroke:#888888;stroke-width:1.0;" x1="40" x2="40" y1="210.5469" y2="264.4219"/><line style="stroke:#888888;stroke-width:1.0;" x1="40" x2="48" y1="264.4219" y2="264.4219"/><rect fill="none" height="2" style="stroke:#888888;stroke-width:1.0;" width="2" x="29" y="277.3906"/><line style="stroke:#888888;stroke-width:1.0;" x1="20" x2="20" y1="42.9219" y2="278.3906"/><line style="stroke:#888888;stroke-width:1.0;" x1="20" x2="28" y1="278.3906" y2="278.3906"/><rect fill="none" height="2" style="stroke:#888888;stroke-width:1.0;" width="2" x="39" y="291.3594"/><line style="stroke:#888888;stroke-width:1.0;" x1="30" x2="30" y1="280.3906" y2="292.3594"/><line style="stroke:#888888;stroke-width:1.0;" x1="30" x2="38" y1="292.3594" y2="292.3594"/><rect fill="none" height="2" style="stroke:#888888;stroke-width:1.0;" width="2" x="49" y="305.3281"/><line style="stroke:#888888;stroke-width:1.0;" x1="40" x2="40" y1="294.3594" y2="306.3281"/><line style="stroke:#888888;stroke-width:1.0;" x1="40" x2="48" y1="306.3281" y2="306.3281"/><rect fill="none" height="2" style="stroke:#888888;stroke-width:1.0;" width="2" x="59" y="319.2969"/><line style="stroke:#888888;stroke-width:1.0;" x1="50" x2="50" y1="308.3281" y2="320.2969"/><line style="stroke:#888888;stroke-width:1.0;" x1="50" x2="58" y1="320.2969" y2="320.2969"/><rect fill="none" height="2" style="stroke:#888888;stroke-width:1.0;" width="2" x="69" y="333.2656"/><line style="stroke:#888888;stroke-width:1.0;" x1="60" x2="60" y1="322.2969" y2="334.2656"/><line style="stroke:#888888;stroke-width:1.0;" x1="60" x2="68" y1="334.2656" y2="334.2656"/><rect fill="none" height="2" style="stroke:#888888;stroke-width:1.0;" width="2" x="79" y="347.2344"/><line style="stroke:#888888;stroke-width:1.0;" x1="70" x2="70" y1="336.2656" y2="348.2344"/><line style="stroke:#888888;stroke-width:1.0;" x1="70" x2="78" y1="348.2344" y2="348.2344"/><rect fill="none" height="2" style="stroke:#888888;stroke-width:1.0;" width="2" x="89" y="361.2031"/><line style="stroke:#888888;stroke-width:1.0;" x1="80" x2="80" y1="350.2344" y2="362.2031"/><line style="stroke:#888888;stroke-width:1.0;" x1="80" x2="88" y1="362.2031" y2="362.2031"/><line style="stroke:#888888;stroke-width:1.0;" x1="90" x2="90" y1="364.2031" y2="376.1719"/><line style="stroke:#888888;stroke-width:1.0;" x1="90" x2="98" y1="376.1719" y2="376.1719"/><line style="stroke:#888888;stroke-width:1.0;" x1="90" x2="90" y1="364.2031" y2="390.1406"/><line style="stroke:#888888;stroke-width:1.0;" x1="90" x2="98" y1="390.1406" y2="390.1406"/><line style="stroke:#888888;stroke-width:1.0;" x1="10" x2="10" y1="28.9531" y2="404.1094"/><line style="stroke:#888888;stroke-width:1.0;" x1="10" x2="18" y1="404.1094" y2="404.1094"/><line style="stroke:#888888;stroke-width:1.0;" x1="10" x2="10" y1="28.9531" y2="418.0781"/><line style="stroke:#888888;stroke-width:1.0;" x1="10" x2="18" y1="418.0781" y2="418.0781"/><line style="stroke:#888888;stroke-width:1.0;" x1="10" x2="10" y1="28.9531" y2="432.0469"/><line style="stroke:#888888;stroke-width:1.0;" x1="10" x2="18" y1="432.0469" y2="432.0469"/><!--SRC=[nL9DKy8m4BtdL-nHXw63o3382HLG49I1oZss2mJQfEQZw3Z-TxU1YEDuTtB8Uo-xsVVIzepbsXgUMVP1AsR65QZh6zGA3Qi1Q3JMKrOZPdH2Eu6S2raXWgbATgWz8TRtR2KoZBPb_eSgkHKb7dktlEIXHgW38lZgkDuvS-Gax9NUcOqgWb9PgOm6doVvQFKat9CmHwESJiXIcEU3USs4-TD1V5qVFGw_NVogy1vbYc_HnkPPwE95aOc4CYaP5LgH9oiE7G2Mtkv_WiOq-HGsL3pwf_zPDuf35NtIKkw_GPJagIU5ogCtYlj9guSozRyAcsLSskVf14hKXgB3HTHiD5jH-sp1BOnT1eqsDAww5wtkPGUUurkeZi_PsTri0eVHa0fZjNXnrTETip7PWBcJLkJOXQS2vRZ_40GOo59e9NEKbesNqrD1krM_4HOMgCa9BAUiZolkCaiTYKg5N7Tf-h3UOHCkruwlwMwKx5RHlVgTpXPV]--></g></svg>