<svg xmlns="http://www.w3.org/2000/svg" xmlns:xlink="http://www.w3.org/1999/xlink" contentStyleType="text/css" height="388px" preserveAspectRatio="none" style="width:242px;height:388px;background:#FFFFFF;" version="1.1" viewBox="0 0 242 388" width="242px" zoomAndPan="magnify"><defs/><g><text fill="#000000" font-family="sans-serif" font-size="12" lengthAdjust="spacing" textLength="74.5781" x="6" y="17.1387">hero-service</text><text fill="#000000" font-family="sans-serif" font-size="12" lengthAdjust="spacing" textLength="17.7832" x="26" y="31.1074">src</text><text fill="#000000" font-family="sans-serif" font-size="12" lengthAdjust="spacing" textLength="29.9824" x="36" y="45.0762">main</text><text fill="#000000" font-family="sans-serif" font-size="12" lengthAdjust="spacing" textLength="25.1426" x="46" y="59.0449">java</text><text fill="#000000" font-family="sans-serif" font-size="12" lengthAdjust="spacing" textLength="10.6758" x="56" y="73.0137">io</text><text fill="#000000" font-family="sans-serif" font-size="12" lengthAdjust="spacing" textLength="48.3164" x="66" y="86.9824">quarkus</text><text fill="#000000" font-family="sans-serif" font-size="12" lengthAdjust="spacing" textLength="57.8555" x="76" y="100.9512">workshop</text><text fill="#000000" font-family="sans-serif" font-size="12" lengthAdjust="spacing" textLength="27.2637" x="86" y="114.9199">hero</text><text fill="#000000" font-family="sans-serif" font-size="12" lengthAdjust="spacing" textLength="113.4727" x="96" y="128.8887">HeroResource.java</text><text fill="#000000" font-family="sans-serif" font-size="12" lengthAdjust="spacing" textLength="58.6816" x="46" y="142.8574">resources</text><text fill="#000000" font-family="sans-serif" font-size="12" lengthAdjust="spacing" textLength="131.5078" x="56" y="156.8262">application.properties</text><text fill="#000000" font-family="sans-serif" font-size="12" lengthAdjust="spacing" textLength="60.6387" x="56" y="170.7949">import.sql</text><text fill="#000000" font-family="sans-serif" font-size="12" lengthAdjust="spacing" textLength="23.0449" x="36" y="184.7637">test</text><text fill="#000000" font-family="sans-serif" font-size="12" lengthAdjust="spacing" textLength="25.1426" x="46" y="198.7324">java</text><text fill="#000000" font-family="sans-serif" font-size="12" lengthAdjust="spacing" textLength="10.6758" x="56" y="212.7012">io</text><text fill="#000000" font-family="sans-serif" font-size="12" lengthAdjust="spacing" textLength="48.3164" x="66" y="226.6699">quarkus</text><text fill="#000000" font-family="sans-serif" font-size="12" lengthAdjust="spacing" textLength="57.8555" x="76" y="240.6387">workshop</text><text fill="#000000" font-family="sans-serif" font-size="12" lengthAdjust="spacing" textLength="27.2637" x="86" y="254.6074">hero</text><text fill="#000000" font-family="sans-serif" font-size="12" lengthAdjust="spacing" textLength="124.3418" x="96" y="268.5762">HeroResourceIT.java</text><text fill="#000000" font-family="sans-serif" font-size="12" lengthAdjust="spacing" textLength="139.1426" x="96" y="282.5449">HeroResourceTest.java</text><text fill="#000000" font-family="sans-serif" font-size="12" lengthAdjust="spacing" textLength="60.7207" x="26" y="296.5137">Dockerfile</text><text fill="#000000" font-family="sans-serif" font-size="12" lengthAdjust="spacing" textLength="74.4258" x="26" y="310.4824">README.md</text><text fill="#000000" font-family="sans-serif" font-size="12" lengthAdjust="spacing" textLength="104.4316" x="26" y="324.4512">catalog-info.yaml</text><text fill="#000000" font-family="sans-serif" font-size="12" lengthAdjust="spacing" textLength="36.2109" x="26" y="338.4199">mvnw</text><text fill="#000000" font-family="sans-serif" font-size="12" lengthAdjust="spacing" textLength="65.9297" x="26" y="352.3887">mvnw.cmd</text><text fill="#000000" font-family="sans-serif" font-size="12" lengthAdjust="spacing" textLength="81.5449" x="26" y="366.3574">openapi.yaml</text><text fill="#000000" font-family="sans-serif" font-size="12" lengthAdjust="spacing" textLength="52.5879" x="26" y="380.3262">pom.xml</text><rect fill="none" height="2" style="stroke:#888888;stroke-width:1.0;" width="2" x="-1" y="11.9844"/><rect fill="none" height="2" style="stroke:#888888;stroke-width:1.0;" width="2" x="19" y="25.9531"/><line style="stroke:#888888;stroke-width:1.0;" x1="0" x2="0" y1="14.9844" y2="26.9531"/><line style="stroke:#888888;stroke-width:1.0;" x1="0" x2="18" y1="26.9531" y2="26.9531"/><rect fill="none" height="2" style="stroke:#888888;stroke-width:1.0;" width="2" x="29" y="39.9219"/><line style="stroke:#888888;stroke-width:1.0;" x1="20" x2="20" y1="28.9531" y2="40.9219"/><line style="stroke:#888888;stroke-width:1.0;" x1="20" x2="28" y1="40.9219" y2="40.9219"/><rect fill="none" height="2" style="stroke:#888888;stroke-width:1.0;" width="2" x="39" y="53.8906"/><line style="stroke:#888888;stroke-width:1.0;" x1="30" x2="30" y1="42.9219" y2="54.8906"/><line style="stroke:#888888;stroke-width:1.0;" x1="30" x2="38" y1="54.8906" y2="54.8906"/><rect fill="none" height="2" style="stroke:#888888;stroke-width:1.0;" width="2" x="49" y="67.8594"/><line style="stroke:#888888;stroke-width:1.0;" x1="40" x2="40" y1="56.8906" y2="68.8594"/><line style="stroke:#888888;stroke-width:1.0;" x1="40" x2="48" y1="68.8594" y2="68.8594"/><rect fill="none" height="2" style="stroke:#888888;stroke-width:1.0;" width="2" x="59" y="81.8281"/><line style="stroke:#888888;stroke-width:1.0;" x1="50" x2="50" y1="70.8594" y2="82.8281"/><line style="stroke:#888888;stroke-width:1.0;" x1="50" x2="58" y1="82.8281" y2="82.8281"/><rect fill="none" height="2" style="stroke:#888888;stroke-width:1.0;" width="2" x="69" y="95.7969"/><line style="stroke:#888888;stroke-width:1.0;" x1="60" x2="60" y1="84.8281" y2="96.7969"/><line style="stroke:#888888;stroke-width:1.0;" x1="60" x2="68" y1="96.7969" y2="96.7969"/><rect fill="none" height="2" style="stroke:#888888;stroke-width:1.0;" width="2" x="79" y="109.7656"/><line style="stroke:#888888;stroke-width:1.0;" x1="70" x2="70" y1="98.7969" y2="110.7656"/><line style="stroke:#888888;stroke-width:1.0;" x1="70" x2="78" y1="110.7656" y2="110.7656"/><line style="stroke:#888888;stroke-width:1.0;" x1="80" x2="80" y1="112.7656" y2="124.7344"/><line style="stroke:#888888;stroke-width:1.0;" x1="80" x2="88" y1="124.7344" y2="124.7344"/><rect fill="none" height="2" style="stroke:#888888;stroke-width:1.0;" width="2" x="39" y="137.7031"/><line style="stroke:#888888;stroke-width:1.0;" x1="30" x2="30" y1="42.9219" y2="138.7031"/><line style="stroke:#888888;stroke-width:1.0;" x1="30" x2="38" y1="138.7031" y2="138.7031"/><line style="stroke:#888888;stroke-width:1.0;" x1="40" x2="40" y1="140.7031" y2="152.6719"/><line style="stroke:#888888;stroke-width:1.0;" x1="40" x2="48" y1="152.6719" y2="152.6719"/><line style="stroke:#888888;stroke-width:1.0;" x1="40" x2="40" y1="140.7031" y2="166.6406"/><line style="stroke:#888888;stroke-width:1.0;" x1="40" x2="48" y1="166.6406" y2="166.6406"/><rect fill="none" height="2" style="stroke:#888888;stroke-width:1.0;" width="2" x="29" y="179.6094"/><line style="stroke:#888888;stroke-width:1.0;" x1="20" x2="20" y1="28.9531" y2="180.6094"/><line style="stroke:#888888;stroke-width:1.0;" x1="20" x2="28" y1="180.6094" y2="180.6094"/><rect fill="none" height="2" style="stroke:#888888;stroke-width:1.0;" width="2" x="39" y="193.5781"/><line style="stroke:#888888;stroke-width:1.0;" x1="30" x2="30" y1="182.6094" y2="194.5781"/><line style="stroke:#888888;stroke-width:1.0;" x1="30" x2="38" y1="194.5781" y2="194.5781"/><rect fill="none" height="2" style="stroke:#888888;stroke-width:1.0;" width="2" x="49" y="207.5469"/><line style="stroke:#888888;stroke-width:1.0;" x1="40" x2="40" y1="196.5781" y2="208.5469"/><line style="stroke:#888888;stroke-width:1.0;" x1="40" x2="48" y1="208.5469" y2="208.5469"/><rect fill="none" height="2" style="stroke:#888888;stroke-width:1.0;" width="2" x="59" y="221.5156"/><line style="stroke:#888888;stroke-width:1.0;" x1="50" x2="50" y1="210.5469" y2="222.5156"/><line style="stroke:#888888;stroke-width:1.0;" x1="50" x2="58" y1="222.5156" y2="222.5156"/><rect fill="none" height="2" style="stroke:#888888;stroke-width:1.0;" width="2" x="69" y="235.4844"/><line style="stroke:#888888;stroke-width:1.0;" x1="60" x2="60" y1="224.5156" y2="236.4844"/><line style="stroke:#888888;stroke-width:1.0;" x1="60" x2="68" y1="236.4844" y2="236.4844"/><rect fill="none" height="2" style="stroke:#888888;stroke-width:1.0;" width="2" x="79" y="249.4531"/><line style="stroke:#888888;stroke-width:1.0;" x1="70" x2="70" y1="238.4844" y2="250.4531"/><line style="stroke:#888888;stroke-width:1.0;" x1="70" x2="78" y1="250.4531" y2="250.4531"/><line style="stroke:#888888;stroke-width:1.0;" x1="80" x2="80" y1="252.4531" y2="264.4219"/><line style="stroke:#888888;stroke-width:1.0;" x1="80" x2="88" y1="264.4219" y2="264.4219"/><line style="stroke:#888888;stroke-width:1.0;" x1="80" x2="80" y1="252.4531" y2="278.3906"/><line style="stroke:#888888;stroke-width:1.0;" x1="80" x2="88" y1="278.3906" y2="278.3906"/><line style="stroke:#888888;stroke-width:1.0;" x1="0" x2="0" y1="14.9844" y2="292.3594"/><line style="stroke:#888888;stroke-width:1.0;" x1="0" x2="18" y1="292.3594" y2="292.3594"/><line style="stroke:#888888;stroke-width:1.0;" x1="0" x2="0" y1="14.9844" y2="306.3281"/><line style="stroke:#888888;stroke-width:1.0;" x1="0" x2="18" y1="306.3281" y2="306.3281"/><line style="stroke:#888888;stroke-width:1.0;" x1="0" x2="0" y1="14.9844" y2="320.2969"/><line style="stroke:#888888;stroke-width:1.0;" x1="0" x2="18" y1="320.2969" y2="320.2969"/><line style="stroke:#888888;stroke-width:1.0;" x1="0" x2="0" y1="14.9844" y2="334.2656"/><line style="stroke:#888888;stroke-width:1.0;" x1="0" x2="18" y1="334.2656" y2="334.2656"/><line style="stroke:#888888;stroke-width:1.0;" x1="0" x2="0" y1="14.9844" y2="348.2344"/><line style="stroke:#888888;stroke-width:1.0;" x1="0" x2="18" y1="348.2344" y2="348.2344"/><line style="stroke:#888888;stroke-width:1.0;" x1="0" x2="0" y1="14.9844" y2="362.2031"/><line style="stroke:#888888;stroke-width:1.0;" x1="0" x2="18" y1="362.2031" y2="362.2031"/><line style="stroke:#888888;stroke-width:1.0;" x1="0" x2="0" y1="14.9844" y2="376.1719"/><line style="stroke:#888888;stroke-width:1.0;" x1="0" x2="18" y1="376.1719" y2="376.1719"/><!--SRC=[jL5DRy8m3BtdL_W8GeqeGWFrn0RiWr5jWi8zAm4osYGuQHcQzj_d0eNBhbCEUU_PiP-TWVC2lHEPPzzq4hQLQ08diLIfPAqMWCEKRWAvKBf213z5AKwGi39dH71V2DmLxi99E1ZSkQsnjK9ILVzAYJyJdqbd2amblzO5m8lcwZx2saobmYkZkKLZ9NfrYwhS6lJSxREpMI-T_r-pBydDxX_XX0pK2J0owKxYMcMdbSx6zwDupFDLHMWYaPbDeFJQyAF8A_-Gb_fGtpmz9zB4MbXrpR4cvry4V-WCf5wT_f2zPqBxHJo5KgAZLK78E-rEb_SQS-5XBYsqUn26KTYFmXuiaY5KuIPhFBrFuUmSLifvL1z5jUeccz0CC2kqLxcCu8rSJ4QljG1ZNIeqEfVQiyaolYNSTOC7LNL4SWBBc8taMXIPfnUfMIczYQZxOz1dKw4tXTXGRQdPq51TF59i_Wi0]--></g></svg>