<?plantuml 1.2026.2beta3?><svg xmlns="http://www.w3.org/2000/svg" xmlns:xlink="http://www.w3.org/1999/xlink" contentStyleType="text/css" data-diagram-type="CLASS" height="643.75px" preserveAspectRatio="none" style="width:1209px;height:643px;background:#FFFFFF;" version="1.1" viewBox="0 0 1209 643" width="1209.375px" zoomAndPan="magnify"><defs/><g><rect fill="#FFFFCC" height="83.252" rx="7.8125" ry="7.8125" style="stroke:#FFDD88;stroke-width:9.375;" width="1175.7202" x="15.625" y="15.625"/><text fill="#000000" font-family="monospace" font-size="31.25" lengthAdjust="spacing" textLength="1110.0311" x="31.25" y="62.5">Please&#160;use&#160;'!option&#160;handwritten&#160;true'&#160;to&#160;enable&#160;handwritten</text><!--cluster hero--><g class="cluster" data-qualified-name="hero" data-source-line="43" id="ent0002"><polygon fill="#F9E79F" points="100,164.502,100.1548,164.6568,105.9448,157.9468,112.6424,152.1443,119.0444,146.0463,124.4745,138.9765,131.25,133.252,131.25,133.171,158.75,132.8077,186.25,132.8525,213.75,133.181,241.25,132.5318,268.75,133.252,270.4801,133.252,266.7804,163.8323,268.132,194.4127,270.0998,224.993,268.4819,255.5734,268.9632,286.1537,268.6502,316.7341,269.3079,347.3145,269.4973,377.8948,270.5803,408.4752,270.847,439.0555,270.8727,469.6359,269.5457,500.2162,270.1987,530.7966,268.75,561.377,269.2672,561.8942,261.9688,567.0957,256.7498,574.3767,249.7816,579.9086,244.1432,586.7701,237.5,592.627,237.5,592.1113,210,592.5556,182.5,593.3995,155,592.5762,127.5,592.7366,100,592.627,101.0582,592.627,101.3007,562.0466,99.9878,531.4662,100.8975,500.8859,98.2112,470.3055,100.8887,439.7252,101.7131,409.1448,101.3892,378.5645,101.9157,347.9841,98.4904,317.4037,97.9619,286.8234,98.0581,256.243,99.816,225.6627,99.3858,195.0823,100,164.502" style="stroke:#566573;stroke-width:3.125;"/><path d="M237.5,164.502 L237.7064,164.7084 L243.3431,157.8451 L250.1898,152.1918 L256.6425,146.1445 L261.7994,138.8013 L268.75,133.252" fill="#F9E79F" style="stroke:#566573;stroke-width:3.125;"/><path d="M100,164.502 L100,164.7939 L127.5,163.9265 L155,164.7704 L182.5,165.0571 L210,163.5111 L237.5,164.502" fill="#F9E79F" style="stroke:#566573;stroke-width:3.125;"/><path d="M237.5,164.502 L238.3758,164.502 L235.7737,195.0823 L238.3054,225.6627 L239.1653,256.243 L234.5275,286.8234 L237.1762,317.4037 L235.7229,347.9841 L235.9021,378.5645 L237.216,409.1448 L234.6193,439.7252 L239.8068,470.3055 L234.8738,500.8859 L236.676,531.4662 L239.2998,562.0466 L237.5,592.627" fill="#F9E79F" style="stroke:#566573;stroke-width:3.125;"/><text fill="#566573" font-family="Calibri" font-size="53.125" font-weight="bold" lengthAdjust="spacing" textLength="0" x="171.875" y="173.877">Hero</text></g><!--entity heroQuarkus--><g class="entity" data-qualified-name="hero.heroQuarkus" data-source-line="44" id="ent0003"><polygon fill="#FAE5D3" points="157.8125,183.252,157.8125,183.4709,168.4375,182.8204,179.0625,183.4533,189.6875,183.6683,200.3125,182.5088,210.9375,183.252,210.9065,183.1772,211.8723,183.2992,212.9943,183.7982,214.2249,184.5593,215.0813,184.4172,216.4618,185.5402,216.9946,185.7609,216.3129,186.3938,217.1867,187.6711,218.2504,189.0269,218.2098,189.9254,218.75,191.0645,218.8211,191.0645,218.7167,212.9395,218.936,234.8145,218.9991,256.6895,219.3601,278.5645,218.75,300.4395,219.3958,300.707,218.9461,301.8151,218.0798,302.7507,217.8232,303.9388,217.5952,305.1388,216.4618,305.9637,216.1743,305.2697,215.6274,307.0744,214.1339,306.5937,213.36,307.8504,211.845,307.3179,210.9375,308.252,210.9375,308.1806,200.3125,309.0245,189.6875,308.2012,179.0625,308.3616,168.4375,308.6047,157.8125,308.252,157.9784,308.6525,156.7061,307.7905,155.7173,307.6131,154.2698,306.3281,153.5064,306.6951,152.2882,305.9637,152.8158,306.1823,152.2584,305.0361,151.9629,303.9984,150.4504,302.4566,149.83,301.2843,150,300.4395,149.3527,300.4395,149.9387,278.5645,149.7953,256.6895,150.7098,234.8145,149.818,212.9395,150,191.0645,149.6699,190.9277,150.6773,190.0506,150.2735,188.5889,150.8733,187.543,152.4551,186.9037,152.2882,185.5402,152.4619,185.9595,153.6859,185.7894,154.3697,184.3152,155.73,184.4744,156.943,184.2778,157.8125,183.252" style="stroke:#181818;stroke-width:1.5625;"/><text fill="#000000" font-family="sans-serif" font-size="43.75" font-style="italic" lengthAdjust="spacing" textLength="0" x="184.375" y="214.502">&#171;application&#187;</text><text fill="#000000" font-family="sans-serif" font-size="43.75" lengthAdjust="spacing" textLength="0" x="184.375" y="245.752">Quarkus</text></g><!--entity heroPostgresql--><g class="entity" data-qualified-name="hero.heroPostgresql" data-source-line="45" id="ent0004"><path d="M153.125,450.4395 L153.125,450.4395 L153.3314,450.6459 L158.9681,443.7826 L165.8148,438.1293 L172.2675,432.082 L177.4244,424.7388 L184.375,419.1895 L184.375,419.1895 L184.2987,419.1131 L190.2061,425.0206 L196.4984,431.3128 L203.0581,437.8725 L208.696,443.5105 L215.625,450.4395 L217.1629,450.4395 L213.8742,462.3145 L215.0756,474.1895 L216.8249,486.0645 L215.3867,497.9395 L215.625,509.8145 L215.625,509.8145 L215.692,509.8815 L209.3436,516.0331 L203.3003,522.4898 L197.1099,528.7993 L191.2002,535.3897 L184.375,541.0645 L184.375,541.0645 L185.034,541.7235 L178.7921,535.4815 L172.1251,528.8145 L166.0803,522.7697 L160.0647,516.7541 L153.125,509.8145 L151.1217,509.8145 L155.0098,497.9395 L152.3014,486.0645 L154.6078,474.1895 L151.7499,462.3145 L153.125,450.4395" fill="#D5F5E3" style="stroke:#566573;stroke-width:1.5625;"/><path d="M153.125,450.4395 L153.125,450.4395 L153.3314,450.6459 L158.9681,456.2826 L165.8148,463.1293 L172.2675,469.582 L177.4244,474.7388 L184.375,481.6895 L184.375,481.6895 L184.2987,481.6131 L190.2061,475.0206 L196.4984,468.8128 L203.0581,462.8725 L208.696,456.0105 L215.625,450.4395" fill="none" style="stroke:#566573;stroke-width:1.5625;"/><text fill="#000000" font-family="sans-serif" font-size="43.75" lengthAdjust="spacing" textLength="0" x="184.375" y="494.1895">Postgresql</text></g><g class="entity" data-qualified-name="heroQuarkuslol7" data-source-line="49" id="ent0008"><polygon fill="#F1F1F1" points="50.0863,249.5526,47.796,252.6821,45.0869,257.2657,41.2125,260.3548,37.1412,262.044,33.8949,262.1906,29.7226,260.078,25.7857,258.6979,22.7976,255.8957,21.2302,252.6877,20.3007,250.1334,19.39,246.797,17.9119,243.9259,19.0478,241.1227,20.0429,238.052,23.7774,235.6234,26.4048,232.4723,29.6568,231.4259,33.5229,230.5248,38.4807,231.0601,41.1961,232.3408,44.3533,232.9213,48.192,236.8542,49.5302,241.0061,50.1116,243.8391,49.4531,248.5075" style="stroke:#181818;stroke-width:4.6875;"/></g><text fill="#000000" font-family="sans-serif" font-size="43.75" lengthAdjust="spacing" textLength="0" x="34.375" y="261.377">_REST</text><!--reverse link heroPostgresql to heroQuarkus--><g class="link" data-entity-1="ent0004" data-entity-2="ent0003" data-link-type="dependency" data-source-line="46" id="lnk6"><path d="M184.375,399.127 L184.6669,399.127 L183.7996,381.0895 L184.6435,363.052 L184.9301,345.0145 L183.3842,326.977 L184.375,308.9395" fill="none" style="stroke:#FF6655;stroke-width:6.25;stroke-dasharray:21.875,21.875;"/><polygon fill="#FF6655" points="184.375,417.877,184.5751,417.9659,186.4806,412.0767,189.559,406.7087,192.2554,401.171,193.6959,395.0751,196.875,389.752,196.8178,389.6947,194.0609,391.9378,191.5925,394.4695,189.3248,397.2018,186.3658,399.2427,184.375,402.252,184.7828,402.6597,181.4108,399.2877,179.2293,397.1063,177.1932,395.0701,174.3118,392.1888,171.875,389.752,171.94,389.7808,174.3446,395.3634,177.0449,401.0775,179.6026,406.7281,182.4325,412.4997,184.375,417.877" style="stroke:#FF6655;stroke-width:6.25;"/></g><!--link heroQuarkuslol7 to heroQuarkus--><g class="link" data-entity-1="ent0008" data-entity-2="ent0003" data-link-type="association" data-source-line="49" id="lnk9"><path d="M50.7813,245.752 L50.7813,246.0439 L70.4938,245.1765 L90.2063,246.0204 L109.9188,246.3071 L129.6313,244.7611 L149.3438,245.752" fill="none" style="stroke:#FF6655;stroke-width:6.25;"/></g><?plantuml-src ZL7BRi8m4BpxAwpqqXweU3H4I0Y9HwAUgXPwHvjuIQmOEzYEQ8lwxqq2IateeJwjPySpksEJSrc0XZrb1QUZVf-O5YaDBj32nduAf5QNwFGoaEoekRKepoqGGXstU_x1PKeSebGCwOdCjLR7fH9AKpYKG4YiD4DzHkxyyTWFHYI694-rAYMxuD4a32OHsIbfNs2FT0c2nvetm8P_8Hq4JNqjy-twCx0GWwbd-9Vboe_yiAC1AKfR2roJfzEThinHijciUZXSFAt2MmuKXU09MAvaJOlceR_gwjVXLFetUoQN6A9gMD_TD6WEiHbFSed6qA6JoU1QFH5G4Kv_fDkEuh3N8FCD5dJO9qJWpbAhgEPfPYdZ6fDw3KAQJ_MUKIkFWg5PLLG6vvYyjn9qNfgsSxdJJXIa_HdlLHcRQZG7qJxwXOYhyLWMisw_cd-x3ZVlzFwXrtCTVm00?></g></svg>