<svg xmlns="http://www.w3.org/2000/svg" xmlns:xlink="http://www.w3.org/1999/xlink" contentStyleType="text/css" data-diagram-type="CLASS" height="784.375px" preserveAspectRatio="none" style="width:1209px;height:784px;background:#FFFFFF;" version="1.1" viewBox="0 0 1209 784" width="1209.375px" zoomAndPan="magnify"><defs/><g><rect fill="#FFFFCC" height="83.252" rx="7.8125" ry="7.8125" style="stroke:#FFDD88;stroke-width:9.375;" width="1175.7202" x="15.625" y="15.625"/><text fill="#000000" font-family="monospace" font-size="31.25" lengthAdjust="spacing" textLength="1110.0311" x="31.25" y="62.5">Please&#160;use&#160;'!option&#160;handwritten&#160;true'&#160;to&#160;enable&#160;handwritten</text><!--cluster hero--><g class="cluster" data-entity="hero" data-source-line="43" data-uid="ent0002" id="cluster_hero"><polygon fill="#F9E79F" points="151.5808,164.502,151.7356,164.6568,157.5256,157.9468,164.2232,152.1443,170.6252,146.0463,176.0553,138.9765,182.8308,133.252,182.8308,133.0091,213.7147,131.9192,244.5987,132.0535,275.4826,133.039,306.3665,131.0914,337.2505,134.9821,368.1344,131.2823,399.0183,132.6339,429.9022,134.6018,460.7862,132.9839,491.6701,133.4652,522.554,133.1521,553.438,133.8098,584.3219,133.9992,615.2058,133.252,617.0361,133.252,617.3029,164.8492,617.3285,196.4464,616.0015,228.0436,616.6545,259.6408,617.4003,291.2381,612.9521,322.8353,617.3262,354.4325,614.2792,386.0297,616.874,417.627,613.6589,449.2242,614.9918,480.8214,617.5233,512.4186,615.0535,544.0158,615.5349,575.6131,616.264,607.2103,616.5065,638.8075,615.1936,670.4047,615.2058,702.002,615.4174,702.2135,608.5342,707.8303,602.9153,714.7114,596.8596,721.1557,590.5332,727.3294,583.9558,733.252,583.9558,735.1677,553.0719,731.7423,522.188,731.2139,491.304,731.3101,460.4201,733.068,429.5362,732.6378,398.6522,735.3814,367.7683,732.7061,336.8844,732.1799,306.0005,733.9653,275.1165,731.1681,244.2326,731.6297,213.3487,735.2799,182.4647,734.6134,151.5808,733.252,153.8761,733.252,150.5752,701.6547,152.5783,670.0575,153.4259,638.4603,150.1045,606.8631,151.2812,575.2658,151.9745,543.6686,153.6176,512.0714,151.5677,480.4742,153.0263,448.877,149.8502,417.2797,149.4644,385.6825,153.1546,354.0853,149.3404,322.4881,153.1713,290.8908,152.2265,259.2936,150.7436,227.6964,150.4753,196.0992,151.5808,164.502" style="stroke:#566573;stroke-width:3.125;"/><path d="M583.9558,164.502 L584.1622,164.7084 L589.7989,157.8451 L596.6456,152.1918 L603.0983,146.1445 L608.2552,138.8013 L615.2058,133.252" fill="#F9E79F" style="stroke:#566573;stroke-width:3.125;"/><path d="M151.5808,164.502 L151.5808,165.3777 L182.4647,162.7756 L213.3487,165.3073 L244.2326,166.1673 L275.1165,161.5295 L306.0005,164.1781 L336.8844,162.7249 L367.7683,162.904 L398.6522,164.218 L429.5362,161.6212 L460.4201,166.8088 L491.304,161.8758 L522.188,163.6779 L553.0719,166.3017 L583.9558,164.502" fill="#F9E79F" style="stroke:#566573;stroke-width:3.125;"/><path d="M583.9558,164.502 L584.8316,164.502 L582.2295,196.0992 L584.7612,227.6964 L585.6211,259.2936 L580.9833,290.8908 L583.632,322.4881 L582.1788,354.0853 L582.3579,385.6825 L583.6718,417.2797 L581.0751,448.877 L586.2627,480.4742 L581.3296,512.0714 L583.1318,543.6686 L585.7556,575.2658 L583.5984,606.8631 L584.2401,638.4603 L583.8227,670.0575 L584.6997,701.6547 L583.9558,733.252" fill="#F9E79F" style="stroke:#566573;stroke-width:3.125;"/><text fill="#566573" font-family="Calibri" font-size="53.125" font-weight="bold" lengthAdjust="spacing" textLength="143.1885" x="299.2991" y="223.1888">Hero</text></g><!--entity heroQuarkus--><g class="entity" data-entity="heroQuarkus" data-source-line="44" data-uid="ent0003" id="entity_heroQuarkus"><polygon fill="#FAE5D3" points="209.3933,266.6895,209.3933,267.3463,241.0287,265.3947,272.664,267.2935,304.2994,267.9385,335.9347,264.4601,367.5701,266.4466,399.2054,265.3567,430.8408,265.491,462.4761,266.4765,494.1115,264.5289,525.7468,268.4196,557.3822,266.6895,557.131,266.0829,558.4082,266.9568,559.7641,268.0204,560.6626,267.9798,561.8288,268.5857,562.9065,268.9777,562.8757,268.9649,563.5359,270.1537,564.0519,271.2827,564.8431,272.5257,565.3829,273.6646,565.1947,274.502,567.3174,274.502,565.9904,304.248,566.6434,333.9941,567.3892,363.7402,562.941,393.4863,565.1947,423.2324,565.8477,423.5029,564.4517,424.2191,564.7931,425.6549,563.3454,426.3497,563.2982,427.6245,562.9065,428.7567,563.2021,429.4704,561.7822,429.1674,560.7387,429.7733,559.7269,430.4555,558.653,430.9878,557.3822,431.0449,557.3822,431.0327,525.7468,431.9425,494.1115,429.2561,462.4761,431.9336,430.8408,432.758,399.2054,432.4341,367.5701,432.9606,335.9347,429.5353,304.2994,429.0068,272.664,429.103,241.0287,430.8609,209.3933,431.0449,209.315,430.8558,208.5601,431.243,207.114,429.9615,205.942,429.3418,205.0649,429.434,203.869,428.7567,203.2273,428.4909,202.9118,427.4449,203.5783,426.8057,202.9154,425.6158,202.7453,424.6301,201.5808,423.2324,200.5752,423.2324,202.5783,393.4863,203.4259,363.7402,200.1045,333.9941,201.2812,304.248,201.5808,274.502,201.7021,274.5522,202.6657,273.6569,202.4921,272.2906,203.3989,271.3718,202.8784,269.8618,203.869,268.9777,203.5991,268.3259,205.1746,269.0047,205.793,267.3724,207.3865,268.0946,208.3708,267.346,209.3933,266.6895" style="stroke:#181818;stroke-width:1.5625;"/><text fill="#000000" font-family="sans-serif" font-size="43.75" font-style="italic" lengthAdjust="spacing" textLength="294.8639" x="235.9558" y="338.5492">&#171;application&#187;</text><text fill="#000000" font-family="sans-serif" font-size="43.75" lengthAdjust="spacing" textLength="182.8186" x="291.9785" y="389.4769">Quarkus</text></g><!--entity heroPostgresql--><g class="entity" data-entity="heroPostgresql" data-source-line="45" data-uid="ent0004" id="entity_heroPostgresql"><path d="M237.8933,571.8457 L237.8933,571.8457 L238.0749,572.0742 L242.082,567.7819 L247.1538,564.8293 L251.8789,561.4404 L255.4638,556.6169 L260.627,553.7793 L260.6073,553.6732 L270.5218,551.3414 L280.5355,549.5447 L290.6182,548.1198 L300.4632,545.4133 L310.6411,544.502 L310.6935,545.2691 L320.5843,542.945 L330.628,542.8607 L340.6905,543.0497 L350.6443,541.6487 L360.6552,541.084 L360.6573,541.1787 L365.201,540.942 L369.754,541.1366 L374.3026,541.1231 L378.8596,541.5066 L383.3889,540.5957 L383.3889,540.5957 L383.4089,541.5275 L387.9559,541.6366 L392.49,541.1446 L397.043,541.5324 L401.5968,541.9614 L406.1226,541.084 L406.0543,540.0847 L416.1897,542.7078 L426.1002,542.0403 L436.1816,543.8744 L446.087,543.1324 L456.1367,544.502 L456.1194,544.4084 L466.3274,547.3702 L476.13,548.1463 L486.1719,550.2122 L496.2338,552.3863 L506.1508,553.7793 L506.5105,554.2319 L510.6942,557.3883 L515.4925,561.3182 L519.2964,563.9967 L524.5835,568.5416 L528.8845,571.8457 L530.4073,571.8457 L530.1193,587.6563 L530.5874,603.4668 L527.5426,619.2773 L527.0729,635.0879 L528.8845,650.8984 L528.8845,650.8984 L528.3476,650.2228 L524.2869,654.4477 L519.6212,657.9113 L515.8331,662.4792 L510.5466,665.1616 L506.1508,668.9648 L506.0639,668.4964 L496.2058,671.132 L485.9763,671.7652 L476.0109,673.8223 L466.3039,677.2729 L456.1367,678.2422 L456.178,678.8459 L446.2034,679.9435 L436.1006,679.1635 L426.1585,680.7353 L416.1813,681.7947 L406.1226,681.6602 L406.1085,681.0042 L401.573,681.6247 L397.0329,682.0304 L392.5018,682.8581 L387.9355,682.045 L383.3889,682.1484 L383.3889,682.1484 L383.4027,682.7907 L378.8257,681.2818 L374.2752,681.0127 L369.7637,682.5548 L365.1806,680.7623 L360.6552,681.6602 L360.7034,682.3654 L350.672,681.2629 L340.6242,679.9217 L330.6133,679.1192 L320.6874,679.5615 L310.6411,678.2422 L310.5653,677.8334 L300.7882,677.195 L290.4955,673.7764 L280.789,673.5189 L270.7525,671.4817 L260.627,668.9648 L260.8387,669.2312 L256.1211,665.4029 L252.1614,662.5284 L247.517,658.7922 L242.5863,654.6958 L237.8933,650.8984 L238.6383,650.8984 L237.5315,635.0879 L239.8835,619.2773 L238.3235,603.4668 L238.3727,587.6563 L237.8933,571.8457" fill="#D5F5E3" style="stroke:#566573;stroke-width:1.5625;"/><path d="M237.8933,571.8457 L237.8933,571.8457 L238.0749,572.0742 L242.082,575.0085 L247.1538,579.2824 L251.8789,583.1201 L255.4638,585.5231 L260.627,589.9121 L260.6073,589.806 L270.5218,591.1852 L280.5355,593.0993 L290.6182,595.3854 L300.4632,596.3899 L310.6411,599.1895 L310.6935,599.9566 L320.5843,598.9997 L330.628,600.2826 L340.6905,601.8388 L350.6443,601.805 L360.6552,602.6074 L360.6573,602.7022 L365.201,602.6607 L369.754,603.0506 L374.3026,603.2324 L378.8596,603.8113 L383.3889,603.0957 L383.3889,603.0957 L383.4089,604.0275 L387.9559,603.9412 L392.49,603.254 L397.043,603.4465 L401.5968,603.6802 L406.1226,602.6074 L406.0543,601.6081 L416.1897,602.864 L426.1002,600.8294 L436.1816,601.2963 L446.087,599.1871 L456.1367,599.1895 L456.1194,599.0959 L466.3274,598.3467 L476.13,595.412 L486.1719,593.7668 L496.2338,592.23 L506.1508,589.9121 L506.5105,590.3647 L510.6942,586.2946 L515.4925,582.9978 L519.2964,578.4498 L524.5835,575.7682 L528.8845,571.8457" fill="none" style="stroke:#566573;stroke-width:1.5625;"/><text fill="#000000" font-family="sans-serif" font-size="43.75" lengthAdjust="spacing" textLength="228.4912" x="269.1433" y="656.2054">Postgresql</text></g><g class="entity" data-entity="heroQuarkuslol7" data-source-line="49" data-uid="ent0008" id="entity_heroQuarkuslol7"><polygon fill="#F1F1F1" points="101.6671,352.6776,99.3768,355.8071,96.6678,360.3907,92.7933,363.4798,88.722,365.169,85.4757,365.3156,81.3034,363.203,77.3666,361.8229,74.3784,359.0207,72.811,355.8127,71.8815,353.2584,70.9708,349.922,69.4927,347.0509,70.6286,344.2477,71.6237,341.177,75.3582,338.7484,77.9856,335.5973,81.2376,334.5509,85.1037,333.6498,90.0615,334.1851,92.7769,335.4658,95.9341,336.0463,99.7728,339.9792,101.111,344.1311,101.6924,346.9641,101.0339,351.6325" style="stroke:#181818;stroke-width:4.6875;"/></g><text fill="#000000" font-family="sans-serif" font-size="43.75" lengthAdjust="spacing" textLength="134.4116" x="18.75" y="405.1117">_REST</text><!--reverse link heroPostgresql to heroQuarkus--><g class="link" data-entity-1="heroPostgresql" data-entity-2="heroQuarkus" data-source-line="46" data-uid="lnk6" id="link_heroPostgresql_heroQuarkus"><path d="M383.3933,520.8457 L383.6852,520.8457 L382.8179,503.1395 L383.6618,485.4332 L383.9484,467.727 L382.4025,450.0207 L383.3933,432.3145" fill="none" style="stroke:#FF6655;stroke-width:6.25;stroke-dasharray:21.875,21.875;"/><polygon fill="#FF6655" points="383.3933,539.5957,383.5934,539.6846,385.4989,533.7954,388.5773,528.4275,391.2738,522.8898,392.7142,516.7939,395.8933,511.4707,395.8361,511.4135,393.0792,513.6566,390.6108,516.1882,388.3431,518.9205,385.3841,520.9615,383.3933,523.9707,383.8011,524.3785,380.4291,521.0065,378.2476,518.825,376.2115,516.7889,373.3301,513.9075,370.8933,511.4707,370.9583,511.4996,373.3629,517.0822,376.0632,522.7962,378.6209,528.4469,381.4508,534.2185,383.3933,539.5957" style="stroke:#FF6655;stroke-width:6.25;"/></g><!--link heroQuarkuslol7 to heroQuarkus--><g class="link" data-entity-1="heroQuarkuslol7" data-entity-2="heroQuarkus" data-source-line="49" data-uid="lnk9" id="link_heroQuarkuslol7_heroQuarkus"><path d="M103.1121,348.877 L103.1121,349.1689 L122.5558,348.3015 L141.9996,349.1454 L161.4433,349.4321 L180.8871,347.8861 L200.3308,348.877" fill="none" style="stroke:#FF6655;stroke-width:6.25;"/></g><!--SRC=[ZL7BRi8m4BpxAwpqqXweU3H4I0Y9HwAUgXPwHvjuIQmOEzYEQ8lwxqq2IateeJwjPySpksEJSrc0XZrb1QUZVf-O5YaDBj32nduAf5QNwFGoaEoekRKepoqGGXstU_x1PKeSebGCwOdCjLR7fH9AKpYKG4YiD4DzHkxyyTWFHYI694-rAYMxuD4a32OHsIbfNs2FT0c2nvetm8P_8Hq4JNqjy-twCx0GWwbd-9Vboe_yiAC1AKfR2roJfzEThinHijciUZXSFAt2MmuKXU09MAvaJOlceR_gwjVXLFetUoQN6A9gMD_TD6WEiHbFSed6qA6JoU1QFH5G4Kv_fDkEuh3N8FCD5dJO9qJWpbAhgEPfPYdZ6fDw3KAQJ_MUKIkFWg5PLLG6vvYyjn9qNfgsSxdJJXIa_HdlLHcRQZG7qJxwXOYhyLWMisw_cd-x3ZVlzFwXrtCTVm00]--></g></svg>