<?plantuml 1.2026.3beta3?><svg xmlns="http://www.w3.org/2000/svg" xmlns:xlink="http://www.w3.org/1999/xlink" contentStyleType="text/css" data-diagram-type="CLASS" height="762.5px" preserveAspectRatio="none" style="width:1209px;height:762px;background:#FFFFFF;" version="1.1" viewBox="0 0 1209 762" width="1209.375px" zoomAndPan="magnify"><defs/><g><polygon fill="#FFFFCC" points="17.1875,9.375,17.1875,10.0318,48.1191,8.0802,79.0508,9.979,109.9824,10.624,140.914,7.1456,171.8456,9.1321,202.7773,8.0422,233.7089,8.1766,264.6405,9.162,295.5721,7.2145,326.5038,11.1051,357.4354,7.4054,388.367,8.757,419.2987,10.7248,450.2303,9.1069,481.1619,9.5882,512.0935,9.2752,543.0252,9.9329,573.9568,10.1223,604.8884,11.2053,635.82,11.472,666.7517,11.4977,697.6833,10.1707,728.6149,10.8237,759.5466,11.5695,790.4782,7.1213,821.4098,11.4953,852.3414,8.4484,883.2731,11.0432,914.2047,7.8281,945.1363,9.1609,976.068,11.6925,1006.9996,9.2227,1037.9312,9.7041,1068.8628,10.4332,1099.7945,10.6757,1130.7261,9.3628,1161.6577,9.375,1161.7722,9.6514,1162.5344,9.2818,1163.9808,10.564,1165.1908,11.2755,1166.2543,11.6334,1167.182,11.6632,1167.7719,11.9076,1167.1747,12.5755,1167.4696,13.613,1167.9569,14.7301,1168.9559,16.0592,1169.4702,17.1875,1169.2655,17.1875,1170.18,24.4629,1169.2883,31.7383,1169.1129,39.0137,1169.708,46.2891,1169.4702,53.5645,1168.8285,53.2986,1168.513,54.4624,1169.1795,56.0329,1168.5166,57.0527,1168.3465,58.2767,1167.182,59.0887,1167.0537,58.779,1166.2044,59.8536,1165.2076,60.5722,1163.6791,60.007,1162.7244,60.8271,1161.6577,61.377,1161.6577,61.7707,1130.7261,63.4137,1099.7945,61.3639,1068.8628,62.8225,1037.9312,59.6464,1006.9996,59.2605,976.068,62.9507,945.1363,59.1365,914.2047,62.9675,883.2731,62.0227,852.3414,60.5397,821.4098,60.2714,790.4782,62.8106,759.5466,60.4415,728.6149,63.2265,697.6833,59.6496,666.7517,63.3064,635.82,62.8904,604.8884,62.1425,573.9568,61.5245,543.0252,63.6476,512.0935,63.2944,481.1619,61.9059,450.2303,62.215,419.2987,60.9699,388.367,63.6159,357.4354,61.8609,326.5038,61.9162,295.5721,59.4759,264.6405,60.1106,233.7089,63.0355,202.7773,62.72,171.8456,61.2428,140.914,60.3702,109.9824,60.6928,79.0508,59.2327,48.1191,62.673,17.1875,61.377,17.4823,62.0887,16.2925,61.4259,15.2548,61.1304,13.8184,59.8724,12.8029,59.6303,11.6632,59.0887,11.2902,58.9342,11.4789,58.0971,10.9854,56.9774,10.8219,55.9944,9.6116,54.5778,9.375,53.5645,9.235,53.5645,9.8369,46.2891,9.966,39.0137,8.8411,31.7383,9.173,24.4629,9.375,17.1875,9.5186,17.247,9.2448,15.8391,10.6304,15.1187,10.9962,13.9758,11.1086,12.7279,11.6632,11.6632,11.7199,11.8001,13.0586,11.9068,13.7482,10.4468,15.1034,10.5934,16.1965,10.1075,17.1875,9.375" style="stroke:#FFDD88;stroke-width:9.375;"/><text fill="#000000" font-family="monospace" font-size="31.25" lengthAdjust="spacing" textLength="1110.0311" x="31.25" y="42.627">Please&#160;use&#160;'!option&#160;handwritten&#160;true'&#160;to&#160;enable&#160;handwritten</text><!--cluster hero--><g class="cluster" data-qualified-name="hero" data-source-line="43" id="ent0002"><polygon fill="#F9E79F" points="151.5808,117.627,151.7356,117.7818,157.5256,111.0718,164.2232,105.2693,170.6252,99.1713,176.0553,92.1015,182.8308,86.377,182.8308,86.1341,213.7147,85.0442,244.5987,85.1785,275.4826,86.164,306.3665,84.2164,337.2505,88.1071,368.1344,84.4073,399.0183,85.7589,429.9022,87.7268,460.7862,86.1089,491.6701,86.5902,522.554,86.2771,553.438,86.9348,584.3219,87.1242,615.2058,86.377,617.0361,86.377,617.3029,117.9742,617.3285,149.5714,616.0015,181.1686,616.6545,212.7658,617.4003,244.3631,612.9521,275.9603,617.3262,307.5575,614.2792,339.1547,616.874,370.752,613.6589,402.3492,614.9918,433.9464,617.5233,465.5436,615.0535,497.1408,615.5349,528.7381,616.264,560.3353,616.5065,591.9325,615.1936,623.5297,615.2058,655.127,615.4174,655.3385,608.5342,660.9553,602.9153,667.8364,596.8596,674.2807,590.5332,680.4544,583.9558,686.377,583.9558,688.2927,553.0719,684.8673,522.188,684.3389,491.304,684.4351,460.4201,686.193,429.5362,685.7628,398.6522,688.5064,367.7683,685.8311,336.8844,685.3049,306.0005,687.0903,275.1165,684.2931,244.2326,684.7547,213.3487,688.4049,182.4647,687.7384,151.5808,686.377,153.8761,686.377,150.5752,654.7797,152.5783,623.1825,153.4259,591.5853,150.1045,559.9881,151.2812,528.3908,151.9745,496.7936,153.6176,465.1964,151.5677,433.5992,153.0263,402.002,149.8502,370.4047,149.4644,338.8075,153.1546,307.2103,149.3404,275.6131,153.1713,244.0158,152.2265,212.4186,150.7436,180.8214,150.4753,149.2242,151.5808,117.627" style="stroke:#566573;stroke-width:3.125;"/><path d="M583.9558,117.627 L584.1622,117.8334 L589.7989,110.9701 L596.6456,105.3168 L603.0983,99.2695 L608.2552,91.9263 L615.2058,86.377" fill="#F9E79F" style="stroke:#566573;stroke-width:3.125;"/><path d="M151.5808,117.627 L151.5808,118.5027 L182.4647,115.9006 L213.3487,118.4323 L244.2326,119.2923 L275.1165,114.6545 L306.0005,117.3031 L336.8844,115.8499 L367.7683,116.029 L398.6522,117.343 L429.5362,114.7462 L460.4201,119.9338 L491.304,115.0008 L522.188,116.8029 L553.0719,119.4267 L583.9558,117.627" fill="#F9E79F" style="stroke:#566573;stroke-width:3.125;"/><path d="M583.9558,117.627 L584.8316,117.627 L582.2295,149.2242 L584.7612,180.8214 L585.6211,212.4186 L580.9833,244.0158 L583.632,275.6131 L582.1788,307.2103 L582.3579,338.8075 L583.6718,370.4047 L581.0751,402.002 L586.2627,433.5992 L581.3296,465.1964 L583.1318,496.7936 L585.7556,528.3908 L583.5984,559.9881 L584.2401,591.5853 L583.8227,623.1825 L584.6997,654.7797 L583.9558,686.377" fill="#F9E79F" style="stroke:#566573;stroke-width:3.125;"/><text fill="#566573" font-family="Calibri" font-size="53.125" font-weight="bold" lengthAdjust="spacing" textLength="143.1885" x="299.2991" y="176.3138">Hero</text></g><!--entity heroQuarkus--><g class="entity" data-qualified-name="hero.heroQuarkus" data-source-line="44" id="ent0003"><polygon fill="#FAE5D3" points="209.3933,219.8145,209.3933,220.4713,241.0287,218.5197,272.664,220.4185,304.2994,221.0635,335.9347,217.5851,367.5701,219.5716,399.2054,218.4817,430.8408,218.616,462.4761,219.6015,494.1115,217.6539,525.7468,221.5446,557.3822,219.8145,557.131,219.2079,558.4082,220.0818,559.7641,221.1454,560.6626,221.1048,561.8288,221.7107,562.9065,222.1027,562.8757,222.0899,563.5359,223.2787,564.0519,224.4077,564.8431,225.6507,565.3829,226.7896,565.1947,227.627,567.3174,227.627,565.9904,257.373,566.6434,287.1191,567.3892,316.8652,562.941,346.6113,565.1947,376.3574,565.8477,376.6279,564.4517,377.3441,564.7931,378.7799,563.3454,379.4747,563.2982,380.7495,562.9065,381.8817,563.2021,382.5954,561.7822,382.2924,560.7387,382.8983,559.7269,383.5805,558.653,384.1128,557.3822,384.1699,557.3822,384.1577,525.7468,385.0675,494.1115,382.3811,462.4761,385.0586,430.8408,385.883,399.2054,385.5591,367.5701,386.0856,335.9347,382.6603,304.2994,382.1318,272.664,382.228,241.0287,383.9859,209.3933,384.1699,209.315,383.9808,208.5601,384.368,207.114,383.0865,205.942,382.4668,205.0649,382.559,203.869,381.8817,203.2273,381.6159,202.9118,380.5699,203.5783,379.9307,202.9154,378.7408,202.7453,377.7551,201.5808,376.3574,200.5752,376.3574,202.5783,346.6113,203.4259,316.8652,200.1045,287.1191,201.2812,257.373,201.5808,227.627,201.7021,227.6772,202.6657,226.7819,202.4921,225.4156,203.3989,224.4968,202.8784,222.9868,203.869,222.1027,203.5991,221.4509,205.1746,222.1297,205.793,220.4974,207.3865,221.2196,208.3708,220.471,209.3933,219.8145" style="stroke:#181818;stroke-width:1.5625;"/><text fill="#000000" font-family="sans-serif" font-size="43.75" font-style="italic" lengthAdjust="spacing" textLength="294.8639" x="235.9558" y="291.6742">&#171;application&#187;</text><text fill="#000000" font-family="sans-serif" font-size="43.75" lengthAdjust="spacing" textLength="182.8186" x="291.9785" y="342.6019">Quarkus</text></g><!--entity heroPostgresql--><g class="entity" data-qualified-name="hero.heroPostgresql" data-source-line="45" id="ent0004"><path d="M237.8933,524.9707 L237.8933,524.9707 L238.0749,525.1992 L242.082,520.9069 L247.1538,517.9543 L251.8789,514.5654 L255.4638,509.7419 L260.627,506.9043 L260.6073,506.7982 L270.5218,504.4664 L280.5355,502.6697 L290.6182,501.2448 L300.4632,498.5383 L310.6411,497.627 L310.6935,498.3941 L320.5843,496.07 L330.628,495.9857 L340.6905,496.1747 L350.6443,494.7737 L360.6552,494.209 L360.6573,494.3037 L365.201,494.067 L369.754,494.2616 L374.3026,494.2481 L378.8596,494.6316 L383.3889,493.7207 L383.3889,493.7207 L383.4089,494.6525 L387.9559,494.7616 L392.49,494.2696 L397.043,494.6574 L401.5968,495.0864 L406.1226,494.209 L406.0543,493.2097 L416.1897,495.8328 L426.1002,495.1653 L436.1816,496.9994 L446.087,496.2574 L456.1367,497.627 L456.1194,497.5334 L466.3274,500.4952 L476.13,501.2713 L486.1719,503.3372 L496.2338,505.5113 L506.1508,506.9043 L506.5105,507.3569 L510.6942,510.5133 L515.4925,514.4432 L519.2964,517.1217 L524.5835,521.6666 L528.8845,524.9707 L530.4073,524.9707 L530.1193,540.7813 L530.5874,556.5918 L527.5426,572.4023 L527.0729,588.2129 L528.8845,604.0234 L528.8845,604.0234 L528.3476,603.3478 L524.2869,607.5727 L519.6212,611.0363 L515.8331,615.6042 L510.5466,618.2866 L506.1508,622.0898 L506.0639,621.6214 L496.2058,624.257 L485.9763,624.8902 L476.0109,626.9473 L466.3039,630.3979 L456.1367,631.3672 L456.178,631.9709 L446.2034,633.0685 L436.1006,632.2885 L426.1585,633.8603 L416.1813,634.9197 L406.1226,634.7852 L406.1085,634.1292 L401.573,634.7497 L397.0329,635.1554 L392.5018,635.9831 L387.9355,635.17 L383.3889,635.2734 L383.3889,635.2734 L383.4027,635.9157 L378.8257,634.4068 L374.2752,634.1377 L369.7637,635.6798 L365.1806,633.8873 L360.6552,634.7852 L360.7034,635.4904 L350.672,634.3879 L340.6242,633.0467 L330.6133,632.2442 L320.6874,632.6865 L310.6411,631.3672 L310.5653,630.9584 L300.7882,630.32 L290.4955,626.9014 L280.789,626.6439 L270.7525,624.6067 L260.627,622.0898 L260.8387,622.3562 L256.1211,618.5279 L252.1614,615.6534 L247.517,611.9172 L242.5863,607.8208 L237.8933,604.0234 L238.6383,604.0234 L237.5315,588.2129 L239.8835,572.4023 L238.3235,556.5918 L238.3727,540.7813 L237.8933,524.9707" fill="#D5F5E3" style="stroke:#566573;stroke-width:1.5625;"/><path d="M237.8933,524.9707 L237.8933,524.9707 L238.0749,525.1992 L242.082,528.1335 L247.1538,532.4074 L251.8789,536.2451 L255.4638,538.6481 L260.627,543.0371 L260.6073,542.931 L270.5218,544.3102 L280.5355,546.2243 L290.6182,548.5104 L300.4632,549.5149 L310.6411,552.3145 L310.6935,553.0816 L320.5843,552.1247 L330.628,553.4076 L340.6905,554.9638 L350.6443,554.93 L360.6552,555.7324 L360.6573,555.8272 L365.201,555.7857 L369.754,556.1756 L374.3026,556.3574 L378.8596,556.9363 L383.3889,556.2207 L383.3889,556.2207 L383.4089,557.1525 L387.9559,557.0662 L392.49,556.379 L397.043,556.5715 L401.5968,556.8052 L406.1226,555.7324 L406.0543,554.7331 L416.1897,555.989 L426.1002,553.9544 L436.1816,554.4213 L446.087,552.3121 L456.1367,552.3145 L456.1194,552.2209 L466.3274,551.4717 L476.13,548.537 L486.1719,546.8918 L496.2338,545.355 L506.1508,543.0371 L506.5105,543.4897 L510.6942,539.4196 L515.4925,536.1228 L519.2964,531.5748 L524.5835,528.8932 L528.8845,524.9707" fill="none" style="stroke:#566573;stroke-width:1.5625;"/><text fill="#000000" font-family="sans-serif" font-size="43.75" lengthAdjust="spacing" textLength="228.4912" x="269.1433" y="609.3304">Postgresql</text></g><g class="entity" data-qualified-name="heroQuarkuslol7" data-source-line="49" id="ent0008"><polygon fill="#F1F1F1" points="101.6671,305.8026,99.3768,308.9321,96.6678,313.5157,92.7933,316.6048,88.722,318.294,85.4757,318.4406,81.3034,316.328,77.3666,314.9479,74.3784,312.1457,72.811,308.9377,71.8815,306.3834,70.9708,303.047,69.4927,300.1759,70.6286,297.3727,71.6237,294.302,75.3582,291.8734,77.9856,288.7223,81.2376,287.6759,85.1037,286.7748,90.0615,287.3101,92.7769,288.5908,95.9341,289.1713,99.7728,293.1042,101.111,297.2561,101.6924,300.0891,101.0339,304.7575" style="stroke:#181818;stroke-width:4.6875;"/></g><text fill="#000000" font-family="sans-serif" font-size="43.75" lengthAdjust="spacing" textLength="134.4116" x="18.75" y="358.2367">_REST</text><!--reverse link heroPostgresql to heroQuarkus--><g class="link" data-entity-1="ent0004" data-entity-2="ent0003" data-link-type="dependency" data-source-line="46" id="lnk6"><path d="M383.3933,473.9707 L383.6852,473.9707 L382.8179,456.2645 L383.6618,438.5582 L383.9484,420.852 L382.4025,403.1457 L383.3933,385.4395" fill="none" style="stroke:#FF6655;stroke-width:6.25;stroke-dasharray:21.875,21.875;"/><polygon fill="#FF6655" points="383.3933,492.7207,383.5934,492.8096,385.4989,486.9204,388.5773,481.5525,391.2738,476.0148,392.7142,469.9189,395.8933,464.5957,395.8361,464.5385,393.0792,466.7816,390.6108,469.3132,388.3431,472.0455,385.3841,474.0865,383.3933,477.0957,383.8011,477.5035,380.4291,474.1315,378.2476,471.95,376.2115,469.9139,373.3301,467.0325,370.8933,464.5957,370.9583,464.6246,373.3629,470.2072,376.0632,475.9212,378.6209,481.5719,381.4508,487.3435,383.3933,492.7207" style="stroke:#FF6655;stroke-width:6.25;"/></g><!--link heroQuarkuslol7 to heroQuarkus--><g class="link" data-entity-1="ent0008" data-entity-2="ent0003" data-link-type="association" data-source-line="49" id="lnk9"><path d="M103.1121,302.002 L103.1121,302.2939 L122.5558,301.4265 L141.9996,302.2704 L161.4433,302.5571 L180.8871,301.0111 L200.3308,302.002" fill="none" style="stroke:#FF6655;stroke-width:6.25;"/></g><?plantuml-src ZL7BRi8m4BpxAwpqqXweU3H4I0Y9HwAUgXPwHvjuIQmOEzYEQ8lwxqq2IateeJwjPySpksEJSrc0XZrb1QUZVf-O5YaDBj32nduAf5QNwFGoaEoekRKepoqGGXstU_x1PKeSebGCwOdCjLR7fH9AKpYKG4YiD4DzHkxyyTWFHYI694-rAYMxuD4a32OHsIbfNs2FT0c2nvetm8P_8Hq4JNqjy-twCx0GWwbd-9Vboe_yiAC1AKfR2roJfzEThinHijciUZXSFAt2MmuKXU09MAvaJOlceR_gwjVXLFetUoQN6A9gMD_TD6WEiHbFSed6qA6JoU1QFH5G4Kv_fDkEuh3N8FCD5dJO9qJWpbAhgEPfPYdZ6fDw3KAQJ_MUKIkFWg5PLLG6vvYyjn9qNfgsSxdJJXIa_HdlLHcRQZG7qJxwXOYhyLWMisw_cd-x3ZVlzFwXrtCTVm00?></g></svg>