<svg xmlns="http://www.w3.org/2000/svg" xmlns:xlink="http://www.w3.org/1999/xlink" version="1.1" data-diagram-type="CLASS" style="width:1209px;height:762px;background:#FFFFFF;" width="1209.375px" height="762.5px" viewBox="0 0 1209 762" zoomAndPan="magnify" preserveAspectRatio="none" contentStyleType="text/css"><?plantuml 1.2026.7beta5?><defs/><g font-family="sans-serif" lengthAdjust="spacing"><polygon points="17.188,9.375,17.188,10.032,48.119,8.08,79.051,9.979,109.982,10.624,140.914,7.146,171.846,9.132,202.777,8.042,233.709,8.177,264.641,9.162,295.572,7.214,326.504,11.105,357.435,7.405,388.367,8.757,419.299,10.725,450.23,9.107,481.162,9.588,512.094,9.275,543.025,9.933,573.957,10.122,604.888,11.205,635.82,11.472,666.752,11.498,697.683,10.171,728.615,10.824,759.547,11.569,790.478,7.121,821.41,11.495,852.341,8.448,883.273,11.043,914.205,7.828,945.136,9.161,976.068,11.693,1007,9.223,1037.931,9.704,1068.863,10.433,1099.794,10.676,1130.726,9.363,1161.658,9.375,1161.772,9.651,1162.534,9.282,1163.981,10.564,1165.191,11.276,1166.254,11.633,1167.182,11.663,1167.772,11.908,1167.175,12.576,1167.47,13.613,1167.957,14.73,1168.956,16.059,1169.47,17.188,1169.265,17.188,1170.18,24.463,1169.288,31.738,1169.113,39.014,1169.708,46.289,1169.47,53.564,1168.828,53.299,1168.513,54.462,1169.179,56.033,1168.517,57.053,1168.346,58.277,1167.182,59.089,1167.054,58.779,1166.204,59.854,1165.208,60.572,1163.679,60.007,1162.724,60.827,1161.658,61.377,1161.658,61.771,1130.726,63.414,1099.794,61.364,1068.863,62.822,1037.931,59.646,1007,59.261,976.068,62.951,945.136,59.137,914.205,62.967,883.273,62.023,852.341,60.54,821.41,60.271,790.478,62.811,759.547,60.442,728.615,63.227,697.683,59.65,666.752,63.306,635.82,62.89,604.888,62.142,573.957,61.525,543.025,63.648,512.094,63.294,481.162,61.906,450.23,62.215,419.299,60.97,388.367,63.616,357.435,61.861,326.504,61.916,295.572,59.476,264.641,60.111,233.709,63.036,202.777,62.72,171.846,61.243,140.914,60.37,109.982,60.693,79.051,59.233,48.119,62.673,17.188,61.377,17.482,62.089,16.292,61.426,15.255,61.13,13.818,59.872,12.803,59.63,11.663,59.089,11.29,58.934,11.479,58.097,10.985,56.977,10.822,55.994,9.612,54.578,9.375,53.564,9.235,53.564,9.837,46.289,9.966,39.014,8.841,31.738,9.173,24.463,9.375,17.188,9.519,17.247,9.245,15.839,10.63,15.119,10.996,13.976,11.109,12.728,11.663,11.663,11.72,11.8,13.059,11.907,13.748,10.447,15.103,10.593,16.197,10.108,17.188,9.375" fill="#FFC" style="stroke:#FD8;stroke-width:9.375;stroke-linejoin:miter;stroke-miterlimit:10;"/><text x="31.25" y="42.627" fill="#000" font-size="31.25" textLength="1110.031" font-family="monospace">Please use '!option handwritten true' to enable handwritten</text><!--cluster hero--><g class="cluster" data-qualified-name="hero" id="ent0001" data-source-line="43"><polygon points="151.581,117.627,151.736,117.782,157.526,111.072,164.223,105.269,170.625,99.171,176.055,92.101,182.831,86.377,182.831,86.134,213.715,85.044,244.599,85.179,275.483,86.164,306.367,84.216,337.25,88.107,368.134,84.407,399.018,85.759,429.902,87.727,460.786,86.109,491.67,86.59,522.554,86.277,553.438,86.935,584.322,87.124,615.206,86.377,617.036,86.377,617.303,117.974,617.328,149.571,616.002,181.169,616.655,212.766,617.4,244.363,612.952,275.96,617.326,307.558,614.279,339.155,616.874,370.752,613.659,402.349,614.992,433.946,617.523,465.544,615.054,497.141,615.535,528.738,616.264,560.335,616.507,591.933,615.194,623.53,615.206,655.127,615.417,655.339,608.534,660.955,602.915,667.836,596.86,674.281,590.533,680.454,583.956,686.377,583.956,688.293,553.072,684.867,522.188,684.339,491.304,684.435,460.42,686.193,429.536,685.763,398.652,688.506,367.768,685.831,336.884,685.305,306,687.09,275.117,684.293,244.233,684.755,213.349,688.405,182.465,687.738,151.581,686.377,153.876,686.377,150.575,654.78,152.578,623.183,153.426,591.585,150.105,559.988,151.281,528.391,151.975,496.794,153.618,465.196,151.568,433.599,153.026,402.002,149.85,370.405,149.464,338.808,153.155,307.21,149.34,275.613,153.171,244.016,152.227,212.419,150.744,180.821,150.475,149.224,151.581,117.627" fill="#F9E79F" style="stroke:#566573;stroke-width:3.125;stroke-linejoin:miter;stroke-miterlimit:10;"/><path d="M583.956,117.627 L584.162,117.833 L589.799,110.97 L596.646,105.317 L603.098,99.269 L608.255,91.926 L615.206,86.377" style="stroke:#566573;stroke-width:3.125;" fill="#F9E79F"/><path d="M151.581,117.627 L151.581,118.503 L182.465,115.901 L213.349,118.432 L244.233,119.292 L275.117,114.654 L306,117.303 L336.884,115.85 L367.768,116.029 L398.652,117.343 L429.536,114.746 L460.42,119.934 L491.304,115.001 L522.188,116.803 L553.072,119.427 L583.956,117.627" style="stroke:#566573;stroke-width:3.125;" fill="#F9E79F"/><path d="M583.956,117.627 L584.832,117.627 L582.229,149.224 L584.761,180.821 L585.621,212.419 L580.983,244.016 L583.632,275.613 L582.179,307.21 L582.358,338.808 L583.672,370.405 L581.075,402.002 L586.263,433.599 L581.33,465.196 L583.132,496.794 L585.756,528.391 L583.598,559.988 L584.24,591.585 L583.823,623.183 L584.7,654.78 L583.956,686.377" style="stroke:#566573;stroke-width:3.125;" fill="#F9E79F"/><text x="299.299" y="176.314" fill="#566573" font-size="53.125" textLength="143.188" font-weight="700" font-family="Calibri">Hero</text></g><!--entity heroQuarkus--><g class="entity" data-qualified-name="hero.heroQuarkus" id="ent0002" data-source-line="44"><polygon points="209.393,219.814,209.393,220.471,241.029,218.52,272.664,220.418,304.299,221.063,335.935,217.585,367.57,219.572,399.205,218.482,430.841,218.616,462.476,219.601,494.111,217.654,525.747,221.545,557.382,219.814,557.131,219.208,558.408,220.082,559.764,221.145,560.663,221.105,561.829,221.711,562.906,222.103,562.876,222.09,563.536,223.279,564.052,224.408,564.843,225.651,565.383,226.79,565.195,227.627,567.317,227.627,565.99,257.373,566.643,287.119,567.389,316.865,562.941,346.611,565.195,376.357,565.848,376.628,564.452,377.344,564.793,378.78,563.345,379.475,563.298,380.75,562.906,381.882,563.202,382.595,561.782,382.292,560.739,382.898,559.727,383.581,558.653,384.113,557.382,384.17,557.382,384.158,525.747,385.067,494.111,382.381,462.476,385.059,430.841,385.883,399.205,385.559,367.57,386.086,335.935,382.66,304.299,382.132,272.664,382.228,241.029,383.986,209.393,384.17,209.315,383.981,208.56,384.368,207.114,383.087,205.942,382.467,205.065,382.559,203.869,381.882,203.227,381.616,202.912,380.57,203.578,379.931,202.915,378.741,202.745,377.755,201.581,376.357,200.575,376.357,202.578,346.611,203.426,316.865,200.105,287.119,201.281,257.373,201.581,227.627,201.702,227.677,202.666,226.782,202.492,225.416,203.399,224.497,202.878,222.987,203.869,222.103,203.599,221.451,205.175,222.13,205.793,220.497,207.386,221.22,208.371,220.471,209.393,219.814" fill="#FAE5D3" style="stroke:#181818;stroke-width:1.563;stroke-linejoin:miter;stroke-miterlimit:10;"/><text x="235.956" y="291.674" fill="#000" font-size="43.75" textLength="294.864" font-style="italic">«application»</text><text x="291.978" y="342.602" fill="#000" font-size="43.75" textLength="182.819">Quarkus</text></g><!--entity heroPostgresql--><g class="entity" data-qualified-name="hero.heroPostgresql" id="ent0003" data-source-line="45"><path d="M237.893,524.971 L237.893,524.971 L238.075,525.199 L242.082,520.907 L247.154,517.954 L251.879,514.565 L255.464,509.742 L260.627,506.904 L260.607,506.798 L270.522,504.466 L280.536,502.67 L290.618,501.245 L300.463,498.538 L310.641,497.627 L310.694,498.394 L320.584,496.07 L330.628,495.986 L340.69,496.175 L350.644,494.774 L360.655,494.209 L360.657,494.304 L365.201,494.067 L369.754,494.262 L374.303,494.248 L378.86,494.632 L383.389,493.721 L383.389,493.721 L383.409,494.653 L387.956,494.762 L392.49,494.27 L397.043,494.657 L401.597,495.086 L406.123,494.209 L406.054,493.21 L416.19,495.833 L426.1,495.165 L436.182,496.999 L446.087,496.257 L456.137,497.627 L456.119,497.533 L466.327,500.495 L476.13,501.271 L486.172,503.337 L496.234,505.511 L506.151,506.904 L506.511,507.357 L510.694,510.513 L515.492,514.443 L519.296,517.122 L524.584,521.667 L528.885,524.971 L530.407,524.971 L530.119,540.781 L530.587,556.592 L527.543,572.402 L527.073,588.213 L528.885,604.023 L528.885,604.023 L528.348,603.348 L524.287,607.573 L519.621,611.036 L515.833,615.604 L510.547,618.287 L506.151,622.09 L506.064,621.621 L496.206,624.257 L485.976,624.89 L476.011,626.947 L466.304,630.398 L456.137,631.367 L456.178,631.971 L446.203,633.069 L436.101,632.288 L426.158,633.86 L416.181,634.92 L406.123,634.785 L406.109,634.129 L401.573,634.75 L397.033,635.155 L392.502,635.983 L387.936,635.17 L383.389,635.273 L383.389,635.273 L383.403,635.916 L378.826,634.407 L374.275,634.138 L369.764,635.68 L365.181,633.887 L360.655,634.785 L360.703,635.49 L350.672,634.388 L340.624,633.047 L330.613,632.244 L320.687,632.686 L310.641,631.367 L310.565,630.958 L300.788,630.32 L290.495,626.901 L280.789,626.644 L270.753,624.607 L260.627,622.09 L260.839,622.356 L256.121,618.528 L252.161,615.653 L247.517,611.917 L242.586,607.821 L237.893,604.023 L238.638,604.023 L237.531,588.213 L239.883,572.402 L238.323,556.592 L238.373,540.781 L237.893,524.971" style="stroke:#566573;stroke-width:1.563;" fill="#D5F5E3"/><path d="M237.893,524.971 L237.893,524.971 L238.075,525.199 L242.082,528.133 L247.154,532.407 L251.879,536.245 L255.464,538.648 L260.627,543.037 L260.607,542.931 L270.522,544.31 L280.536,546.224 L290.618,548.51 L300.463,549.515 L310.641,552.314 L310.694,553.082 L320.584,552.125 L330.628,553.408 L340.69,554.964 L350.644,554.93 L360.655,555.732 L360.657,555.827 L365.201,555.786 L369.754,556.176 L374.303,556.357 L378.86,556.936 L383.389,556.221 L383.389,556.221 L383.409,557.153 L387.956,557.066 L392.49,556.379 L397.043,556.571 L401.597,556.805 L406.123,555.732 L406.054,554.733 L416.19,555.989 L426.1,553.954 L436.182,554.421 L446.087,552.312 L456.137,552.314 L456.119,552.221 L466.327,551.472 L476.13,548.537 L486.172,546.892 L496.234,545.355 L506.151,543.037 L506.511,543.49 L510.694,539.42 L515.492,536.123 L519.296,531.575 L524.584,528.893 L528.885,524.971" style="stroke:#566573;stroke-width:1.563;" fill="none"/><text x="269.143" y="609.33" fill="#000" font-size="43.75" textLength="228.491">Postgresql</text></g><g class="entity" data-qualified-name="heroQuarkuslol6" id="ent0007" data-source-line="49"><polygon points="101.667,305.803,99.377,308.932,96.668,313.516,92.793,316.605,88.722,318.294,85.476,318.441,81.303,316.328,77.367,314.948,74.378,312.146,72.811,308.938,71.881,306.383,70.971,303.047,69.493,300.176,70.629,297.373,71.624,294.302,75.358,291.873,77.986,288.722,81.238,287.676,85.104,286.775,90.061,287.31,92.777,288.591,95.934,289.171,99.773,293.104,101.111,297.256,101.692,300.089,101.034,304.757" fill="#F1F1F1" style="stroke:#181818;stroke-width:4.688;stroke-linejoin:miter;stroke-miterlimit:10;"/></g><text x="18.75" y="358.237" fill="#000" font-size="43.75" textLength="134.412">_REST</text><!--reverse link heroPostgresql to heroQuarkus--><g class="link" data-entity-1="ent0003" data-entity-2="ent0002" id="lnk5" data-source-line="46" data-link-type="dependency"><path d="M383.393,477.096 L383.685,477.096 L382.818,458.764 L383.662,440.433 L383.948,422.102 L382.402,403.771 L383.393,385.439" style="stroke:#F65;stroke-width:6.25;stroke-dasharray:21.875,21.875;" fill="none"/><polygon points="383.393,492.721,383.593,492.81,385.499,486.92,388.577,481.552,391.274,476.015,392.714,469.919,395.893,464.596,395.836,464.538,393.079,466.782,390.611,469.313,388.343,472.046,385.384,474.086,383.393,477.096,383.801,477.503,380.429,474.131,378.248,471.95,376.211,469.914,373.33,467.033,370.893,464.596,370.958,464.625,373.363,470.207,376.063,475.921,378.621,481.572,381.451,487.343,383.393,492.721" fill="#F65" style="stroke:#F65;stroke-width:6.25;stroke-linejoin:miter;stroke-miterlimit:10;"/></g><!--link heroQuarkuslol6 to heroQuarkus--><g class="link" data-entity-1="ent0007" data-entity-2="ent0002" id="lnk8" data-source-line="49" data-link-type="association"><path d="M103.112,302.002 L103.112,302.294 L122.556,301.427 L142,302.27 L161.443,302.557 L180.887,301.011 L200.331,302.002" style="stroke:#F65;stroke-width:6.25;" fill="none"/></g><?plantuml-src ZL7BRi8m4BpxAwpqqXweU3H4I0Y9HwAUgXPwHvjuIQmOEzYEQ8lwxqq2IateeJwjPySpksEJSrc0XZrb1QUZVf-O5YaDBj32nduAf5QNwFGoaEoekRKepoqGGXstU_x1PKeSebGCwOdCjLR7fH9AKpYKG4YiD4DzHkxyyTWFHYI694-rAYMxuD4a32OHsIbfNs2FT0c2nvetm8P_8Hq4JNqjy-twCx0GWwbd-9Vboe_yiAC1AKfR2roJfzEThinHijciUZXSFAt2MmuKXU09MAvaJOlceR_gwjVXLFetUoQN6A9gMD_TD6WEiHbFSed6qA6JoU1QFH5G4Kv_fDkEuh3N8FCD5dJO9qJWpbAhgEPfPYdZ6fDw3KAQJ_MUKIkFWg5PLLG6vvYyjn9qNfgsSxdJJXIa_HdlLHcRQZG7qJxwXOYhyLWMisw_cd-x3ZVlzFwXrtCTVm00?></g></svg>