<svg xmlns="http://www.w3.org/2000/svg" xmlns:xlink="http://www.w3.org/1999/xlink" contentStyleType="text/css" data-diagram-type="CLASS" height="678.125px" preserveAspectRatio="none" style="width:1209px;height:678px;background:#FFFFFF;" version="1.1" viewBox="0 0 1209 678" width="1209.375px" zoomAndPan="magnify"><?plantuml 1.2026.4beta2?><defs/><g><polygon fill="#FFFFCC" points="17.1875,9.375,17.1875,10.0318,48.1191,8.0802,79.0508,9.979,109.9824,10.624,140.914,7.1456,171.8456,9.1321,202.7773,8.0422,233.7089,8.1766,264.6405,9.162,295.5721,7.2145,326.5038,11.1051,357.4354,7.4054,388.367,8.757,419.2987,10.7248,450.2303,9.1069,481.1619,9.5882,512.0935,9.2752,543.0252,9.9329,573.9568,10.1223,604.8884,11.2053,635.82,11.472,666.7517,11.4977,697.6833,10.1707,728.6149,10.8237,759.5466,11.5695,790.4782,7.1213,821.4098,11.4953,852.3414,8.4484,883.2731,11.0432,914.2047,7.8281,945.1363,9.1609,976.068,11.6925,1006.9996,9.2227,1037.9312,9.7041,1068.8628,10.4332,1099.7945,10.6757,1130.7261,9.3628,1161.6577,9.375,1161.7722,9.6514,1162.5344,9.2818,1163.9808,10.564,1165.1908,11.2755,1166.2543,11.6334,1167.182,11.6632,1167.7719,11.9076,1167.1747,12.5755,1167.4696,13.613,1167.9569,14.7301,1168.9559,16.0592,1169.4702,17.1875,1169.2655,17.1875,1170.18,24.4629,1169.2883,31.7383,1169.1129,39.0137,1169.708,46.2891,1169.4702,53.5645,1168.8285,53.2986,1168.513,54.4624,1169.1795,56.0329,1168.5166,57.0527,1168.3465,58.2767,1167.182,59.0887,1167.0537,58.779,1166.2044,59.8536,1165.2076,60.5722,1163.6791,60.007,1162.7244,60.8271,1161.6577,61.377,1161.6577,61.7707,1130.7261,63.4137,1099.7945,61.3639,1068.8628,62.8225,1037.9312,59.6464,1006.9996,59.2605,976.068,62.9507,945.1363,59.1365,914.2047,62.9675,883.2731,62.0227,852.3414,60.5397,821.4098,60.2714,790.4782,62.8106,759.5466,60.4415,728.6149,63.2265,697.6833,59.6496,666.7517,63.3064,635.82,62.8904,604.8884,62.1425,573.9568,61.5245,543.0252,63.6476,512.0935,63.2944,481.1619,61.9059,450.2303,62.215,419.2987,60.9699,388.367,63.6159,357.4354,61.8609,326.5038,61.9162,295.5721,59.4759,264.6405,60.1106,233.7089,63.0355,202.7773,62.72,171.8456,61.2428,140.914,60.3702,109.9824,60.6928,79.0508,59.2327,48.1191,62.673,17.1875,61.377,17.4823,62.0887,16.2925,61.4259,15.2548,61.1304,13.8184,59.8724,12.8029,59.6303,11.6632,59.0887,11.2902,58.9342,11.4789,58.0971,10.9854,56.9774,10.8219,55.9944,9.6116,54.5778,9.375,53.5645,9.235,53.5645,9.8369,46.2891,9.966,39.0137,8.8411,31.7383,9.173,24.4629,9.375,17.1875,9.5186,17.247,9.2448,15.8391,10.6304,15.1187,10.9962,13.9758,11.1086,12.7279,11.6632,11.6632,11.7199,11.8001,13.0586,11.9068,13.7482,10.4468,15.1034,10.5934,16.1965,10.1075,17.1875,9.375" style="stroke:#FFDD88;stroke-width:9.375;"/><text fill="#000000" font-family="monospace" font-size="31.25" lengthAdjust="spacing" textLength="1110.0311" x="31.25" y="42.627">Please&#160;use&#160;'!option&#160;handwritten&#160;true'&#160;to&#160;enable&#160;handwritten</text><!--cluster hero--><g class="cluster" data-qualified-name="hero" data-source-line="43" id="ent0002"><polygon fill="#F9E79F" points="151.5808,117.627,151.7356,117.7818,157.5256,111.0718,164.2232,105.2693,170.6252,99.1713,176.0553,92.1015,182.8308,86.377,182.8308,86.1341,213.7147,85.0442,244.5987,85.1785,275.4826,86.164,306.3665,84.2164,337.2505,88.1071,368.1344,84.4073,399.0183,85.7589,429.9022,87.7268,460.7862,86.1089,491.6701,86.5902,522.554,86.2771,553.438,86.9348,584.3219,87.1242,615.2058,86.377,617.0361,86.377,617.3029,116.6504,617.3285,146.9238,616.0015,177.1973,616.6545,207.4707,617.4003,237.7441,612.9521,268.0176,617.3262,298.291,614.2792,328.5645,616.874,358.8379,613.6589,389.1113,614.9918,419.3848,617.5233,449.6582,615.0535,479.9316,615.5349,510.2051,616.264,540.4785,615.2058,570.752,615.5124,571.0585,608.9529,576.9991,602.9174,583.4635,596.0342,589.0803,590.4153,595.9614,583.9558,602.002,583.9558,603.7151,553.0719,603.3911,522.188,603.9177,491.304,600.4923,460.4201,599.9639,429.5362,600.0601,398.6522,601.818,367.7683,601.3878,336.8844,604.1314,306.0005,601.4561,275.1165,600.9299,244.2326,602.7153,213.3487,599.9181,182.4647,600.3797,151.5808,602.002,153.6088,602.002,152.9423,571.7285,153.8761,541.4551,150.5752,511.1816,152.5783,480.9082,153.4259,450.6348,150.1045,420.3613,151.2812,390.0879,151.9745,359.8145,153.6176,329.541,151.5677,299.2676,153.0263,268.9941,149.8502,238.7207,149.4644,208.4473,153.1546,178.1738,149.3404,147.9004,151.5808,117.627" style="stroke:#566573;stroke-width:3.125;"/><path d="M583.9558,117.627 L584.1622,117.8334 L589.7989,110.9701 L596.6456,105.3168 L603.0983,99.2695 L608.2552,91.9263 L615.2058,86.377" fill="#F9E79F" style="stroke:#566573;stroke-width:3.125;"/><path d="M151.5808,117.627 L151.5808,118.5027 L182.4647,115.9006 L213.3487,118.4323 L244.2326,119.2923 L275.1165,114.6545 L306.0005,117.3031 L336.8844,115.8499 L367.7683,116.029 L398.6522,117.343 L429.5362,114.7462 L460.4201,119.9338 L491.304,115.0008 L522.188,116.8029 L553.0719,119.4267 L583.9558,117.627" fill="#F9E79F" style="stroke:#566573;stroke-width:3.125;"/><path d="M583.9558,117.627 L584.8316,117.627 L582.2295,147.9004 L584.7612,178.1738 L585.6211,208.4473 L580.9833,238.7207 L583.632,268.9941 L582.1788,299.2676 L582.3579,329.541 L583.6718,359.8145 L581.0751,390.0879 L586.2627,420.3613 L581.3296,450.6348 L583.1318,480.9082 L585.7556,511.1816 L583.5984,541.4551 L584.2401,571.7285 L583.9558,602.002" fill="#F9E79F" style="stroke:#566573;stroke-width:3.125;"/><text fill="#566573" font-family="Calibri" font-size="53.125" font-weight="700" lengthAdjust="spacing" textLength="0" x="370.8933" y="127.002">Hero</text></g><!--entity heroQuarkus--><g class="entity" data-qualified-name="hero.heroQuarkus" data-source-line="44" id="ent0003"><polygon fill="#FAE5D3" points="209.3933,135.4395,209.3933,136.0963,241.0287,134.1447,272.664,136.0435,304.2994,136.6885,335.9347,133.2101,367.5701,135.1966,399.2054,134.1067,430.8408,134.241,462.4761,135.2265,494.1115,133.2789,525.7468,137.1696,557.3822,135.4395,557.131,134.8329,558.4082,135.7068,559.7641,136.7704,560.6626,136.7298,561.8288,137.3357,562.9065,137.7277,562.8757,137.7149,563.5359,138.9037,564.0519,140.0327,564.8431,141.2757,565.3829,142.4146,565.1947,143.252,567.3174,143.252,565.9904,172.998,566.6434,202.7441,567.3892,232.4902,562.941,262.2363,565.1947,291.9824,565.8477,292.2529,564.4517,292.9691,564.7931,294.4049,563.3454,295.0997,563.2982,296.3745,562.9065,297.5067,563.2021,298.2204,561.7822,297.9174,560.7387,298.5233,559.7269,299.2055,558.653,299.7378,557.3822,299.7949,557.3822,299.7827,525.7468,300.6925,494.1115,298.0061,462.4761,300.6836,430.8408,301.508,399.2054,301.1841,367.5701,301.7106,335.9347,298.2853,304.2994,297.7568,272.664,297.853,241.0287,299.6109,209.3933,299.7949,209.315,299.6058,208.5601,299.993,207.114,298.7115,205.942,298.0918,205.0649,298.184,203.869,297.5067,203.2273,297.2409,202.9118,296.1949,203.5783,295.5557,202.9154,294.3658,202.7453,293.3801,201.5808,291.9824,200.5752,291.9824,202.5783,262.2363,203.4259,232.4902,200.1045,202.7441,201.2812,172.998,201.5808,143.252,201.7021,143.3022,202.6657,142.4069,202.4921,141.0406,203.3989,140.1218,202.8784,138.6118,203.869,137.7277,203.5991,137.0759,205.1746,137.7547,205.793,136.1224,207.3865,136.8446,208.3708,136.096,209.3933,135.4395" style="stroke:#181818;stroke-width:1.5625;"/><text fill="#000000" font-family="sans-serif" font-size="43.75" font-style="italic" lengthAdjust="spacing" textLength="294.8639" x="235.9558" y="207.2992">&#171;application&#187;</text><text fill="#000000" font-family="sans-serif" font-size="43.75" lengthAdjust="spacing" textLength="182.8186" x="291.9785" y="258.2269">Quarkus</text></g><!--entity heroPostgresql--><g class="entity" data-qualified-name="hero.heroPostgresql" data-source-line="45" id="ent0004"><path d="M237.8933,440.5957 L237.8933,440.5957 L238.0749,440.8242 L242.082,436.5319 L247.1538,433.5793 L251.8789,430.1904 L255.4638,425.3669 L260.627,422.5293 L260.6073,422.4232 L270.5218,420.0914 L280.5355,418.2947 L290.6182,416.8698 L300.4632,414.1633 L310.6411,413.252 L310.6935,414.0191 L320.5843,411.695 L330.628,411.6107 L340.6905,411.7997 L350.6443,410.3987 L360.6552,409.834 L360.6573,409.9287 L365.201,409.692 L369.754,409.8866 L374.3026,409.8731 L378.8596,410.2566 L383.3889,409.3457 L383.3889,409.3457 L383.4089,410.2775 L387.9559,410.3866 L392.49,409.8946 L397.043,410.2824 L401.5968,410.7114 L406.1226,409.834 L406.0543,408.8347 L416.1897,411.4578 L426.1002,410.7903 L436.1816,412.6244 L446.087,411.8824 L456.1367,413.252 L456.1194,413.1584 L466.3274,416.1202 L476.13,416.8963 L486.1719,418.9622 L496.2338,421.1363 L506.1508,422.5293 L506.5105,422.9819 L510.6942,426.1383 L515.4925,430.0682 L519.2964,432.7467 L524.5835,437.2916 L528.8845,440.5957 L530.4073,440.5957 L530.1193,456.4062 L530.5874,472.2168 L527.5426,488.0273 L527.0729,503.8379 L528.8845,519.6484 L528.8845,519.6484 L528.3476,518.9728 L524.2869,523.1977 L519.6212,526.6613 L515.8331,531.2292 L510.5466,533.9116 L506.1508,537.7148 L506.0639,537.2464 L496.2058,539.882 L485.9763,540.5152 L476.0109,542.5723 L466.3039,546.0229 L456.1367,546.9922 L456.178,547.5959 L446.2034,548.6935 L436.1006,547.9135 L426.1585,549.4853 L416.1813,550.5447 L406.1226,550.4102 L406.1085,549.7542 L401.573,550.3747 L397.0329,550.7804 L392.5018,551.6081 L387.9355,550.795 L383.3889,550.8984 L383.3889,550.8984 L383.4027,551.5407 L378.8257,550.0318 L374.2752,549.7627 L369.7637,551.3048 L365.1806,549.5123 L360.6552,550.4102 L360.7034,551.1154 L350.672,550.0129 L340.6242,548.6717 L330.6133,547.8692 L320.6874,548.3115 L310.6411,546.9922 L310.5653,546.5834 L300.7882,545.945 L290.4955,542.5264 L280.789,542.2689 L270.7525,540.2317 L260.627,537.7148 L260.8387,537.9812 L256.1211,534.1529 L252.1614,531.2784 L247.517,527.5422 L242.5863,523.4458 L237.8933,519.6484 L238.6383,519.6484 L237.5315,503.8379 L239.8835,488.0273 L238.3235,472.2168 L238.3727,456.4062 L237.8933,440.5957" fill="#D5F5E3" style="stroke:#566573;stroke-width:1.5625;"/><path d="M237.8933,440.5957 L237.8933,440.5957 L238.0749,440.8242 L242.082,443.7585 L247.1538,448.0324 L251.8789,451.8701 L255.4638,454.2731 L260.627,458.6621 L260.6073,458.556 L270.5218,459.9352 L280.5355,461.8493 L290.6182,464.1354 L300.4632,465.1399 L310.6411,467.9395 L310.6935,468.7066 L320.5843,467.7497 L330.628,469.0326 L340.6905,470.5888 L350.6443,470.555 L360.6552,471.3574 L360.6573,471.4522 L365.201,471.4107 L369.754,471.8006 L374.3026,471.9824 L378.8596,472.5613 L383.3889,471.8457 L383.3889,471.8457 L383.4089,472.7775 L387.9559,472.6912 L392.49,472.004 L397.043,472.1965 L401.5968,472.4302 L406.1226,471.3574 L406.0543,470.3581 L416.1897,471.614 L426.1002,469.5794 L436.1816,470.0463 L446.087,467.9371 L456.1367,467.9395 L456.1194,467.8459 L466.3274,467.0967 L476.13,464.162 L486.1719,462.5168 L496.2338,460.98 L506.1508,458.6621 L506.5105,459.1147 L510.6942,455.0446 L515.4925,451.7478 L519.2964,447.1998 L524.5835,444.5182 L528.8845,440.5957" fill="none" style="stroke:#566573;stroke-width:1.5625;"/><text fill="#000000" font-family="sans-serif" font-size="43.75" lengthAdjust="spacing" textLength="228.4912" x="269.1433" y="524.9554">Postgresql</text></g><g class="entity" data-qualified-name="heroQuarkuslol7" data-source-line="49" id="ent0008"><polygon fill="#F1F1F1" points="101.6671,221.4276,99.3768,224.5571,96.6678,229.1407,92.7933,232.2298,88.722,233.919,85.4757,234.0656,81.3034,231.953,77.3666,230.5729,74.3784,227.7707,72.811,224.5627,71.8815,222.0084,70.9708,218.672,69.4927,215.8009,70.6286,212.9977,71.6237,209.927,75.3582,207.4984,77.9856,204.3473,81.2376,203.3009,85.1037,202.3998,90.0615,202.9351,92.7769,204.2158,95.9341,204.7963,99.7728,208.7292,101.111,212.8811,101.6924,215.7141,101.0339,220.3825" style="stroke:#181818;stroke-width:4.6875;"/></g><text fill="#000000" font-family="sans-serif" font-size="43.75" lengthAdjust="spacing" textLength="134.4116" x="18.75" y="273.8617">_REST</text><!--reverse link heroPostgresql to heroQuarkus--><g class="link" data-entity-1="ent0004" data-entity-2="ent0003" data-link-type="dependency" data-source-line="46" id="lnk6"><path d="M383.3933,389.5957 L383.6852,389.5957 L382.8179,371.8895 L383.6618,354.1832 L383.9484,336.477 L382.4025,318.7707 L383.3933,301.0645" fill="none" style="stroke:#FF6655;stroke-width:6.25;stroke-dasharray:21.875,21.875;"/><polygon fill="#FF6655" points="383.3933,408.3457,383.5934,408.4346,385.4989,402.5454,388.5773,397.1775,391.2738,391.6398,392.7142,385.5439,395.8933,380.2207,395.8361,380.1635,393.0792,382.4066,390.6108,384.9382,388.3431,387.6705,385.3841,389.7115,383.3933,392.7207,383.8011,393.1285,380.4291,389.7565,378.2476,387.575,376.2115,385.5389,373.3301,382.6575,370.8933,380.2207,370.9583,380.2496,373.3629,385.8322,376.0632,391.5462,378.6209,397.1969,381.4508,402.9685,383.3933,408.3457" style="stroke:#FF6655;stroke-width:6.25;"/></g><!--link heroQuarkuslol7 to heroQuarkus--><g class="link" data-entity-1="ent0008" data-entity-2="ent0003" data-link-type="association" data-source-line="49" id="lnk9"><path d="M103.1121,217.627 L103.1121,217.9189 L122.5558,217.0515 L141.9996,217.8954 L161.4433,218.1821 L180.8871,216.6361 L200.3308,217.627" fill="none" style="stroke:#FF6655;stroke-width:6.25;"/></g><?plantuml-src ZL7BRi8m4BpxAwpqqXweU3H4I0Y9HwAUgXPwHvjuIQmOEzYEQ8lwxqq2IateeJwjPySpksEJSrc0XZrb1QUZVf-O5YaDBj32nduAf5QNwFGoaEoekRKepoqGGXstU_x1PKeSebGCwOdCjLR7fH9AKpYKG4YiD4DzHkxyyTWFHYI694-rAYMxuD4a32OHsIbfNs2FT0c2nvetm8P_8Hq4JNqjy-twCx0GWwbd-9Vboe_yiAC1AKfR2roJfzEThinHijciUZXSFAt2MmuKXU09MAvaJOlceR_gwjVXLFetUoQN6A9gMD_TD6WEiHbFSed6qA6JoU1QFH5G4Kv_fDkEuh3N8FCD5dJO9qJWpbAhgEPfPYdZ6fDw3KAQJ_MUKIkFWg5PLLG6vvYyjn9qNfgsSxdJJXIa_HdlLHcRQZG7qJxwXOYhyLWMisw_cd-x3ZVlzFwXrtCTVm00?></g></svg>