<svg xmlns="http://www.w3.org/2000/svg" xmlns:xlink="http://www.w3.org/1999/xlink" contentStyleType="text/css" height="671.875px" preserveAspectRatio="none" style="width:665px;height:671px;background:#FFFFFF;" version="1.1" viewBox="0 0 665 671" width="665.625px" zoomAndPan="magnify"><defs/><g><!--cluster hero--><g id="cluster_hero"><polygon fill="#F9E79F" points="151.5808,50,151.7356,50.1548,157.5256,43.4448,164.2232,37.6424,170.6252,31.5444,176.0553,24.4745,182.8308,18.75,182.8308,18.5071,213.7147,17.4172,244.5987,17.5516,275.4826,18.537,306.3665,16.5895,337.2505,20.4801,368.1344,16.7804,399.0183,18.132,429.9022,20.0998,460.7862,18.4819,491.6701,18.9632,522.554,18.6502,553.438,19.3079,584.3219,19.4973,615.2058,18.75,617.0361,18.75,617.3029,50.3472,617.3285,81.9444,616.0015,113.5417,616.6545,145.1389,617.4003,176.7361,612.9521,208.3333,617.3262,239.9306,614.2792,271.5278,616.874,303.125,613.6589,334.7222,614.9918,366.3194,617.5233,397.9167,615.0535,429.5139,615.5349,461.1111,616.264,492.7083,616.5065,524.3056,615.1936,555.9028,615.2058,587.5,615.4174,587.7116,608.5342,593.3284,602.9153,600.2095,596.8596,606.6538,590.5332,612.8274,583.9558,618.75,583.9558,620.6657,553.0719,617.2404,522.188,616.7119,491.304,616.8081,460.4201,618.566,429.5362,618.1358,398.6522,620.8794,367.7683,618.2041,336.8844,617.678,306.0005,619.4633,275.1165,616.6661,244.2326,617.1277,213.3487,620.778,182.4647,620.1115,151.5808,618.75,153.8761,618.75,150.5752,587.1528,152.5783,555.5556,153.4259,523.9583,150.1045,492.3611,151.2812,460.7639,151.9745,429.1667,153.6176,397.5694,151.5677,365.9722,153.0263,334.375,149.8502,302.7778,149.4644,271.1806,153.1546,239.5833,149.3404,207.9861,153.1713,176.3889,152.2265,144.7917,150.7436,113.1944,150.4753,81.5972,151.5808,50" style="stroke:#566573;stroke-width:3.125;"/><path d="M583.9558,50 L584.1622,50.2064 L589.7989,43.3431 L596.6456,37.6898 L603.0983,31.6425 L608.2552,24.2994 L615.2058,18.75 " fill="#F9E79F" style="stroke:#566573;stroke-width:3.125;"/><path d="M151.5808,50 L151.5808,50.8758 L182.4647,48.2737 L213.3487,50.8054 L244.2326,51.6653 L275.1165,47.0275 L306.0005,49.6762 L336.8844,48.2229 L367.7683,48.4021 L398.6522,49.716 L429.5362,47.1193 L460.4201,52.3068 L491.304,47.3738 L522.188,49.176 L553.0719,51.7998 L583.9558,50 " fill="#F9E79F" style="stroke:#566573;stroke-width:3.125;"/><path d="M583.9558,50 L584.8316,50 L582.2295,81.5972 L584.7612,113.1944 L585.6211,144.7917 L580.9833,176.3889 L583.632,207.9861 L582.1788,239.5833 L582.3579,271.1806 L583.6718,302.7778 L581.0751,334.375 L586.2627,365.9722 L581.3296,397.5694 L583.1318,429.1667 L585.7556,460.7639 L583.5984,492.3611 L584.2401,523.9583 L583.8227,555.5556 L584.6997,587.1528 L583.9558,618.75 " fill="#F9E79F" style="stroke:#566573;stroke-width:3.125;"/><text fill="#566573" font-family="Calibri" font-size="53.125" font-weight="bold" lengthAdjust="spacing" textLength="143.1885" x="299.2991" y="108.6868">Hero</text></g><!--entity heroQuarkus--><g id="elem_heroQuarkus"><polygon fill="#FAE5D3" points="209.3933,152.1875,209.3933,152.8443,241.0287,150.8927,272.664,152.7915,304.2994,153.4365,335.9347,149.9581,367.5701,151.9446,399.2054,150.8547,430.8408,150.9891,462.4761,151.9745,494.1115,150.027,525.7468,153.9176,557.3822,152.1875,557.131,151.5809,558.4082,152.4548,559.7641,153.5185,560.6626,153.4779,561.8288,154.0838,562.9065,154.4757,562.8757,154.463,563.5359,155.6517,564.0519,156.7808,564.8431,158.0238,565.3829,159.1626,565.1947,160,567.3174,160,565.9904,189.7461,566.6434,219.4922,567.3892,249.2383,562.941,278.9844,565.1947,308.7305,565.8477,309.0009,564.4517,309.7171,564.7931,311.153,563.3454,311.8477,563.2982,313.1226,562.9065,314.2547,563.2021,314.9684,561.7822,314.6655,560.7387,315.2714,559.7269,315.9536,558.653,316.4859,557.3822,316.543,557.3822,316.5308,525.7468,317.4405,494.1115,314.7542,462.4761,317.4317,430.8408,318.2561,399.2054,317.9321,367.5701,318.4587,335.9347,315.0333,304.2994,314.5049,272.664,314.6011,241.0287,316.359,209.3933,316.543,209.315,316.3538,208.5601,316.7411,207.114,315.4596,205.942,314.8399,205.0649,314.9321,203.869,314.2547,203.2273,313.9889,202.9118,312.9429,203.5783,312.3037,202.9154,311.1138,202.7453,310.1281,201.5808,308.7305,200.5752,308.7305,202.5783,278.9844,203.4259,249.2383,200.1045,219.4922,201.2812,189.7461,201.5808,160,201.7021,160.0502,202.6657,159.155,202.4921,157.7886,203.3989,156.8698,202.8784,155.3598,203.869,154.4757,203.5991,153.824,205.1746,154.5027,205.793,152.8705,207.3865,153.5926,208.3708,152.844,209.3933,152.1875" style="stroke:#181818;stroke-width:1.5625;"/><text fill="#000000" font-family="sans-serif" font-size="43.75" font-style="italic" lengthAdjust="spacing" textLength="294.8639" x="235.9558" y="224.0472">&#171;application&#187;</text><text fill="#000000" font-family="sans-serif" font-size="43.75" lengthAdjust="spacing" textLength="182.8186" x="291.9785" y="274.975">Quarkus</text></g><!--entity heroPostgresql--><g id="elem_heroPostgresql"><path d="M237.8933,457.3438 L237.8933,457.3438 L238.0749,457.5723 L242.082,453.28 L247.1538,450.3274 L251.8789,446.9385 L255.4638,442.1149 L260.627,439.2773 L260.6073,439.1712 L270.5218,436.8395 L280.5355,435.0427 L290.6182,433.6179 L300.4632,430.9113 L310.6411,430 L310.6935,430.7672 L320.5843,428.4431 L330.628,428.3588 L340.6905,428.5477 L350.6443,427.1468 L360.6552,426.582 L360.6573,426.6768 L365.201,426.44 L369.754,426.6346 L374.3026,426.6211 L378.8596,427.0047 L383.3889,426.0938 L383.3889,426.0938 L383.4089,427.0256 L387.9559,427.1346 L392.49,426.6426 L397.043,427.0304 L401.5968,427.4595 L406.1226,426.582 L406.0543,425.5827 L416.1897,428.2058 L426.1002,427.5384 L436.1816,429.3725 L446.087,428.6305 L456.1367,430 L456.1194,429.9065 L466.3274,432.8682 L476.13,433.6444 L486.1719,435.7102 L496.2338,437.8843 L506.1508,439.2773 L506.5105,439.7299 L510.6942,442.8864 L515.4925,446.8162 L519.2964,449.4948 L524.5835,454.0397 L528.8845,457.3438 L530.4073,457.3438 L530.1193,473.1543 L530.5874,488.9648 L527.5426,504.7754 L527.0729,520.5859 L528.8845,536.3965 L528.8845,536.3965 L528.3476,535.7208 L524.2869,539.9457 L519.6212,543.4094 L515.8331,547.9773 L510.5466,550.6597 L506.1508,554.4629 L506.0639,553.9944 L496.2058,556.6301 L485.9763,557.2632 L476.0109,559.3204 L466.3039,562.771 L456.1367,563.7402 L456.178,564.3439 L446.2034,565.4416 L436.1006,564.6615 L426.1585,566.2333 L416.1813,567.2927 L406.1226,567.1582 L406.1085,566.5022 L401.573,567.1228 L397.0329,567.5285 L392.5018,568.3562 L387.9355,567.543 L383.3889,567.6465 L383.3889,567.6465 L383.4027,568.2888 L378.8257,566.7799 L374.2752,566.5108 L369.7637,568.0528 L365.1806,566.2603 L360.6552,567.1582 L360.7034,567.8635 L350.672,566.7609 L340.6242,565.4198 L330.6133,564.6172 L320.6874,565.0595 L310.6411,563.7402 L310.5653,563.3315 L300.7882,562.693 L290.4955,559.2745 L280.789,559.017 L270.7525,556.9797 L260.627,554.4629 L260.8387,554.7293 L256.1211,550.901 L252.1614,548.0264 L247.517,544.2902 L242.5863,540.1938 L237.8933,536.3965 L238.6383,536.3965 L237.5315,520.5859 L239.8835,504.7754 L238.3235,488.9648 L238.3727,473.1543 L237.8933,457.3438 " fill="#D5F5E3" style="stroke:#566573;stroke-width:1.5625;"/><path d="M237.8933,457.3438 L237.8933,457.3438 L238.0749,457.5723 L242.082,460.5065 L247.1538,464.7805 L251.8789,468.6182 L255.4638,471.0212 L260.627,475.4102 L260.6073,475.304 L270.5218,476.6832 L280.5355,478.5974 L290.6182,480.8835 L300.4632,481.8879 L310.6411,484.6875 L310.6935,485.4547 L320.5843,484.4977 L330.628,485.7807 L340.6905,487.3368 L350.6443,487.303 L360.6552,488.1055 L360.6573,488.2002 L365.201,488.1588 L369.754,488.5487 L374.3026,488.7305 L378.8596,489.3094 L383.3889,488.5938 L383.3889,488.5938 L383.4089,489.5256 L387.9559,489.4393 L392.49,488.752 L397.043,488.9445 L401.5968,489.1782 L406.1226,488.1055 L406.0543,487.1062 L416.1897,488.3621 L426.1002,486.3274 L436.1816,486.7944 L446.087,484.6852 L456.1367,484.6875 L456.1194,484.594 L466.3274,483.8448 L476.13,480.91 L486.1719,479.2649 L496.2338,477.7281 L506.1508,475.4102 L506.5105,475.8627 L510.6942,471.7926 L515.4925,468.4959 L519.2964,463.9479 L524.5835,461.2663 L528.8845,457.3438 " fill="none" style="stroke:#566573;stroke-width:1.5625;"/><text fill="#000000" font-family="sans-serif" font-size="43.75" lengthAdjust="spacing" textLength="228.4912" x="269.1433" y="541.7035">Postgresql</text></g><g id="elem_heroQuarkuslol7"><polygon fill="#F1F1F1" points="101.6671,238.1756,99.3768,241.3051,96.6678,245.8888,92.7933,248.9778,88.722,250.6671,85.4757,250.8137,81.3034,248.7011,77.3666,247.3209,74.3784,244.5187,72.811,241.3108,71.8815,238.7564,70.9708,235.42,69.4927,232.549,70.6286,229.7457,71.6237,226.675,75.3582,224.2464,77.9856,221.0953,81.2376,220.0489,85.1037,219.1478,90.0615,219.6832,92.7769,220.9638,95.9341,221.5443,99.7728,225.4772,101.111,229.6292,101.6924,232.4621,101.0339,237.1305" style="stroke:#181818;stroke-width:4.6875;"/></g><text fill="#000000" font-family="sans-serif" font-size="43.75" lengthAdjust="spacing" textLength="134.4116" x="18.75" y="290.6097">_REST</text><!--reverse link heroPostgresql to heroQuarkus--><g id="link_heroPostgresql_heroQuarkus"><path d="M383.3933,406.3438 L383.6852,406.3438 L382.8179,388.6375 L383.6618,370.9313 L383.9484,353.225 L382.4025,335.5188 L383.3933,317.8125 " fill="none" style="stroke:#FF6655;stroke-width:6.25;stroke-dasharray:7.0,7.0;"/><polygon fill="#FF6655" points="383.3933,425.0938,383.5934,425.1827,385.4989,419.2935,388.5773,413.9255,391.2738,408.3878,392.7142,402.2919,395.8933,396.9688,395.8361,396.9115,393.0792,399.1546,390.6108,401.6863,388.3431,404.4185,385.3841,406.4595,383.3933,409.4688,383.8011,409.8765,380.4291,406.5045,378.2476,404.3231,376.2115,402.2869,373.3301,399.4056,370.8933,396.9688,370.9583,396.9976,373.3629,402.5802,376.0632,408.2943,378.6209,413.9449,381.4508,419.7165,383.3933,425.0938" style="stroke:#FF6655;stroke-width:6.25;"/></g><!--link heroQuarkuslol7 to heroQuarkus--><g id="link_heroQuarkuslol7_heroQuarkus"><path d="M103.1121,234.375 L103.1121,234.6669 L122.5558,233.7996 L141.9996,234.6435 L161.4433,234.9301 L180.8871,233.3842 L200.3308,234.375 " fill="none" style="stroke:#FF6655;stroke-width:6.25;"/></g><!--SRC=[ZL7BRi8m4BpxAwpqqXweU3H4I0Y9HwAUgXPwHvjuIQmOEzYEQ8lwxqq2IateeJwjPySpksEJSrc0XZrb1QUZVf-O5YaDBj32nduAf5QNwFGoaEoekRKepoqGGXstU_x1PKeSebGCwOdCjLR7fH9AKpYKG4YiD4DzHkxyyTWFHYI694-rAYMxuD4a32OHsIbfNs2FT0c2nvetm8P_8Hq4JNqjy-twCx0GWwbd-9Vboe_yiAC1AKfR2roJfzEThinHijciUZXSFAt2MmuKXU09MAvaJOlceR_gwjVXLFetUoQN6A9gMD_TD6WEiHbFSed6qA6JoU1QFH5G4Kv_fDkEuh3N8FCD5dJO9qJWpbAhgEPfPYdZ6fDw3KAQJ_MUKIkFWg5PLLG6vvYyjn9qNfgsSxdJJXIa_HdlLHcRQZG7qJxwXOYhyLWMisw_cd-x3ZVlzFwXrtCTVm00]--></g></svg>