<svg xmlns="http://www.w3.org/2000/svg" xmlns:xlink="http://www.w3.org/1999/xlink" contentStyleType="text/css" height="671.875px" preserveAspectRatio="none" style="width:659px;height:671px;background:#FFFFFF;" version="1.1" viewBox="0 0 659 671" width="659.375px" zoomAndPan="magnify"><defs/><g><!--cluster hero--><g id="cluster_hero"><polygon fill="#F9E79F" points="151.5808,50,151.7356,50.1548,157.5256,43.4448,164.2232,37.6424,170.6252,31.5444,176.0553,24.4745,182.8308,18.75,182.8308,18.5071,213.2683,17.4172,243.7058,17.5516,274.1433,18.537,304.5808,16.5895,335.0183,20.4801,365.4558,16.7804,395.8933,18.132,426.3308,20.0998,456.7683,18.4819,487.2058,18.9632,517.6433,18.6502,548.0808,19.3079,578.5183,19.4973,608.9558,18.75,610.7861,18.75,611.0529,50.3472,611.0785,81.9444,609.7515,113.5417,610.4045,145.1389,611.1503,176.7361,606.7021,208.3333,611.0762,239.9306,608.0292,271.5278,610.624,303.125,607.4089,334.7222,608.7418,366.3194,611.2733,397.9167,608.8035,429.5139,609.2849,461.1111,610.014,492.7083,610.2565,524.3056,608.9436,555.9028,608.9558,587.5,609.1674,587.7116,602.2842,593.3284,596.6653,600.2095,590.6096,606.6538,584.2832,612.8274,577.7058,618.75,577.7058,620.6657,547.2683,617.2404,516.8308,616.7119,486.3933,616.8081,455.9558,618.566,425.5183,618.1358,395.0808,620.8794,364.6433,618.2041,334.2058,617.678,303.7683,619.4633,273.3308,616.6661,242.8933,617.1277,212.4558,620.778,182.0183,620.1115,151.5808,618.75,153.8761,618.75,150.5752,587.1528,152.5783,555.5556,153.4259,523.9583,150.1045,492.3611,151.2812,460.7639,151.9745,429.1667,153.6176,397.5694,151.5677,365.9722,153.0263,334.375,149.8502,302.7778,149.4644,271.1806,153.1546,239.5833,149.3404,207.9861,153.1713,176.3889,152.2265,144.7917,150.7436,113.1944,150.4753,81.5972,151.5808,50" style="stroke:#566573;stroke-width:3.125;"/><path d="M577.7058,50 L577.9122,50.2064 L583.5489,43.3431 L590.3956,37.6898 L596.8483,31.6425 L602.0052,24.2994 L608.9558,18.75 " fill="#F9E79F" style="stroke:#566573;stroke-width:3.125;"/><path d="M151.5808,50 L151.5808,50.8758 L182.0183,48.2737 L212.4558,50.8054 L242.8933,51.6653 L273.3308,47.0275 L303.7683,49.6762 L334.2058,48.2229 L364.6433,48.4021 L395.0808,49.716 L425.5183,47.1193 L455.9558,52.3068 L486.3933,47.3738 L516.8308,49.176 L547.2683,51.7998 L577.7058,50 " fill="#F9E79F" style="stroke:#566573;stroke-width:3.125;"/><path d="M577.7058,50 L578.5816,50 L575.9795,81.5972 L578.5112,113.1944 L579.3711,144.7917 L574.7333,176.3889 L577.382,207.9861 L575.9288,239.5833 L576.1079,271.1806 L577.4218,302.7778 L574.8251,334.375 L580.0127,365.9722 L575.0796,397.5694 L576.8818,429.1667 L579.5056,460.7639 L577.3484,492.3611 L577.9901,523.9583 L577.5727,555.5556 L578.4497,587.1528 L577.7058,618.75 " fill="#F9E79F" style="stroke:#566573;stroke-width:3.125;"/><text fill="#566573" font-family="Calibri" font-size="53.125" font-weight="bold" lengthAdjust="spacing" textLength="143.1885" x="296.1741" y="108.6868">Hero</text></g><!--entity heroQuarkus--><g id="elem_heroQuarkus"><polygon fill="#FAE5D3" points="209.3933,152.1875,209.3933,152.8443,240.4605,150.8927,271.5277,152.7915,302.5948,153.4365,333.662,149.9581,364.7292,151.9446,395.7963,150.8547,426.8635,150.9891,457.9307,151.9745,488.9979,150.027,520.065,153.9176,551.1322,152.1875,550.881,151.5809,552.1582,152.4548,553.5141,153.5185,554.4126,153.4779,555.5788,154.0838,556.6565,154.4757,556.6257,154.463,557.2859,155.6517,557.8019,156.7808,558.5931,158.0238,559.1329,159.1626,558.9447,160,561.0674,160,559.7404,189.7461,560.3934,219.4922,561.1392,249.2383,556.691,278.9844,558.9447,308.7305,559.5977,309.0009,558.2017,309.7171,558.5431,311.153,557.0954,311.8477,557.0482,313.1226,556.6565,314.2547,556.9521,314.9684,555.5322,314.6655,554.4887,315.2714,553.4769,315.9536,552.403,316.4859,551.1322,316.543,551.1322,316.5308,520.065,317.4405,488.9979,314.7542,457.9307,317.4317,426.8635,318.2561,395.7963,317.9321,364.7292,318.4587,333.662,315.0333,302.5948,314.5049,271.5277,314.6011,240.4605,316.359,209.3933,316.543,209.315,316.3538,208.5601,316.7411,207.114,315.4596,205.942,314.8399,205.0649,314.9321,203.869,314.2547,203.2273,313.9889,202.9118,312.9429,203.5783,312.3037,202.9154,311.1138,202.7453,310.1281,201.5808,308.7305,200.5752,308.7305,202.5783,278.9844,203.4259,249.2383,200.1045,219.4922,201.2812,189.7461,201.5808,160,201.7021,160.0502,202.6657,159.155,202.4921,157.7886,203.3989,156.8698,202.8784,155.3598,203.869,154.4757,203.5991,153.824,205.1746,154.5027,205.793,152.8705,207.3865,153.5926,208.3708,152.844,209.3933,152.1875" style="stroke:#181818;stroke-width:1.5625;"/><text fill="#000000" font-family="sans-serif" font-size="43.75" font-style="italic" lengthAdjust="spacing" textLength="294.8639" x="232.8308" y="224.0472">&#171;application&#187;</text><text fill="#000000" font-family="sans-serif" font-size="43.75" lengthAdjust="spacing" textLength="182.8186" x="288.8535" y="274.975">Quarkus</text></g><!--entity heroPostgresql--><g id="elem_heroPostgresql"><path d="M234.7683,457.3438 L234.7683,457.3438 L234.9499,457.5723 L238.957,453.28 L244.0288,450.3274 L248.7539,446.9385 L252.3388,442.1149 L257.502,439.2773 L257.4823,439.1712 L267.3968,436.8395 L277.4105,435.0427 L287.4932,433.6179 L297.3382,430.9113 L307.5161,430 L307.5685,430.7672 L317.4593,428.4431 L327.503,428.3588 L337.5655,428.5477 L347.5193,427.1468 L357.5302,426.582 L357.5323,426.6768 L362.076,426.44 L366.629,426.6346 L371.1776,426.6211 L375.7346,427.0047 L380.2639,426.0938 L380.2639,426.0938 L380.2839,427.0256 L384.8309,427.1346 L389.365,426.6426 L393.918,427.0304 L398.4718,427.4595 L402.9976,426.582 L402.9293,425.5827 L413.0647,428.2058 L422.9752,427.5384 L433.0566,429.3725 L442.962,428.6305 L453.0117,430 L452.9944,429.9065 L463.2024,432.8682 L473.005,433.6444 L483.0469,435.7102 L493.1088,437.8843 L503.0258,439.2773 L503.3855,439.7299 L507.5692,442.8864 L512.3675,446.8162 L516.1714,449.4948 L521.4585,454.0397 L525.7595,457.3438 L527.2823,457.3438 L526.9943,473.1543 L527.4624,488.9648 L524.4176,504.7754 L523.9479,520.5859 L525.7595,536.3965 L525.7595,536.3965 L525.2226,535.7208 L521.1619,539.9457 L516.4962,543.4094 L512.7081,547.9773 L507.4216,550.6597 L503.0258,554.4629 L502.9389,553.9944 L493.0808,556.6301 L482.8513,557.2632 L472.8859,559.3204 L463.1789,562.771 L453.0117,563.7402 L453.053,564.3439 L443.0784,565.4416 L432.9756,564.6615 L423.0335,566.2333 L413.0563,567.2927 L402.9976,567.1582 L402.9835,566.5022 L398.448,567.1228 L393.9079,567.5285 L389.3768,568.3562 L384.8105,567.543 L380.2639,567.6465 L380.2639,567.6465 L380.2777,568.2888 L375.7007,566.7799 L371.1502,566.5108 L366.6387,568.0528 L362.0556,566.2603 L357.5302,567.1582 L357.5784,567.8635 L347.547,566.7609 L337.4992,565.4198 L327.4883,564.6172 L317.5624,565.0595 L307.5161,563.7402 L307.4403,563.3315 L297.6632,562.693 L287.3705,559.2745 L277.664,559.017 L267.6275,556.9797 L257.502,554.4629 L257.7137,554.7293 L252.9961,550.901 L249.0364,548.0264 L244.392,544.2902 L239.4613,540.1938 L234.7683,536.3965 L235.5133,536.3965 L234.4065,520.5859 L236.7585,504.7754 L235.1985,488.9648 L235.2477,473.1543 L234.7683,457.3438 " fill="#D5F5E3" style="stroke:#566573;stroke-width:1.5625;"/><path d="M234.7683,457.3438 L234.7683,457.3438 L234.9499,457.5723 L238.957,460.5065 L244.0288,464.7805 L248.7539,468.6182 L252.3388,471.0212 L257.502,475.4102 L257.4823,475.304 L267.3968,476.6832 L277.4105,478.5974 L287.4932,480.8835 L297.3382,481.8879 L307.5161,484.6875 L307.5685,485.4547 L317.4593,484.4977 L327.503,485.7807 L337.5655,487.3368 L347.5193,487.303 L357.5302,488.1055 L357.5323,488.2002 L362.076,488.1588 L366.629,488.5487 L371.1776,488.7305 L375.7346,489.3094 L380.2639,488.5938 L380.2639,488.5938 L380.2839,489.5256 L384.8309,489.4393 L389.365,488.752 L393.918,488.9445 L398.4718,489.1782 L402.9976,488.1055 L402.9293,487.1062 L413.0647,488.3621 L422.9752,486.3274 L433.0566,486.7944 L442.962,484.6852 L453.0117,484.6875 L452.9944,484.594 L463.2024,483.8448 L473.005,480.91 L483.0469,479.2649 L493.1088,477.7281 L503.0258,475.4102 L503.3855,475.8627 L507.5692,471.7926 L512.3675,468.4959 L516.1714,463.9479 L521.4585,461.2663 L525.7595,457.3438 " fill="none" style="stroke:#566573;stroke-width:1.5625;"/><text fill="#000000" font-family="sans-serif" font-size="43.75" lengthAdjust="spacing" textLength="228.4912" x="266.0183" y="541.7035">Postgresql</text></g><g id="elem_heroQuarkuslol7"><polygon fill="#F1F1F1" points="101.6671,238.1756,99.3768,241.3051,96.6678,245.8888,92.7933,248.9778,88.722,250.6671,85.4757,250.8137,81.3034,248.7011,77.3666,247.3209,74.3784,244.5187,72.811,241.3108,71.8815,238.7564,70.9708,235.42,69.4927,232.549,70.6286,229.7457,71.6237,226.675,75.3582,224.2464,77.9856,221.0953,81.2376,220.0489,85.1037,219.1478,90.0615,219.6832,92.7769,220.9638,95.9341,221.5443,99.7728,225.4772,101.111,229.6292,101.6924,232.4621,101.0339,237.1305" style="stroke:#181818;stroke-width:4.6875;"/></g><text fill="#000000" font-family="sans-serif" font-size="43.75" lengthAdjust="spacing" textLength="134.4116" x="18.75" y="290.6097">_REST</text><!--reverse link heroPostgresql to heroQuarkus--><g id="link_heroPostgresql_heroQuarkus"><path d="M380.2683,406.3438 L380.5602,406.3438 L379.6929,388.6375 L380.5368,370.9313 L380.8234,353.225 L379.2775,335.5188 L380.2683,317.8125 " fill="none" style="stroke:#FF6655;stroke-width:6.25;stroke-dasharray:7.0,7.0;"/><polygon fill="#FF6655" points="380.2683,425.0938,380.4684,425.1827,382.3739,419.2935,385.4523,413.9255,388.1488,408.3878,389.5892,402.2919,392.7683,396.9688,392.7111,396.9115,389.9542,399.1546,387.4858,401.6863,385.2181,404.4185,382.2591,406.4595,380.2683,409.4688,380.6761,409.8765,377.3041,406.5045,375.1226,404.3231,373.0865,402.2869,370.2051,399.4056,367.7683,396.9688,367.8333,396.9976,370.2379,402.5802,372.9382,408.2943,375.4959,413.9449,378.3258,419.7165,380.2683,425.0938" style="stroke:#FF6655;stroke-width:6.25;"/></g><!--link heroQuarkuslol7 to heroQuarkus--><g id="link_heroQuarkuslol7_heroQuarkus"><path d="M102.9871,234.375 L102.9871,234.6669 L122.5058,233.7996 L142.0246,234.6435 L161.5433,234.9301 L181.0621,233.3842 L200.5808,234.375 " fill="none" style="stroke:#FF6655;stroke-width:6.25;"/></g><!--SRC=[ZL7BRi8m4BpxAwpqqXweU3H4I0Y9HwAUgXPwHvjuIQmOEzYEQ8lwxqq2IateeJwjPySpksEJSrc0XZrb1QUZVf-O5YaDBj32nduAf5QNwFGoaEoekRKepoqGGXstU_x1PKeSebGCwOdCjLR7fH9AKpYKG4YiD4DzHkxyyTWFHYI694-rAYMxuD4a32OHsIbfNs2FT0c2nvetm8P_8Hq4JNqjy-twCx0GWwbd-9Vboe_yiAC1AKfR2roJfzEThinHijciUZXSFAt2MmuKXU09MAvaJOlceR_gwjVXLFetUoQN6A9gMD_TD6WEiHbFSed6qA6JoU1QFH5G4Kv_fDkEuh3N8FCD5dJO9qJWpbAhgEPfPYdZ6fDw3KAQJ_MUKIkFWg5PLLG6vvYyjn9qNfgsSxdJJXIa_HdlLHcRQZG7qJxwXOYhyLWMisw_cd-x3ZVlzFwXrtCTVm00]--></g></svg>