<svg xmlns="http://www.w3.org/2000/svg" xmlns:xlink="http://www.w3.org/1999/xlink" contentStyleType="text/css" data-diagram-type="CLASS" height="115.625px" preserveAspectRatio="none" style="width:1209px;height:115px;background:#FFFFFF;" version="1.1" viewBox="0 0 1209 115" width="1209.375px" zoomAndPan="magnify"><?plantuml 1.2026.3beta4?><defs/><g><polygon fill="#FFFFCC" points="17.1875,9.375,17.1875,10.0318,48.1191,8.0802,79.0508,9.979,109.9824,10.624,140.914,7.1456,171.8456,9.1321,202.7773,8.0422,233.7089,8.1766,264.6405,9.162,295.5721,7.2145,326.5038,11.1051,357.4354,7.4054,388.367,8.757,419.2987,10.7248,450.2303,9.1069,481.1619,9.5882,512.0935,9.2752,543.0252,9.9329,573.9568,10.1223,604.8884,11.2053,635.82,11.472,666.7517,11.4977,697.6833,10.1707,728.6149,10.8237,759.5466,11.5695,790.4782,7.1213,821.4098,11.4953,852.3414,8.4484,883.2731,11.0432,914.2047,7.8281,945.1363,9.1609,976.068,11.6925,1006.9996,9.2227,1037.9312,9.7041,1068.8628,10.4332,1099.7945,10.6757,1130.7261,9.3628,1161.6577,9.375,1161.7722,9.6514,1162.5344,9.2818,1163.9808,10.564,1165.1908,11.2755,1166.2543,11.6334,1167.182,11.6632,1167.7719,11.9076,1167.1747,12.5755,1167.4696,13.613,1167.9569,14.7301,1168.9559,16.0592,1169.4702,17.1875,1169.2655,17.1875,1170.18,24.4629,1169.2883,31.7383,1169.1129,39.0137,1169.708,46.2891,1169.4702,53.5645,1168.8285,53.2986,1168.513,54.4624,1169.1795,56.0329,1168.5166,57.0527,1168.3465,58.2767,1167.182,59.0887,1167.0537,58.779,1166.2044,59.8536,1165.2076,60.5722,1163.6791,60.007,1162.7244,60.8271,1161.6577,61.377,1161.6577,61.7707,1130.7261,63.4137,1099.7945,61.3639,1068.8628,62.8225,1037.9312,59.6464,1006.9996,59.2605,976.068,62.9507,945.1363,59.1365,914.2047,62.9675,883.2731,62.0227,852.3414,60.5397,821.4098,60.2714,790.4782,62.8106,759.5466,60.4415,728.6149,63.2265,697.6833,59.6496,666.7517,63.3064,635.82,62.8904,604.8884,62.1425,573.9568,61.5245,543.0252,63.6476,512.0935,63.2944,481.1619,61.9059,450.2303,62.215,419.2987,60.9699,388.367,63.6159,357.4354,61.8609,326.5038,61.9162,295.5721,59.4759,264.6405,60.1106,233.7089,63.0355,202.7773,62.72,171.8456,61.2428,140.914,60.3702,109.9824,60.6928,79.0508,59.2327,48.1191,62.673,17.1875,61.377,17.4823,62.0887,16.2925,61.4259,15.2548,61.1304,13.8184,59.8724,12.8029,59.6303,11.6632,59.0887,11.2902,58.9342,11.4789,58.0971,10.9854,56.9774,10.8219,55.9944,9.6116,54.5778,9.375,53.5645,9.235,53.5645,9.8369,46.2891,9.966,39.0137,8.8411,31.7383,9.173,24.4629,9.375,17.1875,9.5186,17.247,9.2448,15.8391,10.6304,15.1187,10.9962,13.9758,11.1086,12.7279,11.6632,11.6632,11.7199,11.8001,13.0586,11.9068,13.7482,10.4468,15.1034,10.5934,16.1965,10.1075,17.1875,9.375" style="stroke:#FFDD88;stroke-width:9.375;"/><text fill="#000000" font-family="monospace" font-size="31.25" lengthAdjust="spacing" textLength="1110.0311" x="31.25" y="42.627">Please&#160;use&#160;'!option&#160;handwritten&#160;true'&#160;to&#160;enable&#160;handwritten</text><?plantuml-src ZL3BReCm4BpxAopr1_9oKAGeKXBWs4i-e5hmXgmmDbqRqJRglnT8L47IGtrQpOvdPiUNP6jWgAIkIIvdC-5_aSRZ0GESmgT16RZ1qUu2LhTC8Q2zhS0OrxvLz46s42EYTHhbLUoPNNjqnh64zmQ4o1nhv1loejPh5Ir51dbPi6kilkFf9easgJWx6rwXGda4GndJ09pe2-Ky6kQfpFVONqE037oVuL-MiKfLyg011ThG2qp9s-sPEtEqUhVhFYuEgpXvva1T6yeXaBCzBTqdAdxKxylfz9_kpEyrf5rODRuq6fu85yfBYzxBnQYJ-LGzDz0Hhd-qUu_o0m00?></g></svg>