<svg xmlns="http://www.w3.org/2000/svg" xmlns:xlink="http://www.w3.org/1999/xlink" version="1.1" data-diagram-type="SALT" style="width:255px;height:404px;background:#FFFFFF;" width="255px" height="404px" viewBox="0 0 255 404" zoomAndPan="magnify" preserveAspectRatio="none" contentStyleType="text/css"><?plantuml 1.2026.7beta8?><defs/><g font-family="sans-serif" lengthAdjust="spacing"><text x="6" y="17.139" fill="#000" font-size="12" textLength="82.711">villain-service</text><text x="26" y="31.107" fill="#000" font-size="12" textLength="17.783">src</text><text x="36" y="45.076" fill="#000" font-size="12" textLength="29.982">main</text><text x="46" y="59.045" fill="#000" font-size="12" textLength="25.143">java</text><text x="56" y="73.014" fill="#000" font-size="12" textLength="10.676">io</text><text x="66" y="86.982" fill="#000" font-size="12" textLength="48.316">quarkus</text><text x="76" y="100.951" fill="#000" font-size="12" textLength="57.855">workshop</text><text x="86" y="114.92" fill="#000" font-size="12" textLength="35.396">villain</text><text x="96" y="128.889" fill="#000" font-size="12" textLength="65.461">Villain.java</text><text x="96" y="142.857" fill="#000" font-size="12" textLength="124.752">VillainController.java</text><text x="96" y="156.826" fill="#000" font-size="12" textLength="129.809">VillainRepository.java</text><text x="46" y="170.795" fill="#000" font-size="12" textLength="58.682">resources</text><text x="56" y="184.764" fill="#000" font-size="12" textLength="131.508">application.properties</text><text x="56" y="198.732" fill="#000" font-size="12" textLength="60.639">import.sql</text><text x="36" y="212.701" fill="#000" font-size="12" textLength="23.045">test</text><text x="46" y="226.67" fill="#000" font-size="12" textLength="25.143">java</text><text x="56" y="240.639" fill="#000" font-size="12" textLength="10.676">io</text><text x="66" y="254.607" fill="#000" font-size="12" textLength="48.316">quarkus</text><text x="76" y="268.576" fill="#000" font-size="12" textLength="57.855">workshop</text><text x="86" y="282.545" fill="#000" font-size="12" textLength="35.396">villain</text><text x="96" y="296.514" fill="#000" font-size="12" textLength="150.422">VillainControllerTest.java</text><text x="26" y="310.482" fill="#000" font-size="12" textLength="60.721">Dockerfile</text><text x="26" y="324.451" fill="#000" font-size="12" textLength="74.426">README.md</text><text x="26" y="338.42" fill="#000" font-size="12" textLength="104.432">catalog-info.yaml</text><text x="26" y="352.389" fill="#000" font-size="12" textLength="101.109">kubernetes.yaml</text><text x="26" y="366.357" fill="#000" font-size="12" textLength="36.211">mvnw</text><text x="26" y="380.326" fill="#000" font-size="12" textLength="65.93">mvnw.cmd</text><text x="26" y="394.295" fill="#000" font-size="12" textLength="52.588">pom.xml</text><rect x="-1" y="11.984" width="2" height="2" fill="none" style="stroke:#888;stroke-width:1;"/><rect x="19" y="25.953" width="2" height="2" fill="none" style="stroke:#888;stroke-width:1;"/><line x1="0" y1="14.984" x2="0" y2="26.953" style="stroke:#888;stroke-width:1;"/><line x1="0" y1="26.953" x2="18" y2="26.953" style="stroke:#888;stroke-width:1;"/><rect x="29" y="39.922" width="2" height="2" fill="none" style="stroke:#888;stroke-width:1;"/><line x1="20" y1="28.953" x2="20" y2="40.922" style="stroke:#888;stroke-width:1;"/><line x1="20" y1="40.922" x2="28" y2="40.922" style="stroke:#888;stroke-width:1;"/><rect x="39" y="53.891" width="2" height="2" fill="none" style="stroke:#888;stroke-width:1;"/><line x1="30" y1="42.922" x2="30" y2="54.891" style="stroke:#888;stroke-width:1;"/><line x1="30" y1="54.891" x2="38" y2="54.891" style="stroke:#888;stroke-width:1;"/><rect x="49" y="67.859" width="2" height="2" fill="none" style="stroke:#888;stroke-width:1;"/><line x1="40" y1="56.891" x2="40" y2="68.859" style="stroke:#888;stroke-width:1;"/><line x1="40" y1="68.859" x2="48" y2="68.859" style="stroke:#888;stroke-width:1;"/><rect x="59" y="81.828" width="2" height="2" fill="none" style="stroke:#888;stroke-width:1;"/><line x1="50" y1="70.859" x2="50" y2="82.828" style="stroke:#888;stroke-width:1;"/><line x1="50" y1="82.828" x2="58" y2="82.828" style="stroke:#888;stroke-width:1;"/><rect x="69" y="95.797" width="2" height="2" fill="none" style="stroke:#888;stroke-width:1;"/><line x1="60" y1="84.828" x2="60" y2="96.797" style="stroke:#888;stroke-width:1;"/><line x1="60" y1="96.797" x2="68" y2="96.797" style="stroke:#888;stroke-width:1;"/><rect x="79" y="109.766" width="2" height="2" fill="none" style="stroke:#888;stroke-width:1;"/><line x1="70" y1="98.797" x2="70" y2="110.766" style="stroke:#888;stroke-width:1;"/><line x1="70" y1="110.766" x2="78" y2="110.766" style="stroke:#888;stroke-width:1;"/><line x1="80" y1="112.766" x2="80" y2="124.734" style="stroke:#888;stroke-width:1;"/><line x1="80" y1="124.734" x2="88" y2="124.734" style="stroke:#888;stroke-width:1;"/><line x1="80" y1="112.766" x2="80" y2="138.703" style="stroke:#888;stroke-width:1;"/><line x1="80" y1="138.703" x2="88" y2="138.703" style="stroke:#888;stroke-width:1;"/><line x1="80" y1="112.766" x2="80" y2="152.672" style="stroke:#888;stroke-width:1;"/><line x1="80" y1="152.672" x2="88" y2="152.672" style="stroke:#888;stroke-width:1;"/><rect x="39" y="165.641" width="2" height="2" fill="none" style="stroke:#888;stroke-width:1;"/><line x1="30" y1="42.922" x2="30" y2="166.641" style="stroke:#888;stroke-width:1;"/><line x1="30" y1="166.641" x2="38" y2="166.641" style="stroke:#888;stroke-width:1;"/><line x1="40" y1="168.641" x2="40" y2="180.609" style="stroke:#888;stroke-width:1;"/><line x1="40" y1="180.609" x2="48" y2="180.609" style="stroke:#888;stroke-width:1;"/><line x1="40" y1="168.641" x2="40" y2="194.578" style="stroke:#888;stroke-width:1;"/><line x1="40" y1="194.578" x2="48" y2="194.578" style="stroke:#888;stroke-width:1;"/><rect x="29" y="207.547" width="2" height="2" fill="none" style="stroke:#888;stroke-width:1;"/><line x1="20" y1="28.953" x2="20" y2="208.547" style="stroke:#888;stroke-width:1;"/><line x1="20" y1="208.547" x2="28" y2="208.547" style="stroke:#888;stroke-width:1;"/><rect x="39" y="221.516" width="2" height="2" fill="none" style="stroke:#888;stroke-width:1;"/><line x1="30" y1="210.547" x2="30" y2="222.516" style="stroke:#888;stroke-width:1;"/><line x1="30" y1="222.516" x2="38" y2="222.516" style="stroke:#888;stroke-width:1;"/><rect x="49" y="235.484" width="2" height="2" fill="none" style="stroke:#888;stroke-width:1;"/><line x1="40" y1="224.516" x2="40" y2="236.484" style="stroke:#888;stroke-width:1;"/><line x1="40" y1="236.484" x2="48" y2="236.484" style="stroke:#888;stroke-width:1;"/><rect x="59" y="249.453" width="2" height="2" fill="none" style="stroke:#888;stroke-width:1;"/><line x1="50" y1="238.484" x2="50" y2="250.453" style="stroke:#888;stroke-width:1;"/><line x1="50" y1="250.453" x2="58" y2="250.453" style="stroke:#888;stroke-width:1;"/><rect x="69" y="263.422" width="2" height="2" fill="none" style="stroke:#888;stroke-width:1;"/><line x1="60" y1="252.453" x2="60" y2="264.422" style="stroke:#888;stroke-width:1;"/><line x1="60" y1="264.422" x2="68" y2="264.422" style="stroke:#888;stroke-width:1;"/><rect x="79" y="277.391" width="2" height="2" fill="none" style="stroke:#888;stroke-width:1;"/><line x1="70" y1="266.422" x2="70" y2="278.391" style="stroke:#888;stroke-width:1;"/><line x1="70" y1="278.391" x2="78" y2="278.391" style="stroke:#888;stroke-width:1;"/><line x1="80" y1="280.391" x2="80" y2="292.359" style="stroke:#888;stroke-width:1;"/><line x1="80" y1="292.359" x2="88" y2="292.359" style="stroke:#888;stroke-width:1;"/><line x1="0" y1="14.984" x2="0" y2="306.328" style="stroke:#888;stroke-width:1;"/><line x1="0" y1="306.328" x2="18" y2="306.328" style="stroke:#888;stroke-width:1;"/><line x1="0" y1="14.984" x2="0" y2="320.297" style="stroke:#888;stroke-width:1;"/><line x1="0" y1="320.297" x2="18" y2="320.297" style="stroke:#888;stroke-width:1;"/><line x1="0" y1="14.984" x2="0" y2="334.266" style="stroke:#888;stroke-width:1;"/><line x1="0" y1="334.266" x2="18" y2="334.266" style="stroke:#888;stroke-width:1;"/><line x1="0" y1="14.984" x2="0" y2="348.234" style="stroke:#888;stroke-width:1;"/><line x1="0" y1="348.234" x2="18" y2="348.234" style="stroke:#888;stroke-width:1;"/><line x1="0" y1="14.984" x2="0" y2="362.203" style="stroke:#888;stroke-width:1;"/><line x1="0" y1="362.203" x2="18" y2="362.203" style="stroke:#888;stroke-width:1;"/><line x1="0" y1="14.984" x2="0" y2="376.172" style="stroke:#888;stroke-width:1;"/><line x1="0" y1="376.172" x2="18" y2="376.172" style="stroke:#888;stroke-width:1;"/><line x1="0" y1="14.984" x2="0" y2="390.141" style="stroke:#888;stroke-width:1;"/><line x1="0" y1="390.141" x2="18" y2="390.141" style="stroke:#888;stroke-width:1;"/><?plantuml-src jP6nJWCn38RtUuhiLIFe08n5j6ENgc9tKnV29N7g-AvKY7V7TzVhYO4HUV2VpqxoEraM0PO2GQelZLtL-X30ftb1Rht3QZOpfh3Jh29gfLCgFw25NghsD2YLfmQuRifrhU1CN9TtoYDHTBtYHXIz3iXEf_xYBvI4AGJalpgscAbu8RvC7SOm5chOOHcTGix1En1FoMQcZ2n-glgOYSMMKnZ65Ipod-DEO-tqfj6uMP6haOy-zA-_NJ-lDciR3zr2hKEWjxbFHx8NY9rHKpTxv8JgzePYcyvZjcxOcodQJor_Qomn7VfFh-xjucxnO1_tAF3q0m00?></g></svg>