<svg xmlns="http://www.w3.org/2000/svg" xmlns:xlink="http://www.w3.org/1999/xlink" version="1.1" data-diagram-type="SALT" style="width:255px;height:404px;background:#FFFFFF;" width="255px" height="404px" viewBox="0 0 255 404" zoomAndPan="magnify" preserveAspectRatio="none" contentStyleType="text/css"><?plantuml 1.2026.7beta3?><defs/><g><text x="6" y="17.1387" fill="#000000" font-size="12" lengthAdjust="spacing" textLength="82.7109" font-family="sans-serif">villain-service</text><text x="26" y="31.1074" fill="#000000" font-size="12" lengthAdjust="spacing" textLength="17.7832" font-family="sans-serif">src</text><text x="36" y="45.0762" fill="#000000" font-size="12" lengthAdjust="spacing" textLength="29.9824" font-family="sans-serif">main</text><text x="46" y="59.0449" fill="#000000" font-size="12" lengthAdjust="spacing" textLength="25.1426" font-family="sans-serif">java</text><text x="56" y="73.0137" fill="#000000" font-size="12" lengthAdjust="spacing" textLength="10.6758" font-family="sans-serif">io</text><text x="66" y="86.9824" fill="#000000" font-size="12" lengthAdjust="spacing" textLength="48.3164" font-family="sans-serif">quarkus</text><text x="76" y="100.9512" fill="#000000" font-size="12" lengthAdjust="spacing" textLength="57.8555" font-family="sans-serif">workshop</text><text x="86" y="114.9199" fill="#000000" font-size="12" lengthAdjust="spacing" textLength="35.3965" font-family="sans-serif">villain</text><text x="96" y="128.8887" fill="#000000" font-size="12" lengthAdjust="spacing" textLength="65.4609" font-family="sans-serif">Villain.java</text><text x="96" y="142.8574" fill="#000000" font-size="12" lengthAdjust="spacing" textLength="124.752" font-family="sans-serif">VillainController.java</text><text x="96" y="156.8262" fill="#000000" font-size="12" lengthAdjust="spacing" textLength="129.8086" font-family="sans-serif">VillainRepository.java</text><text x="46" y="170.7949" fill="#000000" font-size="12" lengthAdjust="spacing" textLength="58.6816" font-family="sans-serif">resources</text><text x="56" y="184.7637" fill="#000000" font-size="12" lengthAdjust="spacing" textLength="131.5078" font-family="sans-serif">application.properties</text><text x="56" y="198.7324" fill="#000000" font-size="12" lengthAdjust="spacing" textLength="60.6387" font-family="sans-serif">import.sql</text><text x="36" y="212.7012" fill="#000000" font-size="12" lengthAdjust="spacing" textLength="23.0449" font-family="sans-serif">test</text><text x="46" y="226.6699" fill="#000000" font-size="12" lengthAdjust="spacing" textLength="25.1426" font-family="sans-serif">java</text><text x="56" y="240.6387" fill="#000000" font-size="12" lengthAdjust="spacing" textLength="10.6758" font-family="sans-serif">io</text><text x="66" y="254.6074" fill="#000000" font-size="12" lengthAdjust="spacing" textLength="48.3164" font-family="sans-serif">quarkus</text><text x="76" y="268.5762" fill="#000000" font-size="12" lengthAdjust="spacing" textLength="57.8555" font-family="sans-serif">workshop</text><text x="86" y="282.5449" fill="#000000" font-size="12" lengthAdjust="spacing" textLength="35.3965" font-family="sans-serif">villain</text><text x="96" y="296.5137" fill="#000000" font-size="12" lengthAdjust="spacing" textLength="150.4219" font-family="sans-serif">VillainControllerTest.java</text><text x="26" y="310.4824" fill="#000000" font-size="12" lengthAdjust="spacing" textLength="60.7207" font-family="sans-serif">Dockerfile</text><text x="26" y="324.4512" fill="#000000" font-size="12" lengthAdjust="spacing" textLength="74.4258" font-family="sans-serif">README.md</text><text x="26" y="338.4199" fill="#000000" font-size="12" lengthAdjust="spacing" textLength="104.4316" font-family="sans-serif">catalog-info.yaml</text><text x="26" y="352.3887" fill="#000000" font-size="12" lengthAdjust="spacing" textLength="101.1094" font-family="sans-serif">kubernetes.yaml</text><text x="26" y="366.3574" fill="#000000" font-size="12" lengthAdjust="spacing" textLength="36.2109" font-family="sans-serif">mvnw</text><text x="26" y="380.3262" fill="#000000" font-size="12" lengthAdjust="spacing" textLength="65.9297" font-family="sans-serif">mvnw.cmd</text><text x="26" y="394.2949" fill="#000000" font-size="12" lengthAdjust="spacing" textLength="52.5879" font-family="sans-serif">pom.xml</text><rect x="-1" y="11.9844" width="2" height="2" fill="none" style="stroke:#888888;stroke-width:1;"/><rect x="19" y="25.9531" width="2" height="2" fill="none" style="stroke:#888888;stroke-width:1;"/><line x1="0" y1="14.9844" x2="0" y2="26.9531" style="stroke:#888888;stroke-width:1;"/><line x1="0" y1="26.9531" x2="18" y2="26.9531" style="stroke:#888888;stroke-width:1;"/><rect x="29" y="39.9219" width="2" height="2" fill="none" style="stroke:#888888;stroke-width:1;"/><line x1="20" y1="28.9531" x2="20" y2="40.9219" style="stroke:#888888;stroke-width:1;"/><line x1="20" y1="40.9219" x2="28" y2="40.9219" style="stroke:#888888;stroke-width:1;"/><rect x="39" y="53.8906" width="2" height="2" fill="none" style="stroke:#888888;stroke-width:1;"/><line x1="30" y1="42.9219" x2="30" y2="54.8906" style="stroke:#888888;stroke-width:1;"/><line x1="30" y1="54.8906" x2="38" y2="54.8906" style="stroke:#888888;stroke-width:1;"/><rect x="49" y="67.8594" width="2" height="2" fill="none" style="stroke:#888888;stroke-width:1;"/><line x1="40" y1="56.8906" x2="40" y2="68.8594" style="stroke:#888888;stroke-width:1;"/><line x1="40" y1="68.8594" x2="48" y2="68.8594" style="stroke:#888888;stroke-width:1;"/><rect x="59" y="81.8281" width="2" height="2" fill="none" style="stroke:#888888;stroke-width:1;"/><line x1="50" y1="70.8594" x2="50" y2="82.8281" style="stroke:#888888;stroke-width:1;"/><line x1="50" y1="82.8281" x2="58" y2="82.8281" style="stroke:#888888;stroke-width:1;"/><rect x="69" y="95.7969" width="2" height="2" fill="none" style="stroke:#888888;stroke-width:1;"/><line x1="60" y1="84.8281" x2="60" y2="96.7969" style="stroke:#888888;stroke-width:1;"/><line x1="60" y1="96.7969" x2="68" y2="96.7969" style="stroke:#888888;stroke-width:1;"/><rect x="79" y="109.7656" width="2" height="2" fill="none" style="stroke:#888888;stroke-width:1;"/><line x1="70" y1="98.7969" x2="70" y2="110.7656" style="stroke:#888888;stroke-width:1;"/><line x1="70" y1="110.7656" x2="78" y2="110.7656" style="stroke:#888888;stroke-width:1;"/><line x1="80" y1="112.7656" x2="80" y2="124.7344" style="stroke:#888888;stroke-width:1;"/><line x1="80" y1="124.7344" x2="88" y2="124.7344" style="stroke:#888888;stroke-width:1;"/><line x1="80" y1="112.7656" x2="80" y2="138.7031" style="stroke:#888888;stroke-width:1;"/><line x1="80" y1="138.7031" x2="88" y2="138.7031" style="stroke:#888888;stroke-width:1;"/><line x1="80" y1="112.7656" x2="80" y2="152.6719" style="stroke:#888888;stroke-width:1;"/><line x1="80" y1="152.6719" x2="88" y2="152.6719" style="stroke:#888888;stroke-width:1;"/><rect x="39" y="165.6406" width="2" height="2" fill="none" style="stroke:#888888;stroke-width:1;"/><line x1="30" y1="42.9219" x2="30" y2="166.6406" style="stroke:#888888;stroke-width:1;"/><line x1="30" y1="166.6406" x2="38" y2="166.6406" style="stroke:#888888;stroke-width:1;"/><line x1="40" y1="168.6406" x2="40" y2="180.6094" style="stroke:#888888;stroke-width:1;"/><line x1="40" y1="180.6094" x2="48" y2="180.6094" style="stroke:#888888;stroke-width:1;"/><line x1="40" y1="168.6406" x2="40" y2="194.5781" style="stroke:#888888;stroke-width:1;"/><line x1="40" y1="194.5781" x2="48" y2="194.5781" style="stroke:#888888;stroke-width:1;"/><rect x="29" y="207.5469" width="2" height="2" fill="none" style="stroke:#888888;stroke-width:1;"/><line x1="20" y1="28.9531" x2="20" y2="208.5469" style="stroke:#888888;stroke-width:1;"/><line x1="20" y1="208.5469" x2="28" y2="208.5469" style="stroke:#888888;stroke-width:1;"/><rect x="39" y="221.5156" width="2" height="2" fill="none" style="stroke:#888888;stroke-width:1;"/><line x1="30" y1="210.5469" x2="30" y2="222.5156" style="stroke:#888888;stroke-width:1;"/><line x1="30" y1="222.5156" x2="38" y2="222.5156" style="stroke:#888888;stroke-width:1;"/><rect x="49" y="235.4844" width="2" height="2" fill="none" style="stroke:#888888;stroke-width:1;"/><line x1="40" y1="224.5156" x2="40" y2="236.4844" style="stroke:#888888;stroke-width:1;"/><line x1="40" y1="236.4844" x2="48" y2="236.4844" style="stroke:#888888;stroke-width:1;"/><rect x="59" y="249.4531" width="2" height="2" fill="none" style="stroke:#888888;stroke-width:1;"/><line x1="50" y1="238.4844" x2="50" y2="250.4531" style="stroke:#888888;stroke-width:1;"/><line x1="50" y1="250.4531" x2="58" y2="250.4531" style="stroke:#888888;stroke-width:1;"/><rect x="69" y="263.4219" width="2" height="2" fill="none" style="stroke:#888888;stroke-width:1;"/><line x1="60" y1="252.4531" x2="60" y2="264.4219" style="stroke:#888888;stroke-width:1;"/><line x1="60" y1="264.4219" x2="68" y2="264.4219" style="stroke:#888888;stroke-width:1;"/><rect x="79" y="277.3906" width="2" height="2" fill="none" style="stroke:#888888;stroke-width:1;"/><line x1="70" y1="266.4219" x2="70" y2="278.3906" style="stroke:#888888;stroke-width:1;"/><line x1="70" y1="278.3906" x2="78" y2="278.3906" style="stroke:#888888;stroke-width:1;"/><line x1="80" y1="280.3906" x2="80" y2="292.3594" style="stroke:#888888;stroke-width:1;"/><line x1="80" y1="292.3594" x2="88" y2="292.3594" style="stroke:#888888;stroke-width:1;"/><line x1="0" y1="14.9844" x2="0" y2="306.3281" style="stroke:#888888;stroke-width:1;"/><line x1="0" y1="306.3281" x2="18" y2="306.3281" style="stroke:#888888;stroke-width:1;"/><line x1="0" y1="14.9844" x2="0" y2="320.2969" style="stroke:#888888;stroke-width:1;"/><line x1="0" y1="320.2969" x2="18" y2="320.2969" style="stroke:#888888;stroke-width:1;"/><line x1="0" y1="14.9844" x2="0" y2="334.2656" style="stroke:#888888;stroke-width:1;"/><line x1="0" y1="334.2656" x2="18" y2="334.2656" style="stroke:#888888;stroke-width:1;"/><line x1="0" y1="14.9844" x2="0" y2="348.2344" style="stroke:#888888;stroke-width:1;"/><line x1="0" y1="348.2344" x2="18" y2="348.2344" style="stroke:#888888;stroke-width:1;"/><line x1="0" y1="14.9844" x2="0" y2="362.2031" style="stroke:#888888;stroke-width:1;"/><line x1="0" y1="362.2031" x2="18" y2="362.2031" style="stroke:#888888;stroke-width:1;"/><line x1="0" y1="14.9844" x2="0" y2="376.1719" style="stroke:#888888;stroke-width:1;"/><line x1="0" y1="376.1719" x2="18" y2="376.1719" style="stroke:#888888;stroke-width:1;"/><line x1="0" y1="14.9844" x2="0" y2="390.1406" style="stroke:#888888;stroke-width:1;"/><line x1="0" y1="390.1406" x2="18" y2="390.1406" style="stroke:#888888;stroke-width:1;"/><?plantuml-src jP6nJWCn38RtUuhiLICe4gn5j6ENgc9tKnV29N7g-AvKY7V7TzVhYO4HUV2VpqxoEraM0PO2GQelZLtL-X30ftb1Rht3QZOpfh3Jh29gfLCgFw25NghsD2YLfmQuRifrhU1CN9TtoYDHTBtYHXIz3iXEf_xYBvI4AGJalpgscAbu8RvC7SOm5chOOHcTGix1En1FoMQcZ2n-glgOYSMMKnZ65Ipod-DEO-tqfj6uMP6haOy-zA-_NJ-lDciR3zr2hKEWjxbFHx8NY9rHKpTxv8JgzePYcyvZjcxOcodQJor_Qomn7VfFh-xjucxnQ9_sAF3m0m00?></g></svg>