<svg xmlns="http://www.w3.org/2000/svg" xmlns:xlink="http://www.w3.org/1999/xlink" contentStyleType="text/css" height="472px" preserveAspectRatio="none" style="width:253px;height:472px;background:#FFFFFF;" version="1.1" viewBox="0 0 253 472" width="253px" zoomAndPan="magnify"><defs/><g><text fill="#000000" font-family="sans-serif" font-size="12" lengthAdjust="spacing" textLength="82.7109" x="6" y="17.1387">villain-service</text><text fill="#000000" font-family="sans-serif" font-size="12" lengthAdjust="spacing" textLength="17.7832" x="26" y="31.1074">src</text><text fill="#000000" font-family="sans-serif" font-size="12" lengthAdjust="spacing" textLength="29.9824" x="36" y="45.0762">main</text><text fill="#000000" font-family="sans-serif" font-size="12" lengthAdjust="spacing" textLength="40.8223" x="46" y="59.0449">docker</text><text fill="#000000" font-family="sans-serif" font-size="12" lengthAdjust="spacing" textLength="86.6602" x="56" y="73.0137">Dockerfile.jvm</text><text fill="#000000" font-family="sans-serif" font-size="12" lengthAdjust="spacing" textLength="123.873" x="56" y="86.9824">Dockerfile.legacy-jar</text><text fill="#000000" font-family="sans-serif" font-size="12" lengthAdjust="spacing" textLength="102.0176" x="56" y="100.9512">Dockerfile.native</text><text fill="#000000" font-family="sans-serif" font-size="12" lengthAdjust="spacing" textLength="140.2441" x="56" y="114.9199">Dockerfile.native-micro</text><text fill="#000000" font-family="sans-serif" font-size="12" lengthAdjust="spacing" textLength="25.1426" x="46" y="128.8887">java</text><text fill="#000000" font-family="sans-serif" font-size="12" lengthAdjust="spacing" textLength="10.6758" x="56" y="142.8574">io</text><text fill="#000000" font-family="sans-serif" font-size="12" lengthAdjust="spacing" textLength="48.3164" x="66" y="156.8262">quarkus</text><text fill="#000000" font-family="sans-serif" font-size="12" lengthAdjust="spacing" textLength="57.8555" x="76" y="170.7949">workshop</text><text fill="#000000" font-family="sans-serif" font-size="12" lengthAdjust="spacing" textLength="35.3965" x="86" y="184.7637">villain</text><text fill="#000000" font-family="sans-serif" font-size="12" lengthAdjust="spacing" textLength="65.4609" x="96" y="198.7324">Villain.java</text><text fill="#000000" font-family="sans-serif" font-size="12" lengthAdjust="spacing" textLength="124.752" x="96" y="212.7012">VillainController.java</text><text fill="#000000" font-family="sans-serif" font-size="12" lengthAdjust="spacing" textLength="129.8086" x="96" y="226.6699">VillainRepository.java</text><text fill="#000000" font-family="sans-serif" font-size="12" lengthAdjust="spacing" textLength="58.6816" x="46" y="240.6387">resources</text><text fill="#000000" font-family="sans-serif" font-size="12" lengthAdjust="spacing" textLength="131.5078" x="56" y="254.6074">application.properties</text><text fill="#000000" font-family="sans-serif" font-size="12" lengthAdjust="spacing" textLength="60.6387" x="56" y="268.5762">import.sql</text><text fill="#000000" font-family="sans-serif" font-size="12" lengthAdjust="spacing" textLength="23.0449" x="36" y="282.5449">test</text><text fill="#000000" font-family="sans-serif" font-size="12" lengthAdjust="spacing" textLength="25.1426" x="46" y="296.5137">java</text><text fill="#000000" font-family="sans-serif" font-size="12" lengthAdjust="spacing" textLength="10.6758" x="56" y="310.4824">io</text><text fill="#000000" font-family="sans-serif" font-size="12" lengthAdjust="spacing" textLength="48.3164" x="66" y="324.4512">quarkus</text><text fill="#000000" font-family="sans-serif" font-size="12" lengthAdjust="spacing" textLength="57.8555" x="76" y="338.4199">workshop</text><text fill="#000000" font-family="sans-serif" font-size="12" lengthAdjust="spacing" textLength="35.3965" x="86" y="352.3887">villain</text><text fill="#000000" font-family="sans-serif" font-size="12" lengthAdjust="spacing" textLength="150.4219" x="96" y="366.3574">VillainControllerTest.java</text><text fill="#000000" font-family="sans-serif" font-size="12" lengthAdjust="spacing" textLength="60.7207" x="26" y="380.3262">Dockerfile</text><text fill="#000000" font-family="sans-serif" font-size="12" lengthAdjust="spacing" textLength="74.4258" x="26" y="394.2949">README.md</text><text fill="#000000" font-family="sans-serif" font-size="12" lengthAdjust="spacing" textLength="104.4316" x="26" y="408.2637">catalog-info.yaml</text><text fill="#000000" font-family="sans-serif" font-size="12" lengthAdjust="spacing" textLength="101.1094" x="26" y="422.2324">kubernetes.yaml</text><text fill="#000000" font-family="sans-serif" font-size="12" lengthAdjust="spacing" textLength="36.2109" x="26" y="436.2012">mvnw</text><text fill="#000000" font-family="sans-serif" font-size="12" lengthAdjust="spacing" textLength="65.9297" x="26" y="450.1699">mvnw.cmd</text><text fill="#000000" font-family="sans-serif" font-size="12" lengthAdjust="spacing" textLength="52.5879" x="26" y="464.1387">pom.xml</text><rect fill="none" height="2" style="stroke:#888888;stroke-width:1.0;" width="2" x="-1" y="11.9844"/><rect fill="none" height="2" style="stroke:#888888;stroke-width:1.0;" width="2" x="19" y="25.9531"/><line style="stroke:#888888;stroke-width:1.0;" x1="0" x2="0" y1="14.9844" y2="26.9531"/><line style="stroke:#888888;stroke-width:1.0;" x1="0" x2="18" y1="26.9531" y2="26.9531"/><rect fill="none" height="2" style="stroke:#888888;stroke-width:1.0;" width="2" x="29" y="39.9219"/><line style="stroke:#888888;stroke-width:1.0;" x1="20" x2="20" y1="28.9531" y2="40.9219"/><line style="stroke:#888888;stroke-width:1.0;" x1="20" x2="28" y1="40.9219" y2="40.9219"/><rect fill="none" height="2" style="stroke:#888888;stroke-width:1.0;" width="2" x="39" y="53.8906"/><line style="stroke:#888888;stroke-width:1.0;" x1="30" x2="30" y1="42.9219" y2="54.8906"/><line style="stroke:#888888;stroke-width:1.0;" x1="30" x2="38" y1="54.8906" y2="54.8906"/><line style="stroke:#888888;stroke-width:1.0;" x1="40" x2="40" y1="56.8906" y2="68.8594"/><line style="stroke:#888888;stroke-width:1.0;" x1="40" x2="48" y1="68.8594" y2="68.8594"/><line style="stroke:#888888;stroke-width:1.0;" x1="40" x2="40" y1="56.8906" y2="82.8281"/><line style="stroke:#888888;stroke-width:1.0;" x1="40" x2="48" y1="82.8281" y2="82.8281"/><line style="stroke:#888888;stroke-width:1.0;" x1="40" x2="40" y1="56.8906" y2="96.7969"/><line style="stroke:#888888;stroke-width:1.0;" x1="40" x2="48" y1="96.7969" y2="96.7969"/><line style="stroke:#888888;stroke-width:1.0;" x1="40" x2="40" y1="56.8906" y2="110.7656"/><line style="stroke:#888888;stroke-width:1.0;" x1="40" x2="48" y1="110.7656" y2="110.7656"/><rect fill="none" height="2" style="stroke:#888888;stroke-width:1.0;" width="2" x="39" y="123.7344"/><line style="stroke:#888888;stroke-width:1.0;" x1="30" x2="30" y1="42.9219" y2="124.7344"/><line style="stroke:#888888;stroke-width:1.0;" x1="30" x2="38" y1="124.7344" y2="124.7344"/><rect fill="none" height="2" style="stroke:#888888;stroke-width:1.0;" width="2" x="49" y="137.7031"/><line style="stroke:#888888;stroke-width:1.0;" x1="40" x2="40" y1="126.7344" y2="138.7031"/><line style="stroke:#888888;stroke-width:1.0;" x1="40" x2="48" y1="138.7031" y2="138.7031"/><rect fill="none" height="2" style="stroke:#888888;stroke-width:1.0;" width="2" x="59" y="151.6719"/><line style="stroke:#888888;stroke-width:1.0;" x1="50" x2="50" y1="140.7031" y2="152.6719"/><line style="stroke:#888888;stroke-width:1.0;" x1="50" x2="58" y1="152.6719" y2="152.6719"/><rect fill="none" height="2" style="stroke:#888888;stroke-width:1.0;" width="2" x="69" y="165.6406"/><line style="stroke:#888888;stroke-width:1.0;" x1="60" x2="60" y1="154.6719" y2="166.6406"/><line style="stroke:#888888;stroke-width:1.0;" x1="60" x2="68" y1="166.6406" y2="166.6406"/><rect fill="none" height="2" style="stroke:#888888;stroke-width:1.0;" width="2" x="79" y="179.6094"/><line style="stroke:#888888;stroke-width:1.0;" x1="70" x2="70" y1="168.6406" y2="180.6094"/><line style="stroke:#888888;stroke-width:1.0;" x1="70" x2="78" y1="180.6094" y2="180.6094"/><line style="stroke:#888888;stroke-width:1.0;" x1="80" x2="80" y1="182.6094" y2="194.5781"/><line style="stroke:#888888;stroke-width:1.0;" x1="80" x2="88" y1="194.5781" y2="194.5781"/><line style="stroke:#888888;stroke-width:1.0;" x1="80" x2="80" y1="182.6094" y2="208.5469"/><line style="stroke:#888888;stroke-width:1.0;" x1="80" x2="88" y1="208.5469" y2="208.5469"/><line style="stroke:#888888;stroke-width:1.0;" x1="80" x2="80" y1="182.6094" y2="222.5156"/><line style="stroke:#888888;stroke-width:1.0;" x1="80" x2="88" y1="222.5156" y2="222.5156"/><rect fill="none" height="2" style="stroke:#888888;stroke-width:1.0;" width="2" x="39" y="235.4844"/><line style="stroke:#888888;stroke-width:1.0;" x1="30" x2="30" y1="42.9219" y2="236.4844"/><line style="stroke:#888888;stroke-width:1.0;" x1="30" x2="38" y1="236.4844" y2="236.4844"/><line style="stroke:#888888;stroke-width:1.0;" x1="40" x2="40" y1="238.4844" y2="250.4531"/><line style="stroke:#888888;stroke-width:1.0;" x1="40" x2="48" y1="250.4531" y2="250.4531"/><line style="stroke:#888888;stroke-width:1.0;" x1="40" x2="40" y1="238.4844" y2="264.4219"/><line style="stroke:#888888;stroke-width:1.0;" x1="40" x2="48" y1="264.4219" y2="264.4219"/><rect fill="none" height="2" style="stroke:#888888;stroke-width:1.0;" width="2" x="29" y="277.3906"/><line style="stroke:#888888;stroke-width:1.0;" x1="20" x2="20" y1="28.9531" y2="278.3906"/><line style="stroke:#888888;stroke-width:1.0;" x1="20" x2="28" y1="278.3906" y2="278.3906"/><rect fill="none" height="2" style="stroke:#888888;stroke-width:1.0;" width="2" x="39" y="291.3594"/><line style="stroke:#888888;stroke-width:1.0;" x1="30" x2="30" y1="280.3906" y2="292.3594"/><line style="stroke:#888888;stroke-width:1.0;" x1="30" x2="38" y1="292.3594" y2="292.3594"/><rect fill="none" height="2" style="stroke:#888888;stroke-width:1.0;" width="2" x="49" y="305.3281"/><line style="stroke:#888888;stroke-width:1.0;" x1="40" x2="40" y1="294.3594" y2="306.3281"/><line style="stroke:#888888;stroke-width:1.0;" x1="40" x2="48" y1="306.3281" y2="306.3281"/><rect fill="none" height="2" style="stroke:#888888;stroke-width:1.0;" width="2" x="59" y="319.2969"/><line style="stroke:#888888;stroke-width:1.0;" x1="50" x2="50" y1="308.3281" y2="320.2969"/><line style="stroke:#888888;stroke-width:1.0;" x1="50" x2="58" y1="320.2969" y2="320.2969"/><rect fill="none" height="2" style="stroke:#888888;stroke-width:1.0;" width="2" x="69" y="333.2656"/><line style="stroke:#888888;stroke-width:1.0;" x1="60" x2="60" y1="322.2969" y2="334.2656"/><line style="stroke:#888888;stroke-width:1.0;" x1="60" x2="68" y1="334.2656" y2="334.2656"/><rect fill="none" height="2" style="stroke:#888888;stroke-width:1.0;" width="2" x="79" y="347.2344"/><line style="stroke:#888888;stroke-width:1.0;" x1="70" x2="70" y1="336.2656" y2="348.2344"/><line style="stroke:#888888;stroke-width:1.0;" x1="70" x2="78" y1="348.2344" y2="348.2344"/><line style="stroke:#888888;stroke-width:1.0;" x1="80" x2="80" y1="350.2344" y2="362.2031"/><line style="stroke:#888888;stroke-width:1.0;" x1="80" x2="88" y1="362.2031" y2="362.2031"/><line style="stroke:#888888;stroke-width:1.0;" x1="0" x2="0" y1="14.9844" y2="376.1719"/><line style="stroke:#888888;stroke-width:1.0;" x1="0" x2="18" y1="376.1719" y2="376.1719"/><line style="stroke:#888888;stroke-width:1.0;" x1="0" x2="0" y1="14.9844" y2="390.1406"/><line style="stroke:#888888;stroke-width:1.0;" x1="0" x2="18" y1="390.1406" y2="390.1406"/><line style="stroke:#888888;stroke-width:1.0;" x1="0" x2="0" y1="14.9844" y2="404.1094"/><line style="stroke:#888888;stroke-width:1.0;" x1="0" x2="18" y1="404.1094" y2="404.1094"/><line style="stroke:#888888;stroke-width:1.0;" x1="0" x2="0" y1="14.9844" y2="418.0781"/><line style="stroke:#888888;stroke-width:1.0;" x1="0" x2="18" y1="418.0781" y2="418.0781"/><line style="stroke:#888888;stroke-width:1.0;" x1="0" x2="0" y1="14.9844" y2="432.0469"/><line style="stroke:#888888;stroke-width:1.0;" x1="0" x2="18" y1="432.0469" y2="432.0469"/><line style="stroke:#888888;stroke-width:1.0;" x1="0" x2="0" y1="14.9844" y2="446.0156"/><line style="stroke:#888888;stroke-width:1.0;" x1="0" x2="18" y1="446.0156" y2="446.0156"/><line style="stroke:#888888;stroke-width:1.0;" x1="0" x2="0" y1="14.9844" y2="459.9844"/><line style="stroke:#888888;stroke-width:1.0;" x1="0" x2="18" y1="459.9844" y2="459.9844"/><!--SRC=[jLBBRjim4BppAtXC48XeW_I1dDB6RW7NHWF7zfscrYejSiaiARb6qN_lohAY5aYE1G_ScNrmTi2xb3Nbf5qMl_YiH6kTqnQB1DHQ0-BgIif4XcyEF6UwYCCoc1he11XDJcXd7QXzwrzW7LJQ78kzVga5TROjl9eel3KKpk_kTQk7IjkJNVZKQAgRTCPC70BLwKU80yFKURLdXgbDJwbnwZ_yVS1CmJcWrogM44EoET1nh92I88M63AH1gOxHMSFR15IHGWJATinQ7mDbbPvSRtE6bF_dkkDQAtvf4FwNyHrQJZzD5bFbomwmTEr2LLZS1NNKlXCgwsOBXC1gdodVuc6ubUbxO_3g9wT_yxa3B4-VJJmuZNczcCiMAB4jygswVdDzepvi8Ujt5skiCHnGck0Z2vBPUhWK5ryVvhAtLfOsPRBRflFqKinu1xbiiAkxbTyZu6poRI3a55jB0JrW5hFDOYnuVrDyjba-ycS7afk5cC1EDovpXmcbnUfMhbTVYezYhh5gTCMp0SLzuBbqvDpZ7m00]--></g></svg>